M48
; DRILL file {KiCad 8.0.1} date 2024-04-14T19:48:48+0200
; FORMAT={-:-/ absolute / metric / decimal}
; #@! TF.CreationDate,2024-04-14T19:48:48+02:00
; #@! TF.GenerationSoftware,Kicad,Pcbnew,8.0.1
; #@! TF.FileFunction,Plated,1,8,PTH
FMAT,2
METRIC
; #@! TA.AperFunction,Plated,PTH,ViaDrill
T1C0.200
; #@! TA.AperFunction,Plated,PTH,ViaDrill
T2C0.250
; #@! TA.AperFunction,Plated,PTH,ComponentDrill
T3C0.460
; #@! TA.AperFunction,Plated,PTH,ComponentDrill
T4C0.500
; #@! TA.AperFunction,Plated,PTH,ComponentDrill
T5C0.600
; #@! TA.AperFunction,Plated,PTH,ComponentDrill
T6C1.041
; #@! TA.AperFunction,Plated,PTH,ComponentDrill
T7C3.200
%
G90
G05
T1
X145.0Y-185.9
X145.0Y-187.1
X145.0Y-189.0
X145.0Y-190.0
X145.1Y-191.1
X145.1Y-191.9
X145.1Y-193.1
X145.4Y-186.5
X145.5Y-192.5
X145.8Y-185.9
X145.8Y-187.1
X145.8Y-189.1
X145.8Y-189.9
X145.9Y-191.1
X145.9Y-191.9
X145.9Y-193.1
X145.9Y-193.9
X146.0Y-197.5
X147.5Y-197.5
X147.9Y-195.5
X147.9Y-196.3
X148.5Y-195.9
X148.5Y-199.0
X149.1Y-195.5
X149.1Y-196.3
X149.2Y-188.4
X149.2Y-189.15
X149.2Y-189.85
X149.2Y-190.8
X149.5Y-197.5
X149.7Y-193.22
X149.7Y-194.4
X150.0Y-195.5
X150.8Y-187.5
X150.8Y-188.2
X150.8Y-188.9
X151.47Y-189.28
X151.473Y-190.379
X153.52Y-181.8
X153.52Y-183.2
X154.48Y-181.8
X154.48Y-183.2
X155.9Y-185.9
X155.9Y-188.3
X155.9Y-189.1
X155.9Y-189.9
X155.9Y-192.3
X155.9Y-193.1
X156.0Y-185.0
X157.2Y-187.5
X157.2Y-188.7
X157.2Y-189.5
X157.2Y-191.1
X157.2Y-192.7
X157.4Y-186.1
X157.4Y-186.8
X157.4Y-194.6
X157.8Y-193.3
X158.1Y-192.2
X158.2Y-186.1
X158.2Y-188.0
X158.2Y-189.4
X158.2Y-194.6
X158.3Y-183.4
X158.6Y-193.3
X159.0Y-194.6
X159.2Y-183.4
X159.2Y-192.0
X159.4Y-185.7
X159.4Y-193.3
X159.4Y-196.8
X159.718Y-194.623
X159.8Y-184.4
X159.914Y-181.987
X160.0Y-189.5
X160.2Y-185.719
X160.4Y-180.6
X160.5Y-181.45
X160.6Y-184.4
X161.0Y-185.7
X161.0Y-188.5
X161.0Y-189.5
X161.0Y-190.5
X161.0Y-193.3
X161.4Y-184.4
X161.4Y-194.6
X161.6Y-192.2
X161.8Y-185.7
X161.8Y-186.8
X161.8Y-193.3
X161.98Y-195.72
X162.0Y-188.5
X162.0Y-189.5
X162.188Y-194.683
X162.2Y-184.4
X162.6Y-185.7
X162.6Y-192.2
X162.6Y-193.3
X163.0Y-184.4
X163.0Y-194.6
X163.4Y-193.3
X163.6Y-184.0
X163.8Y-185.7
X163.8Y-188.2
X163.8Y-190.6
X163.8Y-194.6
X164.2Y-193.3
X164.4Y-184.3
X164.6Y-185.7
X164.6Y-194.6
X164.718Y-192.782
X164.764Y-191.831
X164.8Y-186.7
X164.8Y-187.5
X164.8Y-188.3
X164.8Y-189.1
X164.8Y-189.9
X164.8Y-190.7
X165.2Y-184.3
X166.1Y-185.8
X166.1Y-187.1
X166.1Y-188.7
X166.1Y-190.3
X166.135Y-193.003
X166.2Y-191.5
X166.7Y-186.3
X166.7Y-187.9
X166.7Y-189.5
X166.8Y-190.9
X175.25Y-197.0
X176.0Y-182.0
X176.0Y-183.0
X176.0Y-184.0
X176.0Y-186.0
X176.0Y-187.0
X176.0Y-189.0
X176.0Y-190.0
X176.0Y-191.0
X176.0Y-192.0
X176.0Y-193.0
X176.0Y-194.0
X176.0Y-195.0
X176.0Y-196.0
X176.0Y-197.0
X177.0Y-182.0
X177.0Y-183.0
X177.0Y-184.0
X177.0Y-185.0
X177.0Y-187.0
X177.0Y-189.0
X177.0Y-190.0
X177.0Y-191.0
X177.0Y-194.0
X177.0Y-195.0
X177.0Y-196.0
X178.0Y-182.0
X178.0Y-183.0
X178.0Y-184.0
X178.0Y-185.0
X178.0Y-187.0
X178.0Y-188.0
X178.0Y-191.0
X178.0Y-192.0
X178.0Y-193.0
X178.0Y-194.0
X178.0Y-196.0
X178.0Y-197.0
X178.5Y-161.25
X178.5Y-164.4
X179.0Y-182.0
X179.0Y-183.0
X179.0Y-185.0
X179.0Y-186.0
X179.0Y-187.0
X179.0Y-188.0
X179.0Y-190.0
X179.0Y-191.0
X179.0Y-192.0
X179.0Y-193.0
X179.0Y-195.0
X179.0Y-196.0
X179.0Y-197.0
X180.0Y-182.0
X180.0Y-184.0
X180.0Y-185.0
X180.0Y-186.0
X180.0Y-189.0
X180.0Y-190.0
X180.0Y-191.0
X180.0Y-194.0
X180.5Y-161.25
X181.0Y-182.0
X181.0Y-186.0
X181.0Y-187.0
X181.0Y-188.0
X181.0Y-189.0
X181.0Y-192.0
X181.0Y-197.0
X182.0Y-180.7
X182.0Y-185.0
X182.0Y-186.0
X182.0Y-187.0
X182.0Y-188.0
X182.0Y-189.0
X182.0Y-190.0
X182.0Y-191.0
X182.0Y-192.0
X182.0Y-193.0
X182.0Y-195.0
X182.5Y-161.25
X182.5Y-164.0
X182.82Y-169.337
X182.935Y-180.7
X183.0Y-183.0
X183.0Y-186.0
X183.0Y-187.0
X183.0Y-188.0
X183.0Y-189.0
X183.0Y-190.0
X183.0Y-191.0
X183.0Y-192.0
X183.0Y-193.0
X183.1Y-180.0
X183.585Y-174.2
X183.7Y-171.237
X183.79Y-180.7
X183.9Y-179.9
X184.0Y-185.0
X184.0Y-186.0
X184.0Y-187.0
X184.0Y-188.0
X184.0Y-189.0
X184.0Y-190.0
X184.0Y-191.0
X184.0Y-192.0
X184.0Y-193.0
X184.0Y-196.0
X184.2Y-172.937
X184.5Y-161.25
X184.9Y-171.937
X184.9Y-173.837
X185.0Y-184.0
X185.0Y-185.0
X185.0Y-186.0
X185.0Y-187.0
X185.0Y-188.0
X185.0Y-189.0
X185.0Y-190.0
X185.0Y-191.0
X185.0Y-192.0
X185.0Y-193.0
X185.0Y-194.0
X185.07Y-180.0
X185.7Y-172.937
X186.0Y-181.98
X186.0Y-187.0
X186.0Y-188.0
X186.0Y-189.0
X186.0Y-190.0
X186.0Y-191.0
X186.0Y-192.0
X186.0Y-193.0
X186.0Y-194.0
X186.0Y-197.0
X186.005Y-181.02
X186.1Y-171.237
X186.1Y-174.437
X186.5Y-161.25
X186.5Y-164.1
X187.0Y-184.0
X187.0Y-185.0
X187.0Y-186.0
X187.0Y-187.0
X187.0Y-188.0
X187.0Y-189.0
X187.0Y-190.0
X187.0Y-191.0
X187.0Y-192.0
X187.0Y-194.0
X187.0Y-195.0
X187.0Y-196.0
X187.0Y-197.0
X187.8Y-174.637
X188.0Y-182.0
X188.0Y-183.0
X188.0Y-184.0
X188.0Y-185.0
X188.0Y-186.0
X188.0Y-187.0
X188.0Y-188.0
X188.0Y-189.0
X188.0Y-190.0
X188.0Y-191.0
X188.0Y-192.0
X188.0Y-193.0
X188.0Y-194.0
X188.0Y-195.0
X188.0Y-196.0
X188.0Y-197.0
X188.5Y-161.25
X188.9Y-165.2
X189.0Y-182.0
X189.0Y-183.0
X189.0Y-184.0
X189.0Y-185.0
X189.0Y-186.0
X189.0Y-191.0
X189.0Y-192.0
X189.0Y-193.0
X189.0Y-196.0
X189.0Y-197.0
X190.0Y-182.0
X190.0Y-183.0
X190.0Y-184.0
X190.0Y-185.0
X190.0Y-186.0
X190.0Y-189.0
X190.0Y-194.0
X190.0Y-195.0
X190.0Y-196.0
X190.0Y-197.0
X190.1Y-165.2
X190.5Y-161.25
X191.0Y-182.0
X191.0Y-183.0
X191.0Y-184.0
X191.0Y-185.0
X191.0Y-186.0
X191.0Y-187.0
X191.0Y-188.0
X191.0Y-189.0
X191.0Y-190.0
X191.0Y-191.0
X191.0Y-192.0
X191.0Y-193.0
X191.0Y-194.0
X191.0Y-195.0
X191.0Y-196.0
X191.0Y-197.0
X200.3Y-191.4
X200.966Y-188.169
X201.0Y-191.4
X201.08Y-186.6
X201.08Y-187.4
X201.2Y-164.3
X201.2Y-165.7
X201.5Y-165.0
X201.8Y-185.0
X201.8Y-185.8
X201.8Y-186.6
X201.8Y-187.4
X201.8Y-188.2
X201.8Y-189.0
X201.8Y-189.8
X201.8Y-190.6
X201.8Y-191.4
X201.8Y-193.0
X201.8Y-193.8
X202.3Y-165.0
X202.6Y-164.3
X202.6Y-165.7
X202.6Y-185.0
X202.6Y-185.8
X202.6Y-186.6
X202.6Y-187.4
X202.6Y-188.2
X202.6Y-193.0
X202.6Y-193.8
X202.6Y-204.5
X203.4Y-185.0
X203.4Y-185.8
X203.4Y-186.6
X203.4Y-187.4
X203.4Y-188.2
X203.4Y-189.0
X203.4Y-189.8
X203.4Y-190.6
X203.4Y-191.4
X203.4Y-193.0
X203.4Y-193.8
X203.6Y-204.5
X204.2Y-185.0
X204.2Y-185.8
X204.2Y-186.6
X204.2Y-187.4
X204.2Y-188.2
X204.2Y-189.0
X204.2Y-189.8
X204.2Y-190.6
X204.2Y-191.4
X204.2Y-192.2
X204.2Y-193.0
X204.2Y-193.8
X205.0Y-185.0
X205.0Y-185.8
X205.0Y-186.6
X205.0Y-187.4
X205.0Y-188.2
X205.0Y-189.0
X205.0Y-189.8
X205.0Y-190.6
X205.0Y-191.4
X205.0Y-192.2
X205.0Y-193.0
X205.0Y-193.8
X205.0Y-195.0
X205.8Y-184.2
X205.8Y-185.0
X205.8Y-185.8
X205.8Y-186.6
X205.8Y-187.4
X205.8Y-188.2
X205.8Y-189.0
X205.8Y-189.8
X205.8Y-190.6
X205.8Y-191.4
X205.8Y-192.2
X205.8Y-193.0
X205.8Y-193.8
X206.6Y-184.0
X206.6Y-185.0
X206.6Y-185.8
X206.6Y-186.6
X206.6Y-187.4
X206.6Y-188.2
X206.6Y-189.8
X206.6Y-190.6
X206.6Y-191.4
X206.6Y-192.2
X206.6Y-193.0
X206.6Y-193.8
X207.4Y-185.0
X207.4Y-186.6
X207.4Y-187.4
X207.4Y-188.2
X207.4Y-189.0
X207.4Y-189.8
X207.4Y-190.6
X207.4Y-191.4
X207.4Y-192.2
X207.4Y-193.0
X208.2Y-185.0
X208.2Y-185.8
X208.2Y-186.6
X208.2Y-187.4
X208.2Y-188.2
X208.2Y-189.0
X208.2Y-189.8
X208.2Y-190.6
X208.2Y-191.4
X208.2Y-192.2
X208.2Y-193.0
X208.275Y-180.55
X209.0Y-185.0
X209.0Y-185.8
X209.0Y-186.6
X209.0Y-187.4
X209.0Y-188.2
X209.0Y-189.0
X209.0Y-189.8
X209.0Y-190.6
X209.0Y-191.4
X209.0Y-192.2
X209.0Y-193.0
X209.725Y-181.7
X209.8Y-185.0
X209.8Y-185.8
X209.8Y-186.6
X209.8Y-187.4
X209.8Y-188.2
X209.8Y-189.0
X209.8Y-189.8
X209.8Y-191.4
X209.8Y-192.2
X209.8Y-193.0
X210.5Y-194.4
X210.5Y-195.4
X210.6Y-186.6
X210.6Y-187.4
X210.6Y-189.8
X210.6Y-190.6
X210.6Y-191.4
X210.7Y-203.6
X210.7Y-204.6
X211.2Y-195.4
X211.3Y-194.4
X211.9Y-207.9
X212.1Y-183.68
X212.1Y-184.5
X212.1Y-185.3
X212.3Y-164.3
X212.3Y-165.7
X212.6Y-165.0
X213.1Y-209.1
X213.3Y-208.4
X213.4Y-165.0
X213.4Y-207.7
X213.7Y-164.3
X213.7Y-165.7
X214.5Y-177.1
X214.5Y-177.9
X215.2Y-208.6
X215.2Y-209.4
X215.4Y-204.7
X216.8Y-183.7
X216.8Y-184.5
X216.8Y-185.4
X216.9Y-208.1
X216.9Y-208.8
X219.6Y-179.0
X220.4Y-179.0
X222.3Y-179.0
X223.6Y-182.9
T2
X143.6Y-161.6
X143.6Y-163.0
X143.6Y-164.6
X143.6Y-166.2
X143.6Y-167.8
X143.6Y-169.4
X143.6Y-171.0
X143.6Y-172.6
X143.6Y-174.2
X143.6Y-175.8
X143.6Y-177.4
X143.6Y-179.0
X143.6Y-180.6
X143.6Y-182.2
X143.6Y-196.8
X143.6Y-198.4
X143.6Y-200.0
X143.6Y-201.6
X143.6Y-203.2
X143.6Y-204.8
X143.6Y-206.4
X143.6Y-208.0
X143.6Y-209.6
X143.6Y-211.2
X143.6Y-212.8
X143.6Y-214.4
X143.6Y-216.0
X143.6Y-217.4
X144.6Y-163.8
X144.6Y-165.4
X144.6Y-167.0
X144.6Y-168.6
X144.6Y-170.2
X144.6Y-171.8
X144.6Y-173.4
X144.6Y-175.0
X144.6Y-176.6
X144.6Y-178.2
X144.6Y-179.8
X144.6Y-181.4
X144.6Y-197.6
X144.6Y-199.2
X144.6Y-200.8
X144.6Y-202.4
X144.6Y-204.0
X144.6Y-205.6
X144.6Y-207.2
X144.6Y-208.8
X144.6Y-210.4
X144.6Y-212.0
X144.6Y-213.6
X144.6Y-215.2
X146.6Y-199.0
X147.5Y-172.5
X147.5Y-177.5
X147.5Y-202.5
X147.6Y-157.6
X147.6Y-221.4
X149.0Y-157.6
X149.0Y-209.0
X149.0Y-210.0
X149.0Y-211.0
X149.0Y-221.4
X149.8Y-158.6
X149.8Y-220.4
X150.0Y-165.1
X150.0Y-166.1
X150.0Y-167.1
X150.0Y-170.0
X150.0Y-209.0
X150.0Y-210.0
X150.0Y-211.0
X150.6Y-157.6
X150.6Y-221.4
X151.0Y-165.1
X151.0Y-166.1
X151.0Y-167.1
X151.0Y-206.0
X151.0Y-207.0
X151.4Y-158.6
X151.4Y-220.4
X152.0Y-172.0
X152.0Y-173.0
X152.0Y-206.0
X152.0Y-207.0
X152.2Y-157.6
X152.2Y-221.4
X152.5Y-180.0
X152.5Y-212.5
X152.5Y-217.5
X153.0Y-158.6
X153.0Y-172.0
X153.0Y-173.0
X153.0Y-206.0
X153.0Y-207.0
X153.0Y-220.4
X153.8Y-157.6
X153.8Y-221.4
X154.0Y-160.0
X154.0Y-172.0
X154.0Y-173.0
X154.0Y-201.6
X154.0Y-202.6
X154.0Y-203.5
X154.0Y-204.5
X154.6Y-158.6
X154.6Y-220.4
X155.0Y-172.0
X155.0Y-173.0
X155.0Y-206.0
X155.0Y-207.0
X155.25Y-174.0
X155.25Y-175.0
X155.25Y-176.0
X155.25Y-177.0
X155.25Y-215.25
X155.4Y-157.6
X155.4Y-221.4
X155.6Y-195.0
X155.6Y-195.8
X155.8Y-201.6
X155.8Y-202.6
X155.8Y-203.5
X155.8Y-204.5
X156.0Y-206.0
X156.0Y-207.0
X156.2Y-158.6
X156.2Y-220.4
X156.246Y-168.0
X156.987Y-195.387
X157.0Y-157.6
X157.0Y-172.0
X157.0Y-173.0
X157.0Y-174.0
X157.0Y-175.0
X157.0Y-176.0
X157.0Y-177.0
X157.0Y-206.0
X157.0Y-207.0
X157.0Y-221.4
X157.4Y-179.8
X157.4Y-180.8
X157.7Y-211.3
X157.7Y-212.1
X157.7Y-212.9
X157.8Y-158.6
X157.8Y-220.4
X158.0Y-172.0
X158.0Y-173.0
X158.15Y-207.1
X158.2Y-195.4
X158.4Y-179.8
X158.4Y-180.8
X158.4Y-186.8
X158.5Y-210.8
X158.5Y-213.3
X158.6Y-157.6
X158.6Y-221.4
X158.7Y-215.5
X158.7Y-209.5
X158.746Y-165.7
X158.746Y-164.1
X158.746Y-164.9
X158.9Y-190.0
X159.0Y-162.3
X159.0Y-168.0
X159.0Y-172.0
X159.0Y-173.0
X159.0Y-198.0
X159.1Y-159.9
X159.1Y-191.1
X159.4Y-158.6
X159.4Y-181.1
X159.4Y-187.9
X159.4Y-210.8
X159.4Y-213.3
X159.4Y-220.4
X159.546Y-163.6
X159.546Y-166.1
X159.6Y-188.7
X160.0Y-159.9
X160.0Y-172.0
X160.0Y-173.0
X160.1Y-191.0
X160.2Y-157.6
X160.2Y-211.3
X160.2Y-212.1
X160.2Y-212.9
X160.2Y-221.4
X160.3Y-183.1
X160.446Y-163.6
X160.446Y-166.1
X160.7Y-209.5
X160.7Y-215.5
X160.9Y-182.5
X161.0Y-158.6
X161.0Y-162.3
X161.0Y-168.0
X161.0Y-191.3
X161.0Y-220.4
X161.246Y-165.7
X161.246Y-164.1
X161.246Y-164.9
X161.8Y-157.6
X161.8Y-221.4
X162.0Y-191.0
X162.0Y-198.0
X162.6Y-158.6
X162.6Y-178.4
X162.6Y-220.4
X163.0Y-191.0
X163.1Y-186.8
X163.4Y-157.6
X163.4Y-221.4
X163.6Y-189.8
X163.9Y-179.2
X164.2Y-158.6
X164.2Y-220.4
X164.8Y-179.5
X165.0Y-157.6
X165.0Y-198.4
X165.0Y-221.4
X165.75Y-200.0
X165.75Y-201.0
X165.75Y-202.0
X165.75Y-203.5
X165.75Y-204.5
X165.75Y-205.5
X165.8Y-158.6
X165.8Y-220.4
X166.0Y-172.0
X166.0Y-173.0
X166.6Y-157.6
X166.6Y-221.4
X166.75Y-203.5
X166.75Y-204.5
X166.75Y-205.5
X166.8Y-200.0
X166.8Y-201.0
X166.8Y-202.0
X167.0Y-172.0
X167.0Y-173.0
X167.4Y-158.6
X167.4Y-220.4
X167.5Y-180.0
X168.0Y-172.0
X168.0Y-173.0
X168.2Y-157.6
X168.2Y-221.4
X169.0Y-158.6
X169.0Y-172.0
X169.0Y-173.0
X169.0Y-200.0
X169.0Y-220.4
X169.3Y-174.1
X169.3Y-175.1
X169.3Y-176.1
X169.3Y-177.1
X169.8Y-157.6
X169.8Y-221.4
X170.0Y-180.0
X170.6Y-158.6
X170.6Y-220.4
X171.0Y-172.0
X171.0Y-173.0
X171.0Y-174.0
X171.0Y-175.0
X171.0Y-176.0
X171.0Y-177.0
X171.2Y-198.4
X171.4Y-157.6
X171.4Y-221.4
X171.75Y-177.5
X172.0Y-172.0
X172.0Y-173.0
X172.2Y-158.6
X172.2Y-220.4
X172.5Y-165.5
X172.5Y-166.5
X172.5Y-217.5
X173.0Y-157.6
X173.0Y-172.0
X173.0Y-173.0
X173.0Y-199.0
X173.0Y-211.7
X173.0Y-212.6
X173.0Y-221.4
X173.5Y-165.5
X173.5Y-166.5
X173.8Y-158.6
X173.8Y-220.4
X174.0Y-172.0
X174.0Y-173.0
X174.0Y-211.7
X174.0Y-212.6
X174.1Y-178.0
X174.1Y-179.0
X174.1Y-180.0
X174.5Y-165.5
X174.5Y-166.5
X174.6Y-157.6
X174.6Y-221.4
X175.0Y-201.8
X175.0Y-202.8
X175.0Y-203.7
X175.0Y-204.7
X175.0Y-211.7
X175.0Y-212.6
X175.0Y-178.0
X175.0Y-179.0
X175.0Y-180.0
X175.4Y-158.6
X175.4Y-220.4
X176.2Y-157.6
X176.2Y-221.4
X176.5Y-215.25
X176.7Y-201.8
X176.7Y-202.8
X176.7Y-203.7
X176.7Y-204.7
X177.0Y-158.6
X177.0Y-169.0
X177.0Y-171.0
X177.0Y-173.0
X177.0Y-220.4
X177.5Y-198.5
X177.5Y-199.5
X177.5Y-200.5
X177.8Y-157.6
X177.8Y-221.4
X178.5Y-167.1
X178.5Y-198.5
X178.5Y-199.5
X178.5Y-200.5
X178.6Y-158.6
X178.6Y-220.4
X178.8Y-173.7
X179.0Y-177.0
X179.0Y-178.0
X179.0Y-179.0
X179.0Y-172.9
X179.0Y-211.3
X179.0Y-212.1
X179.0Y-212.9
X179.2Y-175.5
X179.4Y-157.6
X179.4Y-169.5
X179.4Y-221.4
X179.5Y-170.4
X179.8Y-210.8
X179.8Y-213.3
X180.0Y-177.0
X180.0Y-178.0
X180.0Y-179.0
X180.0Y-215.5
X180.0Y-209.5
X180.1Y-175.3
X180.2Y-158.6
X180.2Y-173.9
X180.2Y-220.4
X180.3Y-206.1
X180.3Y-207.1
X180.5Y-167.5
X180.7Y-210.8
X180.7Y-213.3
X180.826Y-173.4
X181.0Y-157.6
X181.0Y-221.4
X181.5Y-211.3
X181.5Y-212.1
X181.5Y-212.9
X181.8Y-158.6
X181.8Y-220.4
X182.0Y-209.5
X182.0Y-215.5
X182.4Y-168.2
X182.5Y-167.1
X182.6Y-157.6
X182.6Y-221.4
X183.0Y-198.5
X183.0Y-199.5
X183.0Y-200.5
X183.4Y-158.6
X183.4Y-220.4
X184.0Y-177.0
X184.0Y-178.0
X184.0Y-179.0
X184.0Y-198.5
X184.0Y-199.5
X184.0Y-200.5
X184.0Y-219.0
X184.2Y-157.6
X184.2Y-221.4
X184.5Y-167.1
X185.0Y-158.6
X185.0Y-177.0
X185.0Y-178.0
X185.0Y-179.0
X185.0Y-205.75
X185.0Y-206.75
X185.0Y-220.4
X185.5Y-168.5
X185.8Y-157.6
X185.8Y-221.4
X186.0Y-205.75
X186.0Y-206.75
X186.3Y-201.8
X186.3Y-202.8
X186.3Y-203.7
X186.3Y-204.7
X186.5Y-167.1
X186.6Y-158.6
X186.6Y-220.4
X187.0Y-205.75
X187.0Y-206.75
X187.4Y-157.6
X187.4Y-221.4
X187.5Y-168.5
X187.8Y-171.456
X188.0Y-201.8
X188.0Y-202.8
X188.0Y-203.7
X188.0Y-204.7
X188.2Y-158.6
X188.2Y-220.4
X188.5Y-167.1
X188.5Y-198.5
X188.5Y-199.5
X188.5Y-200.5
X188.6Y-172.7
X189.0Y-157.6
X189.0Y-201.5
X189.0Y-221.4
X189.5Y-177.0
X189.5Y-178.0
X189.5Y-179.0
X189.5Y-198.5
X189.5Y-199.5
X189.5Y-200.5
X189.7Y-172.7
X189.8Y-158.6
X189.8Y-220.4
X190.0Y-206.0
X190.0Y-207.0
X190.5Y-218.0
X190.5Y-167.1
X190.5Y-171.0
X190.5Y-177.0
X190.5Y-178.0
X190.5Y-179.0
X190.5Y-217.0
X190.6Y-157.6
X190.6Y-221.4
X190.8Y-174.1
X191.0Y-168.0
X191.0Y-206.0
X191.0Y-207.0
X191.4Y-158.6
X191.4Y-220.4
X191.5Y-164.7
X191.5Y-165.5
X191.5Y-172.5
X191.5Y-217.0
X191.5Y-218.0
X191.6Y-174.6
X191.75Y-160.5
X191.75Y-161.5
X192.0Y-206.0
X192.0Y-207.0
X192.2Y-157.6
X192.2Y-221.4
X192.5Y-164.7
X192.5Y-165.6
X192.5Y-217.0
X192.5Y-218.0
X193.0Y-158.6
X193.0Y-220.4
X193.8Y-157.6
X193.8Y-221.4
X194.4Y-160.4
X194.4Y-162.0
X194.4Y-163.6
X194.4Y-165.2
X194.4Y-166.8
X194.4Y-168.4
X194.4Y-170.0
X194.4Y-171.6
X194.4Y-173.2
X194.4Y-174.8
X194.4Y-176.4
X194.4Y-178.0
X194.4Y-199.4
X194.4Y-201.0
X194.4Y-202.6
X194.4Y-204.2
X194.4Y-205.8
X194.4Y-207.4
X194.4Y-209.0
X194.4Y-210.6
X194.4Y-212.2
X194.4Y-213.8
X194.4Y-215.4
X194.4Y-217.0
X194.6Y-158.6
X194.6Y-220.4
X195.4Y-157.6
X195.4Y-159.6
X195.4Y-161.2
X195.4Y-162.8
X195.4Y-164.4
X195.4Y-166.0
X195.4Y-167.6
X195.4Y-169.2
X195.4Y-170.8
X195.4Y-172.4
X195.4Y-174.0
X195.4Y-175.6
X195.4Y-177.2
X195.4Y-178.8
X195.4Y-200.2
X195.4Y-201.8
X195.4Y-203.4
X195.4Y-205.0
X195.4Y-206.6
X195.4Y-208.2
X195.4Y-209.8
X195.4Y-211.4
X195.4Y-213.0
X195.4Y-214.6
X195.4Y-216.2
X195.4Y-217.8
X195.4Y-221.4
X196.2Y-158.6
X196.2Y-220.4
X196.4Y-173.2
X197.0Y-157.6
X197.0Y-221.4
X197.2Y-174.2
X197.8Y-158.6
X197.8Y-220.4
X198.0Y-173.2
X198.1Y-167.8
X198.6Y-157.6
X198.6Y-177.2
X198.6Y-178.2
X198.6Y-221.4
X198.8Y-174.2
X199.4Y-158.6
X199.4Y-220.4
X199.6Y-173.2
X200.2Y-157.6
X200.2Y-221.4
X200.4Y-174.2
X200.4Y-177.2
X200.4Y-178.2
X201.0Y-158.6
X201.0Y-161.0
X201.0Y-162.0
X201.0Y-220.4
X201.2Y-173.2
X201.7Y-177.7
X201.8Y-157.6
X201.8Y-221.4
X202.0Y-161.0
X202.0Y-162.0
X202.0Y-174.2
X202.4Y-168.2
X202.4Y-169.2
X202.4Y-170.2
X202.4Y-171.2
X202.6Y-158.6
X202.6Y-220.4
X202.7Y-177.7
X202.8Y-173.2
X203.0Y-161.0
X203.0Y-162.0
X203.4Y-157.6
X203.4Y-168.2
X203.4Y-169.2
X203.4Y-170.2
X203.4Y-171.2
X203.4Y-221.4
X203.6Y-174.2
X203.6Y-177.7
X204.2Y-158.6
X204.2Y-220.4
X204.4Y-173.2
X205.0Y-157.6
X205.0Y-221.4
X205.2Y-163.6
X205.2Y-166.6
X205.2Y-174.2
X205.8Y-158.6
X205.8Y-220.4
X206.0Y-173.2
X206.2Y-163.6
X206.2Y-166.6
X206.5Y-161.0
X206.5Y-162.0
X206.6Y-157.6
X206.6Y-221.4
X206.8Y-174.2
X207.4Y-158.6
X207.4Y-168.2
X207.4Y-169.2
X207.4Y-170.2
X207.4Y-171.2
X207.4Y-220.4
X207.6Y-173.2
X208.2Y-157.6
X208.2Y-221.4
X208.4Y-174.2
X209.0Y-158.6
X209.0Y-220.4
X209.2Y-173.2
X209.206Y-167.794
X209.8Y-157.6
X209.8Y-221.4
X210.0Y-174.2
X210.6Y-158.6
X210.6Y-220.4
X210.8Y-173.2
X211.4Y-157.6
X211.4Y-221.4
X211.6Y-174.2
X212.1Y-161.0
X212.1Y-162.0
X212.2Y-158.6
X212.2Y-220.4
X212.4Y-173.2
X213.0Y-157.6
X213.0Y-221.4
X213.1Y-161.0
X213.1Y-162.0
X213.2Y-174.2
X213.6Y-168.2
X213.6Y-169.2
X213.6Y-170.2
X213.6Y-171.2
X213.8Y-158.6
X213.8Y-220.4
X214.0Y-173.2
X214.1Y-161.0
X214.1Y-162.0
X214.5Y-179.0
X214.6Y-157.6
X214.6Y-168.2
X214.6Y-169.2
X214.6Y-170.2
X214.6Y-171.2
X214.6Y-221.4
X214.8Y-174.2
X215.4Y-158.6
X215.4Y-220.4
X215.6Y-173.2
X216.2Y-157.6
X216.2Y-221.4
X216.3Y-163.6
X216.4Y-166.6
X216.4Y-174.2
X217.0Y-158.6
X217.0Y-220.4
X217.1Y-190.2
X217.1Y-191.1
X217.2Y-173.2
X217.3Y-163.6
X217.4Y-166.6
X217.5Y-187.75
X217.5Y-188.7
X217.6Y-161.0
X217.6Y-162.0
X217.8Y-157.6
X217.8Y-221.4
X218.0Y-174.2
X218.4Y-186.5
X218.6Y-158.6
X218.6Y-168.2
X218.6Y-169.2
X218.6Y-170.2
X218.6Y-171.2
X218.6Y-220.4
X219.4Y-157.6
X219.4Y-159.6
X219.4Y-161.2
X219.4Y-162.8
X219.4Y-164.4
X219.4Y-166.0
X219.4Y-167.6
X219.4Y-169.2
X219.4Y-170.8
X219.4Y-172.4
X219.4Y-174.0
X219.4Y-221.4
X220.2Y-158.6
X220.2Y-220.4
X220.4Y-160.4
X220.4Y-162.0
X220.4Y-163.6
X220.4Y-165.2
X220.4Y-166.8
X220.4Y-168.4
X220.4Y-170.0
X220.4Y-171.6
X220.4Y-173.2
X221.0Y-157.6
X221.0Y-221.4
X221.2Y-178.5
X221.2Y-179.5
X221.8Y-158.6
X221.8Y-220.4
X221.92Y-183.28
X222.6Y-157.6
X222.6Y-221.4
X223.4Y-158.6
X223.4Y-220.4
X223.5Y-178.5
X223.5Y-179.5
X224.1Y-169.3
X224.2Y-157.6
X224.2Y-221.4
X225.0Y-158.6
X225.0Y-220.4
X225.3Y-179.1
X225.5Y-183.0
X225.8Y-157.6
X225.8Y-221.4
X226.2Y-179.1
X227.275Y-180.775
X227.3Y-179.1
X227.4Y-157.6
X227.4Y-221.4
X230.4Y-163.8
X230.4Y-169.4
X230.4Y-172.6
X230.4Y-178.2
X230.4Y-179.8
X230.4Y-181.4
X230.4Y-183.0
X230.4Y-187.8
X230.4Y-191.2
X230.4Y-196.8
X230.4Y-198.4
X230.4Y-200.0
X230.4Y-201.6
X230.4Y-206.2
X230.4Y-209.8
X230.4Y-215.2
X231.4Y-161.6
X231.4Y-163.0
X231.4Y-164.6
X231.4Y-168.4
X231.4Y-173.6
X231.4Y-177.4
X231.4Y-179.0
X231.4Y-180.6
X231.4Y-182.2
X231.4Y-187.0
X231.4Y-192.0
X231.4Y-196.0
X231.4Y-197.6
X231.4Y-199.2
X231.4Y-200.8
X231.4Y-205.4
X231.4Y-210.6
X231.4Y-214.4
X231.4Y-216.0
X231.4Y-217.4
T3
X225.69Y-166.62
X225.69Y-175.38
X225.69Y-185.12
X225.69Y-193.88
X225.69Y-203.62
X225.69Y-212.38
T4
X144.6Y-161.0
X144.6Y-218.0
X145.303Y-159.303
X145.303Y-162.697
X145.303Y-216.303
X145.303Y-219.697
X147.0Y-158.6
X147.0Y-163.4
X147.0Y-215.6
X147.0Y-220.4
X148.697Y-159.303
X148.697Y-162.697
X148.697Y-216.303
X148.697Y-219.697
X149.4Y-161.0
X149.4Y-218.0
X225.6Y-161.0
X225.6Y-218.0
X226.303Y-159.303
X226.303Y-162.697
X226.303Y-216.303
X226.303Y-219.697
X228.0Y-158.6
X228.0Y-163.4
X228.0Y-215.6
X228.0Y-220.4
X229.697Y-159.303
X229.697Y-162.697
X229.697Y-216.303
X229.697Y-219.697
X230.4Y-161.0
X230.4Y-218.0
T6
X179.7Y-163.0
X189.7Y-163.0
T7
X147.0Y-161.0
X147.0Y-218.0
X228.0Y-161.0
X228.0Y-218.0
T5
X146.3Y-183.65G85X144.3Y-183.65
G05
X146.3Y-195.35G85X144.3Y-195.35
G05
M30
