%TF.GenerationSoftware,KiCad,Pcbnew,8.0.1*%
%TF.CreationDate,2024-04-14T19:48:43+02:00*%
%TF.ProjectId,start_1,73746172-745f-4312-9e6b-696361645f70,rev?*%
%TF.SameCoordinates,Original*%
%TF.FileFunction,Paste,Top*%
%TF.FilePolarity,Positive*%
%FSLAX46Y46*%
G04 Gerber Fmt 4.6, Leading zero omitted, Abs format (unit mm)*
G04 Created by KiCad (PCBNEW 8.0.1) date 2024-04-14 19:48:43*
%MOMM*%
%LPD*%
G01*
G04 APERTURE LIST*
G04 Aperture macros list*
%AMRoundRect*
0 Rectangle with rounded corners*
0 $1 Rounding radius*
0 $2 $3 $4 $5 $6 $7 $8 $9 X,Y pos of 4 corners*
0 Add a 4 corners polygon primitive as box body*
4,1,4,$2,$3,$4,$5,$6,$7,$8,$9,$2,$3,0*
0 Add four circle primitives for the rounded corners*
1,1,$1+$1,$2,$3*
1,1,$1+$1,$4,$5*
1,1,$1+$1,$6,$7*
1,1,$1+$1,$8,$9*
0 Add four rect primitives between the rounded corners*
20,1,$1+$1,$2,$3,$4,$5,0*
20,1,$1+$1,$4,$5,$6,$7,0*
20,1,$1+$1,$6,$7,$8,$9,0*
20,1,$1+$1,$8,$9,$2,$3,0*%
%AMFreePoly0*
4,1,9,3.862500,-0.866500,0.737500,-0.866500,0.737500,-0.450000,-0.737500,-0.450000,-0.737500,0.450000,0.737500,0.450000,0.737500,0.866500,3.862500,0.866500,3.862500,-0.866500,3.862500,-0.866500,$1*%
G04 Aperture macros list end*
%ADD10R,0.355600X1.016000*%
%ADD11R,1.016000X0.355600*%
%ADD12R,2.108200X2.108200*%
%ADD13RoundRect,0.050000X-0.387500X0.050000X-0.387500X-0.050000X0.387500X-0.050000X0.387500X0.050000X0*%
%ADD14RoundRect,0.050000X-0.050000X0.387500X-0.050000X-0.387500X0.050000X-0.387500X0.050000X0.387500X0*%
%ADD15RoundRect,0.250001X-2.294999X2.089999X-2.294999X-2.089999X2.294999X-2.089999X2.294999X2.089999X0*%
%ADD16RoundRect,0.079500X-0.100500X0.079500X-0.100500X-0.079500X0.100500X-0.079500X0.100500X0.079500X0*%
%ADD17RoundRect,0.079500X-0.079500X-0.100500X0.079500X-0.100500X0.079500X0.100500X-0.079500X0.100500X0*%
%ADD18RoundRect,0.225000X-0.425000X-0.225000X0.425000X-0.225000X0.425000X0.225000X-0.425000X0.225000X0*%
%ADD19FreePoly0,0.000000*%
%ADD20R,2.400000X2.900000*%
%ADD21R,1.700000X1.600000*%
%ADD22R,0.600000X0.950000*%
%ADD23R,0.950000X0.600000*%
%ADD24R,1.600000X1.600000*%
%ADD25R,3.100000X2.350000*%
%ADD26R,5.080000X2.290000*%
%ADD27R,5.080000X2.420000*%
%ADD28RoundRect,0.250000X-1.100000X0.325000X-1.100000X-0.325000X1.100000X-0.325000X1.100000X0.325000X0*%
%ADD29RoundRect,0.140000X-0.170000X0.140000X-0.170000X-0.140000X0.170000X-0.140000X0.170000X0.140000X0*%
%ADD30C,0.400000*%
%ADD31RoundRect,0.225000X-0.225000X-0.250000X0.225000X-0.250000X0.225000X0.250000X-0.225000X0.250000X0*%
%ADD32RoundRect,0.079500X0.100500X-0.079500X0.100500X0.079500X-0.100500X0.079500X-0.100500X-0.079500X0*%
%ADD33RoundRect,0.135000X-0.135000X-0.185000X0.135000X-0.185000X0.135000X0.185000X-0.135000X0.185000X0*%
%ADD34RoundRect,0.135000X0.135000X0.185000X-0.135000X0.185000X-0.135000X-0.185000X0.135000X-0.185000X0*%
%ADD35RoundRect,0.250000X0.325000X1.100000X-0.325000X1.100000X-0.325000X-1.100000X0.325000X-1.100000X0*%
%ADD36RoundRect,0.147500X-0.147500X-0.172500X0.147500X-0.172500X0.147500X0.172500X-0.147500X0.172500X0*%
%ADD37RoundRect,0.140000X-0.140000X-0.170000X0.140000X-0.170000X0.140000X0.170000X-0.140000X0.170000X0*%
%ADD38RoundRect,0.218750X0.218750X0.256250X-0.218750X0.256250X-0.218750X-0.256250X0.218750X-0.256250X0*%
%ADD39R,0.736600X1.447800*%
%ADD40R,0.600000X0.200000*%
%ADD41R,0.750000X1.250000*%
%ADD42RoundRect,0.135000X-0.185000X0.135000X-0.185000X-0.135000X0.185000X-0.135000X0.185000X0.135000X0*%
%ADD43R,1.400000X1.150000*%
%ADD44R,0.990600X2.743200*%
%ADD45R,2.300000X0.700000*%
%ADD46RoundRect,0.140000X0.170000X-0.140000X0.170000X0.140000X-0.170000X0.140000X-0.170000X-0.140000X0*%
%ADD47RoundRect,0.135000X0.185000X-0.135000X0.185000X0.135000X-0.185000X0.135000X-0.185000X-0.135000X0*%
%ADD48R,0.300000X0.300000*%
%ADD49R,0.250000X0.250000*%
%ADD50R,0.760000X1.650000*%
%ADD51RoundRect,0.250000X1.100000X-0.325000X1.100000X0.325000X-1.100000X0.325000X-1.100000X-0.325000X0*%
%ADD52RoundRect,0.140000X0.140000X0.170000X-0.140000X0.170000X-0.140000X-0.170000X0.140000X-0.170000X0*%
%ADD53R,0.330000X0.410000*%
%ADD54C,0.355600*%
%ADD55R,1.200000X1.400000*%
%ADD56R,0.508000X0.254000*%
%ADD57R,0.406400X0.254000*%
%ADD58R,0.660400X0.508000*%
%ADD59RoundRect,0.147500X0.147500X0.172500X-0.147500X0.172500X-0.147500X-0.172500X0.147500X-0.172500X0*%
G04 APERTURE END LIST*
D10*
%TO.C,IC5*%
X213965200Y-163196600D03*
X213330200Y-163196600D03*
X212669800Y-163196600D03*
X212034800Y-163196600D03*
D11*
X211196600Y-164034800D03*
X211196600Y-164669800D03*
X211196600Y-165330200D03*
X211196600Y-165965200D03*
D10*
X212034800Y-166803400D03*
X212669800Y-166803400D03*
X213330200Y-166803400D03*
X213965200Y-166803400D03*
D11*
X214803400Y-165965200D03*
X214803400Y-165330200D03*
X214803400Y-164669800D03*
X214803400Y-164034800D03*
D12*
X213000000Y-165000000D03*
%TD*%
D10*
%TO.C,IC4*%
X202875600Y-163196600D03*
X202240600Y-163196600D03*
X201580200Y-163196600D03*
X200945200Y-163196600D03*
D11*
X200107000Y-164034800D03*
X200107000Y-164669800D03*
X200107000Y-165330200D03*
X200107000Y-165965200D03*
D10*
X200945200Y-166803400D03*
X201580200Y-166803400D03*
X202240600Y-166803400D03*
X202875600Y-166803400D03*
D11*
X203713800Y-165965200D03*
X203713800Y-165330200D03*
X203713800Y-164669800D03*
X203713800Y-164034800D03*
D12*
X201910400Y-165000000D03*
%TD*%
D13*
%TO.C,U4*%
X165437500Y-185900000D03*
X165437500Y-186300000D03*
X165437500Y-186700000D03*
X165437500Y-187100000D03*
X165437500Y-187500000D03*
X165437500Y-187900000D03*
X165437500Y-188300000D03*
X165437500Y-188700000D03*
X165437500Y-189100000D03*
X165437500Y-189500000D03*
X165437500Y-189900000D03*
X165437500Y-190300000D03*
X165437500Y-190700000D03*
X165437500Y-191100000D03*
X165437500Y-191500000D03*
X165437500Y-191900000D03*
X165437500Y-192300000D03*
X165437500Y-192700000D03*
X165437500Y-193100000D03*
D14*
X164600000Y-193937500D03*
X164200000Y-193937500D03*
X163800000Y-193937500D03*
X163400000Y-193937500D03*
X163000000Y-193937500D03*
X162600000Y-193937500D03*
X162200000Y-193937500D03*
X161800000Y-193937500D03*
X161400000Y-193937500D03*
X161000000Y-193937500D03*
X160600000Y-193937500D03*
X160200000Y-193937500D03*
X159800000Y-193937500D03*
X159400000Y-193937500D03*
X159000000Y-193937500D03*
X158600000Y-193937500D03*
X158200000Y-193937500D03*
X157800000Y-193937500D03*
X157400000Y-193937500D03*
D13*
X156562500Y-193100000D03*
X156562500Y-192700000D03*
X156562500Y-192300000D03*
X156562500Y-191900000D03*
X156562500Y-191500000D03*
X156562500Y-191100000D03*
X156562500Y-190700000D03*
X156562500Y-190300000D03*
X156562500Y-189900000D03*
X156562500Y-189500000D03*
X156562500Y-189100000D03*
X156562500Y-188700000D03*
X156562500Y-188300000D03*
X156562500Y-187900000D03*
X156562500Y-187500000D03*
X156562500Y-187100000D03*
X156562500Y-186700000D03*
X156562500Y-186300000D03*
X156562500Y-185900000D03*
D14*
X157400000Y-185062500D03*
X157800000Y-185062500D03*
X158200000Y-185062500D03*
X158600000Y-185062500D03*
X159000000Y-185062500D03*
X159400000Y-185062500D03*
X159800000Y-185062500D03*
X160200000Y-185062500D03*
X160600000Y-185062500D03*
X161000000Y-185062500D03*
X161400000Y-185062500D03*
X161800000Y-185062500D03*
X162200000Y-185062500D03*
X162600000Y-185062500D03*
X163000000Y-185062500D03*
X163400000Y-185062500D03*
X163800000Y-185062500D03*
X164200000Y-185062500D03*
X164600000Y-185062500D03*
D15*
X161000000Y-189500000D03*
%TD*%
D16*
%TO.C,C119*%
X223600000Y-182970000D03*
X223600000Y-182280000D03*
%TD*%
D17*
%TO.C,C98*%
X217115000Y-165850000D03*
X216425000Y-165850000D03*
%TD*%
D18*
%TO.C,U6*%
X219950000Y-177500000D03*
D19*
X220037500Y-179000000D03*
D18*
X219950000Y-180500000D03*
%TD*%
D20*
%TO.C,C76*%
X153200000Y-175500000D03*
X159300000Y-175500000D03*
%TD*%
D16*
%TO.C,C105*%
X202750000Y-202000000D03*
X202750000Y-201310000D03*
%TD*%
%TO.C,C116*%
X216000000Y-207065000D03*
X216000000Y-206375000D03*
%TD*%
D21*
%TO.C,IC3*%
X156700000Y-216600000D03*
D22*
X158150000Y-216925000D03*
X159050000Y-216925000D03*
X159950000Y-216925000D03*
X160850000Y-216925000D03*
X161750000Y-216925000D03*
X162650000Y-216925000D03*
X163550000Y-216925000D03*
X164450000Y-216925000D03*
X165350000Y-216925000D03*
D21*
X166800000Y-216600000D03*
D23*
X167175000Y-215200000D03*
X167175000Y-214300000D03*
X167175000Y-213400000D03*
X167175000Y-212500000D03*
X167175000Y-211600000D03*
X167175000Y-210700000D03*
X167175000Y-209800000D03*
D21*
X166800000Y-208400000D03*
D22*
X165350000Y-208075000D03*
X164450000Y-208075000D03*
X163550000Y-208075000D03*
X162650000Y-208075000D03*
X161750000Y-208075000D03*
X160850000Y-208075000D03*
X159950000Y-208075000D03*
X159050000Y-208075000D03*
X158150000Y-208075000D03*
D21*
X156700000Y-208400000D03*
D23*
X156325000Y-209800000D03*
X156325000Y-210700000D03*
X156325000Y-211600000D03*
X156325000Y-212500000D03*
X156325000Y-213400000D03*
X156325000Y-214300000D03*
X156325000Y-215200000D03*
D24*
X159000000Y-212050000D03*
D25*
X164000000Y-214335000D03*
X164000000Y-210665000D03*
%TD*%
D26*
%TO.C,J3*%
X229130000Y-189500000D03*
D27*
X229130000Y-193880000D03*
X229130000Y-185120000D03*
%TD*%
D16*
%TO.C,C104*%
X216100000Y-202445000D03*
X216100000Y-201755000D03*
%TD*%
D28*
%TO.C,C78*%
X174000000Y-210650000D03*
X174000000Y-213600000D03*
%TD*%
D29*
%TO.C,C121*%
X209900000Y-197530000D03*
X209900000Y-198490000D03*
%TD*%
D30*
%TO.C,U1*%
X191000000Y-197000000D03*
X190000000Y-197000000D03*
X189000000Y-197000000D03*
X188000000Y-197000000D03*
X187000000Y-197000000D03*
X186000000Y-197000000D03*
X185000000Y-197000000D03*
X184000000Y-197000000D03*
X183000000Y-197000000D03*
X182000000Y-197000000D03*
X181000000Y-197000000D03*
X180000000Y-197000000D03*
X179000000Y-197000000D03*
X178000000Y-197000000D03*
X177000000Y-197000000D03*
X176000000Y-197000000D03*
X191000000Y-196000000D03*
X190000000Y-196000000D03*
X189000000Y-196000000D03*
X188000000Y-196000000D03*
X187000000Y-196000000D03*
X186000000Y-196000000D03*
X185000000Y-196000000D03*
X184000000Y-196000000D03*
X183000000Y-196000000D03*
X182000000Y-196000000D03*
X181000000Y-196000000D03*
X180000000Y-196000000D03*
X179000000Y-196000000D03*
X178000000Y-196000000D03*
X177000000Y-196000000D03*
X176000000Y-196000000D03*
X191000000Y-195000000D03*
X190000000Y-195000000D03*
X189000000Y-195000000D03*
X188000000Y-195000000D03*
X187000000Y-195000000D03*
X186000000Y-195000000D03*
X185000000Y-195000000D03*
X184000000Y-195000000D03*
X183000000Y-195000000D03*
X182000000Y-195000000D03*
X181000000Y-195000000D03*
X180000000Y-195000000D03*
X179000000Y-195000000D03*
X178000000Y-195000000D03*
X177000000Y-195000000D03*
X176000000Y-195000000D03*
X191000000Y-194000000D03*
X190000000Y-194000000D03*
X189000000Y-194000000D03*
X188000000Y-194000000D03*
X187000000Y-194000000D03*
X186000000Y-194000000D03*
X185000000Y-194000000D03*
X184000000Y-194000000D03*
X183000000Y-194000000D03*
X182000000Y-194000000D03*
X181000000Y-194000000D03*
X180000000Y-194000000D03*
X179000000Y-194000000D03*
X178000000Y-194000000D03*
X177000000Y-194000000D03*
X176000000Y-194000000D03*
X191000000Y-193000000D03*
X190000000Y-193000000D03*
X189000000Y-193000000D03*
X188000000Y-193000000D03*
X187000000Y-193000000D03*
X186000000Y-193000000D03*
X185000000Y-193000000D03*
X184000000Y-193000000D03*
X183000000Y-193000000D03*
X182000000Y-193000000D03*
X181000000Y-193000000D03*
X180000000Y-193000000D03*
X179000000Y-193000000D03*
X178000000Y-193000000D03*
X177000000Y-193000000D03*
X176000000Y-193000000D03*
X191000000Y-192000000D03*
X190000000Y-192000000D03*
X189000000Y-192000000D03*
X188000000Y-192000000D03*
X187000000Y-192000000D03*
X186000000Y-192000000D03*
X185000000Y-192000000D03*
X184000000Y-192000000D03*
X183000000Y-192000000D03*
X182000000Y-192000000D03*
X181000000Y-192000000D03*
X180000000Y-192000000D03*
X179000000Y-192000000D03*
X178000000Y-192000000D03*
X177000000Y-192000000D03*
X176000000Y-192000000D03*
X191000000Y-191000000D03*
X190000000Y-191000000D03*
X189000000Y-191000000D03*
X188000000Y-191000000D03*
X187000000Y-191000000D03*
X186000000Y-191000000D03*
X185000000Y-191000000D03*
X184000000Y-191000000D03*
X183000000Y-191000000D03*
X182000000Y-191000000D03*
X181000000Y-191000000D03*
X180000000Y-191000000D03*
X179000000Y-191000000D03*
X178000000Y-191000000D03*
X177000000Y-191000000D03*
X176000000Y-191000000D03*
X191000000Y-190000000D03*
X190000000Y-190000000D03*
X189000000Y-190000000D03*
X188000000Y-190000000D03*
X187000000Y-190000000D03*
X186000000Y-190000000D03*
X185000000Y-190000000D03*
X184000000Y-190000000D03*
X183000000Y-190000000D03*
X182000000Y-190000000D03*
X181000000Y-190000000D03*
X180000000Y-190000000D03*
X179000000Y-190000000D03*
X178000000Y-190000000D03*
X177000000Y-190000000D03*
X176000000Y-190000000D03*
X191000000Y-189000000D03*
X190000000Y-189000000D03*
X189000000Y-189000000D03*
X188000000Y-189000000D03*
X187000000Y-189000000D03*
X186000000Y-189000000D03*
X185000000Y-189000000D03*
X184000000Y-189000000D03*
X183000000Y-189000000D03*
X182000000Y-189000000D03*
X181000000Y-189000000D03*
X180000000Y-189000000D03*
X179000000Y-189000000D03*
X178000000Y-189000000D03*
X177000000Y-189000000D03*
X176000000Y-189000000D03*
X191000000Y-188000000D03*
X190000000Y-188000000D03*
X189000000Y-188000000D03*
X188000000Y-188000000D03*
X187000000Y-188000000D03*
X186000000Y-188000000D03*
X185000000Y-188000000D03*
X184000000Y-188000000D03*
X183000000Y-188000000D03*
X182000000Y-188000000D03*
X181000000Y-188000000D03*
X180000000Y-188000000D03*
X179000000Y-188000000D03*
X178000000Y-188000000D03*
X177000000Y-188000000D03*
X176000000Y-188000000D03*
X191000000Y-187000000D03*
X190000000Y-187000000D03*
X189000000Y-187000000D03*
X188000000Y-187000000D03*
X187000000Y-187000000D03*
X186000000Y-187000000D03*
X185000000Y-187000000D03*
X184000000Y-187000000D03*
X183000000Y-187000000D03*
X182000000Y-187000000D03*
X181000000Y-187000000D03*
X180000000Y-187000000D03*
X179000000Y-187000000D03*
X178000000Y-187000000D03*
X177000000Y-187000000D03*
X176000000Y-187000000D03*
X191000000Y-186000000D03*
X190000000Y-186000000D03*
X189000000Y-186000000D03*
X188000000Y-186000000D03*
X187000000Y-186000000D03*
X186000000Y-186000000D03*
X185000000Y-186000000D03*
X184000000Y-186000000D03*
X183000000Y-186000000D03*
X182000000Y-186000000D03*
X181000000Y-186000000D03*
X180000000Y-186000000D03*
X179000000Y-186000000D03*
X178000000Y-186000000D03*
X177000000Y-186000000D03*
X176000000Y-186000000D03*
X191000000Y-185000000D03*
X190000000Y-185000000D03*
X189000000Y-185000000D03*
X188000000Y-185000000D03*
X187000000Y-185000000D03*
X186000000Y-185000000D03*
X185000000Y-185000000D03*
X184000000Y-185000000D03*
X183000000Y-185000000D03*
X182000000Y-185000000D03*
X181000000Y-185000000D03*
X180000000Y-185000000D03*
X179000000Y-185000000D03*
X178000000Y-185000000D03*
X177000000Y-185000000D03*
X176000000Y-185000000D03*
X191000000Y-184000000D03*
X190000000Y-184000000D03*
X189000000Y-184000000D03*
X188000000Y-184000000D03*
X187000000Y-184000000D03*
X186000000Y-184000000D03*
X185000000Y-184000000D03*
X184000000Y-184000000D03*
X183000000Y-184000000D03*
X182000000Y-184000000D03*
X181000000Y-184000000D03*
X180000000Y-184000000D03*
X179000000Y-184000000D03*
X178000000Y-184000000D03*
X177000000Y-184000000D03*
X176000000Y-184000000D03*
X191000000Y-183000000D03*
X190000000Y-183000000D03*
X189000000Y-183000000D03*
X188000000Y-183000000D03*
X187000000Y-183000000D03*
X186000000Y-183000000D03*
X185000000Y-183000000D03*
X184000000Y-183000000D03*
X183000000Y-183000000D03*
X182000000Y-183000000D03*
X181000000Y-183000000D03*
X180000000Y-183000000D03*
X179000000Y-183000000D03*
X178000000Y-183000000D03*
X177000000Y-183000000D03*
X176000000Y-183000000D03*
X191000000Y-182000000D03*
X190000000Y-182000000D03*
X189000000Y-182000000D03*
X188000000Y-182000000D03*
X187000000Y-182000000D03*
X186000000Y-182000000D03*
X185000000Y-182000000D03*
X184000000Y-182000000D03*
X183000000Y-182000000D03*
X182000000Y-182000000D03*
X181000000Y-182000000D03*
X180000000Y-182000000D03*
X179000000Y-182000000D03*
X178000000Y-182000000D03*
X177000000Y-182000000D03*
X176000000Y-182000000D03*
%TD*%
D26*
%TO.C,J4*%
X229130000Y-208000000D03*
D27*
X229130000Y-212380000D03*
X229130000Y-203620000D03*
%TD*%
D31*
%TO.C,C93*%
X204582000Y-168850000D03*
X206132000Y-168850000D03*
%TD*%
D32*
%TO.C,C154*%
X206500000Y-181255000D03*
X206500000Y-181945000D03*
%TD*%
%TO.C,C92*%
X209600000Y-164655000D03*
X209600000Y-165345000D03*
%TD*%
D29*
%TO.C,C117*%
X208900000Y-197530000D03*
X208900000Y-198490000D03*
%TD*%
D17*
%TO.C,C89*%
X206045000Y-164350000D03*
X205355000Y-164350000D03*
%TD*%
D33*
%TO.C,R21*%
X181190000Y-218950000D03*
X182210000Y-218950000D03*
%TD*%
D21*
%TO.C,IC1*%
X177950000Y-216600000D03*
D22*
X179400000Y-216925000D03*
X180300000Y-216925000D03*
X181200000Y-216925000D03*
X182100000Y-216925000D03*
X183000000Y-216925000D03*
X183900000Y-216925000D03*
X184800000Y-216925000D03*
X185700000Y-216925000D03*
X186600000Y-216925000D03*
D21*
X188050000Y-216600000D03*
D23*
X188425000Y-215200000D03*
X188425000Y-214300000D03*
X188425000Y-213400000D03*
X188425000Y-212500000D03*
X188425000Y-211600000D03*
X188425000Y-210700000D03*
X188425000Y-209800000D03*
D21*
X188050000Y-208400000D03*
D22*
X186600000Y-208075000D03*
X185700000Y-208075000D03*
X184800000Y-208075000D03*
X183900000Y-208075000D03*
X183000000Y-208075000D03*
X182100000Y-208075000D03*
X181200000Y-208075000D03*
X180300000Y-208075000D03*
X179400000Y-208075000D03*
D21*
X177950000Y-208400000D03*
D23*
X177575000Y-209800000D03*
X177575000Y-210700000D03*
X177575000Y-211600000D03*
X177575000Y-212500000D03*
X177575000Y-213400000D03*
X177575000Y-214300000D03*
X177575000Y-215200000D03*
D24*
X180250000Y-212050000D03*
D25*
X185250000Y-214335000D03*
X185250000Y-210665000D03*
%TD*%
D34*
%TO.C,R32*%
X210226400Y-168600000D03*
X209206400Y-168600000D03*
%TD*%
D16*
%TO.C,C103*%
X215350000Y-202445000D03*
X215350000Y-201755000D03*
%TD*%
D33*
%TO.C,R23*%
X159890000Y-219000000D03*
X160910000Y-219000000D03*
%TD*%
D17*
%TO.C,C97*%
X206005400Y-165850000D03*
X205315400Y-165850000D03*
%TD*%
D35*
%TO.C,C83*%
X167725000Y-201000000D03*
X164775000Y-201000000D03*
%TD*%
D36*
%TO.C,FB6*%
X224815000Y-181200000D03*
X225785000Y-181200000D03*
%TD*%
D37*
%TO.C,C115*%
X208920000Y-206530000D03*
X209880000Y-206530000D03*
%TD*%
D20*
%TO.C,C85*%
X173050000Y-175600000D03*
X166950000Y-175600000D03*
%TD*%
D37*
%TO.C,C113*%
X217220000Y-209600000D03*
X218180000Y-209600000D03*
%TD*%
D38*
%TO.C,L3*%
X221487500Y-182300000D03*
X219912500Y-182300000D03*
%TD*%
D39*
%TO.C,T3*%
X213230000Y-177523600D03*
X214500000Y-177523600D03*
X215770000Y-177523600D03*
X215770000Y-180876400D03*
X214500000Y-180876400D03*
X213230000Y-180876400D03*
%TD*%
D40*
%TO.C,S1*%
X216050000Y-209600000D03*
X216050000Y-209200000D03*
X216050000Y-208800000D03*
X216050000Y-208400000D03*
X214350000Y-208400000D03*
X214350000Y-208800000D03*
X214350000Y-209200000D03*
X214350000Y-209600000D03*
D41*
X215200000Y-209000000D03*
%TD*%
D16*
%TO.C,C109*%
X216800000Y-185145000D03*
X216800000Y-184455000D03*
%TD*%
D42*
%TO.C,R24*%
X175500000Y-214980000D03*
X175500000Y-216000000D03*
%TD*%
D31*
%TO.C,C125*%
X225725000Y-179900000D03*
X227275000Y-179900000D03*
%TD*%
D16*
%TO.C,C106*%
X203500000Y-202000000D03*
X203500000Y-201310000D03*
%TD*%
D43*
%TO.C,Y2*%
X207900000Y-181925000D03*
X210100000Y-181925000D03*
X210100000Y-180325000D03*
X207900000Y-180325000D03*
%TD*%
D44*
%TO.C,J1*%
X178699999Y-165130001D03*
X178699999Y-160869999D03*
X180700000Y-165130001D03*
X180700000Y-160869999D03*
X182699999Y-165130001D03*
X182699999Y-160869999D03*
X184700000Y-165130001D03*
X184700000Y-160869999D03*
X186700001Y-165130001D03*
X186700001Y-160869999D03*
X188700000Y-165130001D03*
X188700000Y-160869999D03*
X190700001Y-165130001D03*
X190700001Y-160869999D03*
%TD*%
D45*
%TO.C,J2*%
X147500000Y-192500000D03*
X147500000Y-190500000D03*
X147500000Y-188500000D03*
X147500000Y-186500000D03*
X147500000Y-185500000D03*
X147500000Y-187500000D03*
X147500000Y-189500000D03*
X147500000Y-191500000D03*
X147500000Y-193500000D03*
%TD*%
D31*
%TO.C,C87*%
X204025000Y-161400000D03*
X205575000Y-161400000D03*
%TD*%
D33*
%TO.C,R22*%
X160835585Y-171700001D03*
X161855585Y-171700001D03*
%TD*%
D29*
%TO.C,C118*%
X222700000Y-182320000D03*
X222700000Y-183280000D03*
%TD*%
D46*
%TO.C,C108*%
X214000000Y-183560000D03*
X214000000Y-182600000D03*
%TD*%
D28*
%TO.C,C81*%
X191500000Y-216025000D03*
X191500000Y-218975000D03*
%TD*%
D31*
%TO.C,C94*%
X215725000Y-168850000D03*
X217275000Y-168850000D03*
%TD*%
D47*
%TO.C,R26*%
X155245585Y-167210001D03*
X155245585Y-166190001D03*
%TD*%
D17*
%TO.C,C114*%
X205345000Y-207000000D03*
X204655000Y-207000000D03*
%TD*%
D34*
%TO.C,R29*%
X201127000Y-168600000D03*
X200107000Y-168600000D03*
%TD*%
D48*
%TO.C,FL1*%
X215445000Y-204725000D03*
D49*
X215970000Y-204700000D03*
X215970000Y-204200000D03*
X215470000Y-204200000D03*
%TD*%
D31*
%TO.C,C88*%
X215125000Y-161400000D03*
X216675000Y-161400000D03*
%TD*%
D16*
%TO.C,C100*%
X212100000Y-185145000D03*
X212100000Y-184455000D03*
%TD*%
D42*
%TO.C,R27*%
X154250000Y-213980000D03*
X154250000Y-215000000D03*
%TD*%
D35*
%TO.C,C86*%
X167725000Y-204500000D03*
X164775000Y-204500000D03*
%TD*%
D42*
%TO.C,R19*%
X158400000Y-181500000D03*
X158400000Y-182520000D03*
%TD*%
D50*
%TO.C,T1*%
X210670000Y-204080000D03*
X209400000Y-204080000D03*
X208130000Y-204080000D03*
X208130000Y-200900000D03*
X210670000Y-200900000D03*
%TD*%
D37*
%TO.C,C110*%
X217420000Y-177500000D03*
X218380000Y-177500000D03*
%TD*%
D51*
%TO.C,C82*%
X173500000Y-167475000D03*
X173500000Y-164525000D03*
%TD*%
D34*
%TO.C,R30*%
X199127000Y-168600000D03*
X198107000Y-168600000D03*
%TD*%
D52*
%TO.C,C122*%
X225480000Y-182300000D03*
X224520000Y-182300000D03*
%TD*%
D34*
%TO.C,R31*%
X212206600Y-168600000D03*
X211186600Y-168600000D03*
%TD*%
D53*
%TO.C,T2*%
X203620000Y-205220000D03*
X203620000Y-204560000D03*
X203620000Y-203900000D03*
X202630000Y-203900000D03*
X202630000Y-204560000D03*
X202630000Y-205220000D03*
%TD*%
D31*
%TO.C,C95*%
X204582000Y-170500000D03*
X206132000Y-170500000D03*
%TD*%
D26*
%TO.C,J5*%
X229130000Y-171000000D03*
D27*
X229130000Y-175380000D03*
X229130000Y-166620000D03*
%TD*%
D32*
%TO.C,C91*%
X198500000Y-164655000D03*
X198500000Y-165345000D03*
%TD*%
%TO.C,C74*%
X159400000Y-181855000D03*
X159400000Y-182545000D03*
%TD*%
D46*
%TO.C,C107*%
X214950000Y-183560000D03*
X214950000Y-182600000D03*
%TD*%
D54*
%TO.C,U5*%
X201800000Y-193800000D03*
X201800000Y-193000000D03*
X201800000Y-192200000D03*
X201800000Y-191400000D03*
X201800000Y-190600000D03*
X201800000Y-189800000D03*
X201800000Y-189000000D03*
X201800000Y-188200000D03*
X201800000Y-187400000D03*
X201800000Y-186600001D03*
X201800000Y-185800001D03*
X201800000Y-185000001D03*
X202600000Y-193800000D03*
X202600000Y-193000000D03*
X202600000Y-192200000D03*
X202600000Y-191400000D03*
X202600000Y-190600000D03*
X202600000Y-189800000D03*
X202600000Y-189000000D03*
X202600000Y-188200000D03*
X202600000Y-187400000D03*
X202600000Y-186600001D03*
X202600000Y-185800001D03*
X202600000Y-185000001D03*
X203400000Y-193800000D03*
X203400000Y-193000000D03*
X203400000Y-192200000D03*
X203400000Y-191400000D03*
X203400000Y-190600000D03*
X203400000Y-189800000D03*
X203400000Y-189000000D03*
X203400000Y-188200000D03*
X203400000Y-187400000D03*
X203400000Y-186600001D03*
X203400000Y-185800001D03*
X203400000Y-185000001D03*
X204200000Y-193800000D03*
X204200000Y-193000000D03*
X204200000Y-192200000D03*
X204200000Y-191400000D03*
X204200000Y-190600000D03*
X204200000Y-189800000D03*
X204200000Y-189000000D03*
X204200000Y-188200000D03*
X204200000Y-187400000D03*
X204200000Y-186600001D03*
X204200000Y-185800001D03*
X204200000Y-185000001D03*
X205000000Y-193800000D03*
X205000000Y-193000000D03*
X205000000Y-192200000D03*
X205000000Y-191400000D03*
X205000000Y-190600000D03*
X205000000Y-189800000D03*
X205000000Y-189000000D03*
X205000000Y-188200000D03*
X205000000Y-187400000D03*
X205000000Y-186600001D03*
X205000000Y-185800001D03*
X205000000Y-185000001D03*
X205800000Y-193800000D03*
X205800000Y-193000000D03*
X205800000Y-192200000D03*
X205800000Y-191400000D03*
X205800000Y-190600000D03*
X205800000Y-189800000D03*
X205800000Y-189000000D03*
X205800000Y-188200000D03*
X205800000Y-187400000D03*
X205800000Y-186600001D03*
X205800000Y-185800001D03*
X205800000Y-185000001D03*
X206600000Y-193800000D03*
X206600000Y-193000000D03*
X206600000Y-192200000D03*
X206600000Y-191400000D03*
X206600000Y-190600000D03*
X206600000Y-189800000D03*
X206600000Y-189000000D03*
X206600000Y-188200000D03*
X206600000Y-187400000D03*
X206600000Y-186600001D03*
X206600000Y-185800001D03*
X206600000Y-185000001D03*
X207400000Y-193800000D03*
X207400000Y-193000000D03*
X207400000Y-192200000D03*
X207400000Y-191400000D03*
X207400000Y-190600000D03*
X207400000Y-189800000D03*
X207400000Y-189000000D03*
X207400000Y-188200000D03*
X207400000Y-187400000D03*
X207400000Y-186600001D03*
X207400000Y-185800001D03*
X207400000Y-185000001D03*
X208200000Y-193800000D03*
X208200000Y-193000000D03*
X208200000Y-192200000D03*
X208200000Y-191400000D03*
X208200000Y-190600000D03*
X208200000Y-189800000D03*
X208200000Y-189000000D03*
X208200000Y-188200000D03*
X208200000Y-187400000D03*
X208200000Y-186600001D03*
X208200000Y-185800001D03*
X208200000Y-185000001D03*
X208999999Y-193800000D03*
X208999999Y-193000000D03*
X208999999Y-192200000D03*
X208999999Y-191400000D03*
X208999999Y-190600000D03*
X208999999Y-189800000D03*
X208999999Y-189000000D03*
X208999999Y-188200000D03*
X208999999Y-187400000D03*
X208999999Y-186600001D03*
X208999999Y-185800001D03*
X208999999Y-185000001D03*
X209799999Y-193800000D03*
X209799999Y-193000000D03*
X209799999Y-192200000D03*
X209799999Y-191400000D03*
X209799999Y-190600000D03*
X209799999Y-189800000D03*
X209799999Y-189000000D03*
X209799999Y-188200000D03*
X209799999Y-187400000D03*
X209799999Y-186600001D03*
X209799999Y-185800001D03*
X209799999Y-185000001D03*
X210599999Y-193800000D03*
X210599999Y-193000000D03*
X210599999Y-192200000D03*
X210599999Y-191400000D03*
X210599999Y-190600000D03*
X210599999Y-189800000D03*
X210599999Y-189000000D03*
X210599999Y-188200000D03*
X210599999Y-187400000D03*
X210599999Y-186600001D03*
X210599999Y-185800001D03*
X210599999Y-185000001D03*
%TD*%
D20*
%TO.C,C75*%
X172950000Y-203250000D03*
X179050000Y-203250000D03*
%TD*%
D35*
%TO.C,C79*%
X151975000Y-166000000D03*
X149025000Y-166000000D03*
%TD*%
D31*
%TO.C,C96*%
X215725000Y-170500000D03*
X217275000Y-170500000D03*
%TD*%
D42*
%TO.C,R18*%
X157400000Y-181490000D03*
X157400000Y-182510000D03*
%TD*%
D29*
%TO.C,C111*%
X219900000Y-183520000D03*
X219900000Y-184480000D03*
%TD*%
D35*
%TO.C,C80*%
X150975000Y-210000000D03*
X148025000Y-210000000D03*
%TD*%
D47*
%TO.C,R35*%
X224100000Y-171010000D03*
X224100000Y-169990000D03*
%TD*%
D36*
%TO.C,L1*%
X213030000Y-184500000D03*
X214000000Y-184500000D03*
%TD*%
D17*
%TO.C,C60*%
X154525000Y-190200000D03*
X153835000Y-190200000D03*
%TD*%
D55*
%TO.C,Y1*%
X153150000Y-181400000D03*
X153150000Y-183600000D03*
X154850000Y-183600000D03*
X154850000Y-181400000D03*
%TD*%
D20*
%TO.C,C84*%
X190048972Y-203250000D03*
X183948972Y-203250000D03*
%TD*%
D17*
%TO.C,C90*%
X217095000Y-164350000D03*
X216405000Y-164350000D03*
%TD*%
D20*
%TO.C,C77*%
X152000000Y-203050000D03*
X158100000Y-203050000D03*
%TD*%
D42*
%TO.C,R28*%
X154250000Y-216055000D03*
X154250000Y-217075000D03*
%TD*%
D56*
%TO.C,U3*%
X152000000Y-188430000D03*
D57*
X151949200Y-188829999D03*
X151949200Y-189230001D03*
X151949200Y-189630000D03*
X151949200Y-190030000D03*
X151949200Y-190429999D03*
X151949200Y-190830001D03*
X151949200Y-191230000D03*
D58*
X152622198Y-190424999D03*
X152622198Y-189235001D03*
%TD*%
D59*
%TO.C,L2*%
X215870000Y-184500000D03*
X214900000Y-184500000D03*
%TD*%
D21*
%TO.C,IC2*%
X157695585Y-169400001D03*
D22*
X159145585Y-169725001D03*
X160045585Y-169725001D03*
X160945585Y-169725001D03*
X161845585Y-169725001D03*
X162745585Y-169725001D03*
X163645585Y-169725001D03*
X164545585Y-169725001D03*
X165445585Y-169725001D03*
X166345585Y-169725001D03*
D21*
X167795585Y-169400001D03*
D23*
X168170585Y-168000001D03*
X168170585Y-167100001D03*
X168170585Y-166200001D03*
X168170585Y-165300001D03*
X168170585Y-164400001D03*
X168170585Y-163500001D03*
X168170585Y-162600001D03*
D21*
X167795585Y-161200001D03*
D22*
X166345585Y-160875001D03*
X165445585Y-160875001D03*
X164545585Y-160875001D03*
X163645585Y-160875001D03*
X162745585Y-160875001D03*
X161845585Y-160875001D03*
X160945585Y-160875001D03*
X160045585Y-160875001D03*
X159145585Y-160875001D03*
D21*
X157695585Y-161200001D03*
D23*
X157320585Y-162600001D03*
X157320585Y-163500001D03*
X157320585Y-164400001D03*
X157320585Y-165300001D03*
X157320585Y-166200001D03*
X157320585Y-167100001D03*
X157320585Y-168000001D03*
D24*
X159995585Y-164850001D03*
D25*
X164995585Y-167135001D03*
X164995585Y-163465001D03*
%TD*%
D17*
%TO.C,C59*%
X154525000Y-189500000D03*
X153835000Y-189500000D03*
%TD*%
D42*
%TO.C,R25*%
X175500000Y-216980000D03*
X175500000Y-218000000D03*
%TD*%
M02*
