%TF.GenerationSoftware,KiCad,Pcbnew,8.0.1*%
%TF.CreationDate,2024-04-14T19:48:44+02:00*%
%TF.ProjectId,start_1,73746172-745f-4312-9e6b-696361645f70,rev?*%
%TF.SameCoordinates,Original*%
%TF.FileFunction,Soldermask,Bot*%
%TF.FilePolarity,Negative*%
%FSLAX46Y46*%
G04 Gerber Fmt 4.6, Leading zero omitted, Abs format (unit mm)*
G04 Created by KiCad (PCBNEW 8.0.1) date 2024-04-14 19:48:44*
%MOMM*%
%LPD*%
G01*
G04 APERTURE LIST*
G04 Aperture macros list*
%AMRoundRect*
0 Rectangle with rounded corners*
0 $1 Rounding radius*
0 $2 $3 $4 $5 $6 $7 $8 $9 X,Y pos of 4 corners*
0 Add a 4 corners polygon primitive as box body*
4,1,4,$2,$3,$4,$5,$6,$7,$8,$9,$2,$3,0*
0 Add four circle primitives for the rounded corners*
1,1,$1+$1,$2,$3*
1,1,$1+$1,$4,$5*
1,1,$1+$1,$6,$7*
1,1,$1+$1,$8,$9*
0 Add four rect primitives between the rounded corners*
20,1,$1+$1,$2,$3,$4,$5,0*
20,1,$1+$1,$4,$5,$6,$7,0*
20,1,$1+$1,$6,$7,$8,$9,0*
20,1,$1+$1,$8,$9,$2,$3,0*%
G04 Aperture macros list end*
%ADD10R,0.965200X0.431800*%
%ADD11R,3.454400X4.038600*%
%ADD12C,0.800000*%
%ADD13C,6.400000*%
%ADD14R,5.080000X2.420000*%
%ADD15C,1.549400*%
%ADD16O,3.800000X1.800000*%
%ADD17RoundRect,0.140000X-0.140000X-0.170000X0.140000X-0.170000X0.140000X0.170000X-0.140000X0.170000X0*%
%ADD18RoundRect,0.100000X0.162635X-0.021213X-0.021213X0.162635X-0.162635X0.021213X0.021213X-0.162635X0*%
%ADD19RoundRect,0.147500X0.147500X0.172500X-0.147500X0.172500X-0.147500X-0.172500X0.147500X-0.172500X0*%
%ADD20RoundRect,0.100000X-0.100000X0.130000X-0.100000X-0.130000X0.100000X-0.130000X0.100000X0.130000X0*%
%ADD21RoundRect,0.140000X-0.170000X0.140000X-0.170000X-0.140000X0.170000X-0.140000X0.170000X0.140000X0*%
%ADD22RoundRect,0.140000X0.140000X0.170000X-0.140000X0.170000X-0.140000X-0.170000X0.140000X-0.170000X0*%
%ADD23RoundRect,0.140000X0.219203X0.021213X0.021213X0.219203X-0.219203X-0.021213X-0.021213X-0.219203X0*%
%ADD24RoundRect,0.135000X0.135000X0.185000X-0.135000X0.185000X-0.135000X-0.185000X0.135000X-0.185000X0*%
%ADD25RoundRect,0.218750X-0.381250X0.218750X-0.381250X-0.218750X0.381250X-0.218750X0.381250X0.218750X0*%
%ADD26RoundRect,0.100000X0.100000X-0.130000X0.100000X0.130000X-0.100000X0.130000X-0.100000X-0.130000X0*%
%ADD27RoundRect,0.140000X-0.219203X-0.021213X-0.021213X-0.219203X0.219203X0.021213X0.021213X0.219203X0*%
%ADD28RoundRect,0.250000X0.325000X1.100000X-0.325000X1.100000X-0.325000X-1.100000X0.325000X-1.100000X0*%
%ADD29RoundRect,0.140000X0.170000X-0.140000X0.170000X0.140000X-0.170000X0.140000X-0.170000X-0.140000X0*%
%ADD30RoundRect,0.147500X-0.147500X-0.172500X0.147500X-0.172500X0.147500X0.172500X-0.147500X0.172500X0*%
%ADD31RoundRect,0.135000X0.185000X-0.135000X0.185000X0.135000X-0.185000X0.135000X-0.185000X-0.135000X0*%
%ADD32RoundRect,0.250000X-0.325000X-1.100000X0.325000X-1.100000X0.325000X1.100000X-0.325000X1.100000X0*%
%ADD33RoundRect,0.100000X0.130000X0.100000X-0.130000X0.100000X-0.130000X-0.100000X0.130000X-0.100000X0*%
%ADD34RoundRect,0.135000X-0.135000X-0.185000X0.135000X-0.185000X0.135000X0.185000X-0.135000X0.185000X0*%
%ADD35RoundRect,0.135000X-0.185000X0.135000X-0.185000X-0.135000X0.185000X-0.135000X0.185000X0.135000X0*%
%ADD36RoundRect,0.225000X0.250000X-0.225000X0.250000X0.225000X-0.250000X0.225000X-0.250000X-0.225000X0*%
%ADD37RoundRect,0.100000X-0.130000X-0.100000X0.130000X-0.100000X0.130000X0.100000X-0.130000X0.100000X0*%
%ADD38RoundRect,0.147500X0.172500X-0.147500X0.172500X0.147500X-0.172500X0.147500X-0.172500X-0.147500X0*%
%ADD39RoundRect,0.225000X-0.250000X0.225000X-0.250000X-0.225000X0.250000X-0.225000X0.250000X0.225000X0*%
%ADD40RoundRect,0.140000X-0.021213X0.219203X-0.219203X0.021213X0.021213X-0.219203X0.219203X-0.021213X0*%
%ADD41RoundRect,0.147500X-0.172500X0.147500X-0.172500X-0.147500X0.172500X-0.147500X0.172500X0.147500X0*%
%ADD42RoundRect,0.225000X0.225000X0.250000X-0.225000X0.250000X-0.225000X-0.250000X0.225000X-0.250000X0*%
%ADD43RoundRect,0.140000X0.021213X-0.219203X0.219203X-0.021213X-0.021213X0.219203X-0.219203X0.021213X0*%
%ADD44RoundRect,0.225000X-0.225000X-0.250000X0.225000X-0.250000X0.225000X0.250000X-0.225000X0.250000X0*%
G04 APERTURE END LIST*
D10*
%TO.C,U2*%
X187770200Y-170832257D03*
X187770200Y-172102257D03*
X187770200Y-173372257D03*
X187770200Y-174642257D03*
X182029800Y-174642257D03*
X182029800Y-173372257D03*
X182029800Y-172102257D03*
X182029800Y-170832257D03*
D11*
X184900000Y-172737257D03*
%TD*%
D12*
%TO.C,H1*%
X225600000Y-218000000D03*
X226302944Y-216302944D03*
X226302944Y-219697056D03*
X228000000Y-215600000D03*
D13*
X228000000Y-218000000D03*
D12*
X228000000Y-220400000D03*
X229697056Y-216302944D03*
X229697056Y-219697056D03*
X230400000Y-218000000D03*
%TD*%
D14*
%TO.C,J3*%
X229130000Y-193880000D03*
X229130000Y-185120000D03*
%TD*%
%TO.C,J4*%
X229130000Y-212380000D03*
X229130000Y-203620000D03*
%TD*%
D12*
%TO.C,H2*%
X144600000Y-218000000D03*
X145302944Y-216302944D03*
X145302944Y-219697056D03*
X147000000Y-215600000D03*
D13*
X147000000Y-218000000D03*
D12*
X147000000Y-220400000D03*
X148697056Y-216302944D03*
X148697056Y-219697056D03*
X149400000Y-218000000D03*
%TD*%
D15*
%TO.C,J1*%
X179700000Y-163000000D03*
X189700000Y-163000000D03*
%TD*%
D16*
%TO.C,J2*%
X145300000Y-183650000D03*
X145300000Y-195350000D03*
%TD*%
D12*
%TO.C,H4*%
X144600000Y-161000000D03*
X145302944Y-159302944D03*
X145302944Y-162697056D03*
X147000000Y-158600000D03*
D13*
X147000000Y-161000000D03*
D12*
X147000000Y-163400000D03*
X148697056Y-159302944D03*
X148697056Y-162697056D03*
X149400000Y-161000000D03*
%TD*%
D14*
%TO.C,J5*%
X229130000Y-175380000D03*
X229130000Y-166620000D03*
%TD*%
D12*
%TO.C,H3*%
X225600000Y-161000000D03*
X226302944Y-159302944D03*
X226302944Y-162697056D03*
X228000000Y-158600000D03*
D13*
X228000000Y-161000000D03*
D12*
X228000000Y-163400000D03*
X229697056Y-159302944D03*
X229697056Y-162697056D03*
X230400000Y-161000000D03*
%TD*%
D17*
%TO.C,C42*%
X183020000Y-188000000D03*
X183980000Y-188000000D03*
%TD*%
D18*
%TO.C,C149*%
X208600000Y-191000000D03*
X209052548Y-191452548D03*
%TD*%
D19*
%TO.C,FB8*%
X204585000Y-178500000D03*
X203615000Y-178500000D03*
%TD*%
D20*
%TO.C,C143*%
X209000000Y-193020000D03*
X209000000Y-192380000D03*
%TD*%
D21*
%TO.C,C9*%
X186000000Y-181020000D03*
X186000000Y-181980000D03*
%TD*%
D17*
%TO.C,C40*%
X183020000Y-190000000D03*
X183980000Y-190000000D03*
%TD*%
D20*
%TO.C,C132*%
X201800000Y-189720000D03*
X201800000Y-189080000D03*
%TD*%
D22*
%TO.C,C16*%
X181980000Y-185000000D03*
X181020000Y-185000000D03*
%TD*%
D23*
%TO.C,C71*%
X164339411Y-192339411D03*
X163660589Y-191660589D03*
%TD*%
D24*
%TO.C,R16*%
X150710000Y-194400000D03*
X149690000Y-194400000D03*
%TD*%
D17*
%TO.C,C41*%
X184020000Y-191000000D03*
X184980000Y-191000000D03*
%TD*%
D25*
%TO.C,FB4*%
X148300000Y-192537500D03*
X148300000Y-194662500D03*
%TD*%
D26*
%TO.C,C70*%
X157100000Y-193560000D03*
X157100000Y-194200000D03*
%TD*%
D27*
%TO.C,C39*%
X188860589Y-195860589D03*
X189539411Y-196539411D03*
%TD*%
D28*
%TO.C,C18*%
X184975000Y-199500000D03*
X182025000Y-199500000D03*
%TD*%
D21*
%TO.C,C30*%
X182000000Y-195020000D03*
X182000000Y-195980000D03*
%TD*%
D28*
%TO.C,C6*%
X185975000Y-178000000D03*
X183025000Y-178000000D03*
%TD*%
D29*
%TO.C,C67*%
X155200000Y-193130000D03*
X155200000Y-192170000D03*
%TD*%
D22*
%TO.C,C37*%
X186000000Y-189000000D03*
X185040000Y-189000000D03*
%TD*%
D30*
%TO.C,FB5*%
X215765000Y-187750000D03*
X216735000Y-187750000D03*
%TD*%
D31*
%TO.C,R17*%
X161000000Y-187210000D03*
X161000000Y-186190000D03*
%TD*%
D22*
%TO.C,C64*%
X154480000Y-183200000D03*
X153520000Y-183200000D03*
%TD*%
D32*
%TO.C,C1*%
X178025000Y-178000000D03*
X180975000Y-178000000D03*
%TD*%
D20*
%TO.C,C136*%
X204200000Y-193720000D03*
X204200000Y-193080000D03*
%TD*%
D23*
%TO.C,C26*%
X178039411Y-192939411D03*
X177360589Y-192260589D03*
%TD*%
D33*
%TO.C,C139*%
X206680000Y-185000000D03*
X207320000Y-185000000D03*
%TD*%
D20*
%TO.C,C57*%
X163800000Y-186840000D03*
X163800000Y-186200000D03*
%TD*%
D34*
%TO.C,R10*%
X183790000Y-180700000D03*
X184810000Y-180700000D03*
%TD*%
D35*
%TO.C,R8*%
X182500000Y-163090000D03*
X182500000Y-164110000D03*
%TD*%
D36*
%TO.C,C130*%
X199500000Y-178500000D03*
X199500000Y-176950000D03*
%TD*%
D20*
%TO.C,C58*%
X149700000Y-193220000D03*
X149700000Y-192580000D03*
%TD*%
D37*
%TO.C,C66*%
X158140000Y-190000000D03*
X157500000Y-190000000D03*
%TD*%
D21*
%TO.C,C52*%
X159400000Y-186200000D03*
X159400000Y-187160000D03*
%TD*%
D24*
%TO.C,R9*%
X189910000Y-165200000D03*
X188890000Y-165200000D03*
%TD*%
D17*
%TO.C,C10*%
X176020000Y-187000000D03*
X176980000Y-187000000D03*
%TD*%
D33*
%TO.C,C73*%
X163560000Y-189100000D03*
X164200000Y-189100000D03*
%TD*%
D18*
%TO.C,C151*%
X203573726Y-191573726D03*
X204026274Y-192026274D03*
%TD*%
D29*
%TO.C,C22*%
X182000000Y-192980000D03*
X182000000Y-192020000D03*
%TD*%
D17*
%TO.C,C140*%
X200120000Y-185400000D03*
X201080000Y-185400000D03*
%TD*%
D22*
%TO.C,C27*%
X190980000Y-192000000D03*
X190020000Y-192000000D03*
%TD*%
D35*
%TO.C,R2*%
X180624200Y-171027258D03*
X180624200Y-172047258D03*
%TD*%
D29*
%TO.C,C44*%
X186000000Y-190980000D03*
X186000000Y-190020000D03*
%TD*%
D35*
%TO.C,R13*%
X186500000Y-163090000D03*
X186500000Y-164110000D03*
%TD*%
D29*
%TO.C,C53*%
X160100000Y-192800000D03*
X160100000Y-191840000D03*
%TD*%
D32*
%TO.C,C24*%
X176525000Y-199500000D03*
X179475000Y-199500000D03*
%TD*%
D17*
%TO.C,C12*%
X182040000Y-189000000D03*
X183000000Y-189000000D03*
%TD*%
D29*
%TO.C,C15*%
X181000000Y-187980000D03*
X181000000Y-187020000D03*
%TD*%
D34*
%TO.C,R33*%
X200090000Y-184400000D03*
X201110000Y-184400000D03*
%TD*%
D21*
%TO.C,C8*%
X186000000Y-187020000D03*
X186000000Y-187980000D03*
%TD*%
D26*
%TO.C,C112*%
X216800000Y-183780000D03*
X216800000Y-184420000D03*
%TD*%
D21*
%TO.C,C43*%
X183000000Y-192020000D03*
X183000000Y-192980000D03*
%TD*%
D33*
%TO.C,C134*%
X201080000Y-186600000D03*
X201720000Y-186600000D03*
%TD*%
D17*
%TO.C,C23*%
X182000000Y-191000000D03*
X182960000Y-191000000D03*
%TD*%
D21*
%TO.C,C20*%
X181000000Y-182020000D03*
X181000000Y-182980000D03*
%TD*%
D33*
%TO.C,C152*%
X201080000Y-187400000D03*
X201720000Y-187400000D03*
%TD*%
D26*
%TO.C,C65*%
X155300000Y-188360000D03*
X155300000Y-189000000D03*
%TD*%
D36*
%TO.C,C51*%
X162600000Y-180875000D03*
X162600000Y-179325000D03*
%TD*%
D38*
%TO.C,FB3*%
X161300000Y-181900000D03*
X161300000Y-180930000D03*
%TD*%
D33*
%TO.C,C153*%
X201080000Y-188200000D03*
X201720000Y-188200000D03*
%TD*%
D23*
%TO.C,C33*%
X190113137Y-189113137D03*
X189434315Y-188434315D03*
%TD*%
D39*
%TO.C,C49*%
X154600000Y-194625000D03*
X154600000Y-196175000D03*
%TD*%
D17*
%TO.C,C54*%
X153520000Y-181800000D03*
X154480000Y-181800000D03*
%TD*%
D30*
%TO.C,FB2*%
X144115000Y-189000000D03*
X145085000Y-189000000D03*
%TD*%
D37*
%TO.C,C68*%
X158420000Y-191100000D03*
X157780000Y-191100000D03*
%TD*%
D26*
%TO.C,C120*%
X211900000Y-208480000D03*
X211900000Y-209120000D03*
%TD*%
D40*
%TO.C,C5*%
X188139411Y-182910589D03*
X187460589Y-183589411D03*
%TD*%
D37*
%TO.C,C56*%
X158320000Y-187500000D03*
X157680000Y-187500000D03*
%TD*%
D41*
%TO.C,FB7*%
X202650000Y-190015000D03*
X202650000Y-190985000D03*
%TD*%
D29*
%TO.C,C55*%
X163900000Y-180880000D03*
X163900000Y-179920000D03*
%TD*%
D27*
%TO.C,C32*%
X176910589Y-189860589D03*
X177589411Y-190539411D03*
%TD*%
D33*
%TO.C,C148*%
X209880000Y-186600000D03*
X210520000Y-186600000D03*
%TD*%
D29*
%TO.C,C19*%
X182000000Y-186980000D03*
X182000000Y-186020000D03*
%TD*%
D27*
%TO.C,C21*%
X188960589Y-186060589D03*
X189639411Y-186739411D03*
%TD*%
D37*
%TO.C,C147*%
X203320000Y-187400000D03*
X202680000Y-187400000D03*
%TD*%
D23*
%TO.C,C4*%
X179100000Y-186139411D03*
X178421178Y-185460589D03*
%TD*%
D37*
%TO.C,C47*%
X182720000Y-169337258D03*
X182080000Y-169337258D03*
%TD*%
D24*
%TO.C,R12*%
X179510000Y-164400000D03*
X178490000Y-164400000D03*
%TD*%
D37*
%TO.C,R5*%
X189720000Y-172037258D03*
X189080000Y-172037258D03*
%TD*%
D26*
%TO.C,C61*%
X164800000Y-180280000D03*
X164800000Y-180920000D03*
%TD*%
D29*
%TO.C,C46*%
X184000000Y-186980000D03*
X184000000Y-186020000D03*
%TD*%
D27*
%TO.C,C36*%
X185060589Y-194060589D03*
X185739411Y-194739411D03*
%TD*%
D42*
%TO.C,C50*%
X158350000Y-196400000D03*
X156800000Y-196400000D03*
%TD*%
D43*
%TO.C,C28*%
X179060589Y-196039411D03*
X179739411Y-195360589D03*
%TD*%
D26*
%TO.C,C63*%
X161000000Y-192060000D03*
X161000000Y-192700000D03*
%TD*%
%TO.C,C146*%
X205800000Y-184280000D03*
X205800000Y-184920000D03*
%TD*%
D33*
%TO.C,R7*%
X178980000Y-172137258D03*
X179620000Y-172137258D03*
%TD*%
D26*
%TO.C,C124*%
X217500000Y-208080000D03*
X217500000Y-208720000D03*
%TD*%
D37*
%TO.C,C137*%
X203320000Y-186600000D03*
X202680000Y-186600000D03*
%TD*%
D20*
%TO.C,C133*%
X205000000Y-193720000D03*
X205000000Y-193080000D03*
%TD*%
D24*
%TO.C,R37*%
X211010000Y-191200000D03*
X209990000Y-191200000D03*
%TD*%
D20*
%TO.C,C135*%
X208200000Y-192920000D03*
X208200000Y-192280000D03*
%TD*%
D22*
%TO.C,C35*%
X176160000Y-197000000D03*
X175200000Y-197000000D03*
%TD*%
D23*
%TO.C,C31*%
X185939411Y-196939411D03*
X185260589Y-196260589D03*
%TD*%
D26*
%TO.C,C102*%
X212100000Y-183780000D03*
X212100000Y-184420000D03*
%TD*%
D24*
%TO.C,R11*%
X182810000Y-180700000D03*
X181790000Y-180700000D03*
%TD*%
D37*
%TO.C,C138*%
X203320000Y-188200000D03*
X202680000Y-188200000D03*
%TD*%
D28*
%TO.C,C2*%
X191475000Y-178000000D03*
X188525000Y-178000000D03*
%TD*%
D20*
%TO.C,C69*%
X161400000Y-195720000D03*
X161400000Y-195080000D03*
%TD*%
D23*
%TO.C,C13*%
X185039411Y-184039411D03*
X184360589Y-183360589D03*
%TD*%
D27*
%TO.C,C29*%
X187860589Y-192860589D03*
X188539411Y-193539411D03*
%TD*%
D35*
%TO.C,R1*%
X189000000Y-169827258D03*
X189000000Y-170847258D03*
%TD*%
D40*
%TO.C,C11*%
X191113137Y-181886863D03*
X190434315Y-182565685D03*
%TD*%
D37*
%TO.C,C142*%
X205720000Y-192200000D03*
X205080000Y-192200000D03*
%TD*%
D33*
%TO.C,R4*%
X180104200Y-174637257D03*
X180744200Y-174637257D03*
%TD*%
D17*
%TO.C,C145*%
X202620000Y-189100000D03*
X203580000Y-189100000D03*
%TD*%
D23*
%TO.C,C7*%
X178100000Y-183139411D03*
X177421178Y-182460589D03*
%TD*%
D34*
%TO.C,R14*%
X157790000Y-188700000D03*
X158810000Y-188700000D03*
%TD*%
D44*
%TO.C,C99*%
X215825000Y-186500000D03*
X217375000Y-186500000D03*
%TD*%
D31*
%TO.C,R3*%
X189200000Y-174447257D03*
X189200000Y-173427257D03*
%TD*%
D20*
%TO.C,C131*%
X205800000Y-193720000D03*
X205800000Y-193080000D03*
%TD*%
D17*
%TO.C,C45*%
X185020000Y-192000000D03*
X185980000Y-192000000D03*
%TD*%
D32*
%TO.C,C25*%
X187525000Y-199500000D03*
X190475000Y-199500000D03*
%TD*%
D29*
%TO.C,C62*%
X155300000Y-185880000D03*
X155300000Y-184920000D03*
%TD*%
D22*
%TO.C,C144*%
X207600000Y-184000000D03*
X206640000Y-184000000D03*
%TD*%
D29*
%TO.C,C141*%
X207200000Y-195080000D03*
X207200000Y-194120000D03*
%TD*%
D37*
%TO.C,R6*%
X190820000Y-173437258D03*
X190180000Y-173437258D03*
%TD*%
%TO.C,C48*%
X145020000Y-190000000D03*
X144380000Y-190000000D03*
%TD*%
D28*
%TO.C,C3*%
X175999999Y-179000000D03*
X173049999Y-179000000D03*
%TD*%
D17*
%TO.C,C38*%
X180000000Y-189000000D03*
X180960000Y-189000000D03*
%TD*%
D24*
%TO.C,R36*%
X216210000Y-190200000D03*
X215190000Y-190200000D03*
%TD*%
D31*
%TO.C,R15*%
X150700000Y-193510000D03*
X150700000Y-192490000D03*
%TD*%
D22*
%TO.C,C150*%
X202680000Y-178500000D03*
X201720000Y-178500000D03*
%TD*%
D24*
%TO.C,R34*%
X206310000Y-195100000D03*
X205290000Y-195100000D03*
%TD*%
D26*
%TO.C,C123*%
X212700000Y-207680000D03*
X212700000Y-208320000D03*
%TD*%
D33*
%TO.C,C101*%
X209880000Y-187400000D03*
X210520000Y-187400000D03*
%TD*%
D39*
%TO.C,C129*%
X210400000Y-194125000D03*
X210400000Y-195675000D03*
%TD*%
G36*
X144943039Y-196019685D02*
G01*
X144988794Y-196072489D01*
X145000000Y-196124000D01*
X145000000Y-213799998D01*
X145009999Y-213939994D01*
X145019999Y-213999996D01*
X145040000Y-214079998D01*
X145079995Y-214189988D01*
X145079998Y-214189995D01*
X145120000Y-214280000D01*
X145169993Y-214359991D01*
X145225200Y-214433599D01*
X145249676Y-214499041D01*
X145250000Y-214507999D01*
X145250000Y-215376000D01*
X145230315Y-215443039D01*
X145177511Y-215488794D01*
X145126001Y-215500000D01*
X145000000Y-215500000D01*
X145000000Y-220000000D01*
X145126000Y-220000000D01*
X145193039Y-220019685D01*
X145238794Y-220072489D01*
X145250000Y-220124000D01*
X145250000Y-221876000D01*
X145230315Y-221943039D01*
X145177511Y-221988794D01*
X145126000Y-222000000D01*
X144001527Y-222000000D01*
X143998490Y-221999963D01*
X143912420Y-221997854D01*
X143891266Y-221995508D01*
X143720993Y-221961639D01*
X143697731Y-221954583D01*
X143538745Y-221888728D01*
X143517307Y-221877269D01*
X143374224Y-221781664D01*
X143355434Y-221766243D01*
X143233756Y-221644565D01*
X143218335Y-221625775D01*
X143122730Y-221482692D01*
X143111271Y-221461254D01*
X143045416Y-221302268D01*
X143038360Y-221279006D01*
X143004491Y-221108733D01*
X143002145Y-221087578D01*
X143000037Y-221001509D01*
X143000000Y-220998473D01*
X143000000Y-196124000D01*
X143019685Y-196056961D01*
X143072489Y-196011206D01*
X143124000Y-196000000D01*
X144876000Y-196000000D01*
X144943039Y-196019685D01*
G37*
G36*
X145193039Y-157019685D02*
G01*
X145238794Y-157072489D01*
X145250000Y-157124000D01*
X145250000Y-158876000D01*
X145230315Y-158943039D01*
X145177511Y-158988794D01*
X145126000Y-159000000D01*
X145000000Y-159000000D01*
X145000000Y-163500000D01*
X145126000Y-163500000D01*
X145193039Y-163519685D01*
X145238794Y-163572489D01*
X145250000Y-163624000D01*
X145250000Y-164492000D01*
X145230315Y-164559039D01*
X145225200Y-164566400D01*
X145169993Y-164640008D01*
X145120000Y-164719999D01*
X145079998Y-164810004D01*
X145079992Y-164810020D01*
X145039999Y-164920002D01*
X145020001Y-164999998D01*
X145009999Y-165060007D01*
X145000000Y-165200001D01*
X145000000Y-182876000D01*
X144980315Y-182943039D01*
X144927511Y-182988794D01*
X144876000Y-183000000D01*
X143124000Y-183000000D01*
X143056961Y-182980315D01*
X143011206Y-182927511D01*
X143000000Y-182876000D01*
X143000000Y-158001526D01*
X143000037Y-157998490D01*
X143002145Y-157912421D01*
X143004491Y-157891266D01*
X143038360Y-157720993D01*
X143045416Y-157697731D01*
X143111271Y-157538745D01*
X143122730Y-157517307D01*
X143218335Y-157374224D01*
X143233756Y-157355434D01*
X143355434Y-157233756D01*
X143374224Y-157218335D01*
X143517307Y-157122730D01*
X143538745Y-157111271D01*
X143697731Y-157045416D01*
X143720993Y-157038360D01*
X143891266Y-157004491D01*
X143912421Y-157002145D01*
X143998491Y-157000037D01*
X144001527Y-157000000D01*
X145126000Y-157000000D01*
X145193039Y-157019685D01*
G37*
G36*
X225521979Y-158752382D02*
G01*
X225532034Y-158754382D01*
X225593946Y-158786767D01*
X225628520Y-158847483D01*
X225624781Y-158917252D01*
X225583915Y-158973924D01*
X225518897Y-158999506D01*
X225510100Y-158999899D01*
X225510000Y-159000000D01*
X225510000Y-160876000D01*
X225490315Y-160943039D01*
X225437511Y-160988794D01*
X225386000Y-161000000D01*
X224924000Y-161000000D01*
X224856961Y-160980315D01*
X224811206Y-160927511D01*
X224800000Y-160876000D01*
X224800000Y-159850002D01*
X224769997Y-159719990D01*
X224740004Y-159630012D01*
X224700001Y-159540003D01*
X224699997Y-159539996D01*
X224640002Y-159440001D01*
X224639999Y-159439996D01*
X224580003Y-159360005D01*
X224580000Y-159360000D01*
X224517106Y-159292894D01*
X224449997Y-159229998D01*
X224370002Y-159170002D01*
X224369989Y-159169993D01*
X224289999Y-159119998D01*
X224200022Y-159080010D01*
X224199994Y-159079999D01*
X224090004Y-159040001D01*
X224009999Y-159020000D01*
X223949992Y-159009999D01*
X223809998Y-159000000D01*
X223807644Y-159000000D01*
X223740605Y-158980315D01*
X223694850Y-158927511D01*
X223684906Y-158858353D01*
X223713931Y-158794797D01*
X223772709Y-158757023D01*
X223787804Y-158753597D01*
X223800143Y-158751597D01*
X223819983Y-158750000D01*
X225497789Y-158750000D01*
X225521979Y-158752382D01*
G37*
G36*
X144917254Y-163385220D02*
G01*
X144973926Y-163426087D01*
X144999507Y-163491105D01*
X144999899Y-163499899D01*
X145000000Y-163500000D01*
X146876000Y-163500000D01*
X146943039Y-163519685D01*
X146988794Y-163572489D01*
X147000000Y-163624000D01*
X147000000Y-164094917D01*
X146980315Y-164161956D01*
X146927511Y-164207711D01*
X146874922Y-164218912D01*
X145850003Y-164209999D01*
X145719990Y-164240001D01*
X145630012Y-164269995D01*
X145540003Y-164309998D01*
X145539996Y-164310002D01*
X145440001Y-164369997D01*
X145439996Y-164370000D01*
X145360005Y-164429996D01*
X145360000Y-164429999D01*
X145292894Y-164492893D01*
X145229998Y-164560002D01*
X145169993Y-164640008D01*
X145120000Y-164719999D01*
X145079998Y-164810004D01*
X145079992Y-164810020D01*
X145039999Y-164920002D01*
X145020001Y-164999998D01*
X145009999Y-165060007D01*
X145000000Y-165200001D01*
X145000000Y-165202355D01*
X144980315Y-165269394D01*
X144927511Y-165315149D01*
X144858353Y-165325093D01*
X144794797Y-165296068D01*
X144757023Y-165237290D01*
X144753598Y-165222197D01*
X144751598Y-165209859D01*
X144750000Y-165190017D01*
X144750000Y-163512210D01*
X144752383Y-163488017D01*
X144754383Y-163477963D01*
X144786769Y-163416053D01*
X144847485Y-163381479D01*
X144917254Y-163385220D01*
G37*
G36*
X231943039Y-214019685D02*
G01*
X231988794Y-214072489D01*
X232000000Y-214124000D01*
X232000000Y-220998473D01*
X231999963Y-221001511D01*
X231997854Y-221087580D01*
X231995508Y-221108733D01*
X231961639Y-221279006D01*
X231954583Y-221302268D01*
X231888728Y-221461254D01*
X231877269Y-221482692D01*
X231781664Y-221625775D01*
X231766243Y-221644565D01*
X231644565Y-221766243D01*
X231625775Y-221781664D01*
X231482692Y-221877269D01*
X231461254Y-221888728D01*
X231302268Y-221954583D01*
X231279006Y-221961639D01*
X231108733Y-221995508D01*
X231087580Y-221997854D01*
X231001511Y-221999963D01*
X230998473Y-222000000D01*
X229874000Y-222000000D01*
X229806961Y-221980315D01*
X229761206Y-221927511D01*
X229750000Y-221876000D01*
X229750000Y-220124000D01*
X229769685Y-220056961D01*
X229822489Y-220011206D01*
X229874000Y-220000000D01*
X230000000Y-220000000D01*
X230000000Y-215500001D01*
X229999999Y-215500000D01*
X229873999Y-215500000D01*
X229806960Y-215480315D01*
X229761205Y-215427511D01*
X229750000Y-215376000D01*
X229750000Y-214507999D01*
X229769685Y-214440960D01*
X229774800Y-214433599D01*
X229830006Y-214359991D01*
X229879999Y-214280000D01*
X229920001Y-214189995D01*
X229920004Y-214189988D01*
X229959409Y-214081624D01*
X230000819Y-214025348D01*
X230066080Y-214000393D01*
X230075944Y-214000000D01*
X231876000Y-214000000D01*
X231943039Y-214019685D01*
G37*
G36*
X231001509Y-157000037D02*
G01*
X231087578Y-157002145D01*
X231108733Y-157004491D01*
X231279006Y-157038360D01*
X231302268Y-157045416D01*
X231461254Y-157111271D01*
X231482692Y-157122730D01*
X231625775Y-157218335D01*
X231644565Y-157233756D01*
X231766243Y-157355434D01*
X231781664Y-157374224D01*
X231877269Y-157517307D01*
X231888728Y-157538745D01*
X231954583Y-157697731D01*
X231961639Y-157720993D01*
X231995508Y-157891266D01*
X231997854Y-157912419D01*
X231999963Y-157998488D01*
X232000000Y-158001526D01*
X232000000Y-164876000D01*
X231980315Y-164943039D01*
X231927511Y-164988794D01*
X231876000Y-165000000D01*
X230075944Y-165000000D01*
X230008905Y-164980315D01*
X229963150Y-164927511D01*
X229959409Y-164918376D01*
X229920004Y-164810011D01*
X229920001Y-164810004D01*
X229879999Y-164719999D01*
X229830006Y-164640008D01*
X229774800Y-164566400D01*
X229750324Y-164500957D01*
X229750000Y-164492000D01*
X229750000Y-163623999D01*
X229769685Y-163556960D01*
X229822489Y-163511205D01*
X229874000Y-163499999D01*
X230000000Y-163499999D01*
X230000000Y-159000000D01*
X229874000Y-159000000D01*
X229806961Y-158980315D01*
X229761206Y-158927511D01*
X229750000Y-158876000D01*
X229750000Y-157124000D01*
X229769685Y-157056961D01*
X229822489Y-157011206D01*
X229874000Y-157000000D01*
X230998473Y-157000000D01*
X231001509Y-157000037D01*
G37*
G36*
X144943039Y-219769685D02*
G01*
X144988794Y-219822489D01*
X145000000Y-219874000D01*
X145000000Y-220000000D01*
X149499999Y-220000000D01*
X149499999Y-219874000D01*
X149519684Y-219806961D01*
X149572488Y-219761206D01*
X149623999Y-219750000D01*
X150492000Y-219750000D01*
X150559039Y-219769685D01*
X150566400Y-219774800D01*
X150640008Y-219830006D01*
X150719999Y-219879999D01*
X150719998Y-219879999D01*
X150810004Y-219920001D01*
X150810011Y-219920004D01*
X150920001Y-219959999D01*
X151000004Y-219980000D01*
X151060006Y-219990000D01*
X151060004Y-219990000D01*
X151200001Y-219999999D01*
X151200012Y-220000000D01*
X223799988Y-220000000D01*
X223799998Y-219999999D01*
X223939994Y-219990000D01*
X223999996Y-219980000D01*
X224079998Y-219959999D01*
X224189988Y-219920004D01*
X224189995Y-219920001D01*
X224280000Y-219879999D01*
X224359991Y-219830006D01*
X224433600Y-219774800D01*
X224499043Y-219750324D01*
X224508000Y-219750000D01*
X225376001Y-219750000D01*
X225443040Y-219769685D01*
X225488795Y-219822489D01*
X225500001Y-219874000D01*
X225500001Y-220000000D01*
X230000000Y-220000000D01*
X230000000Y-219874000D01*
X230019685Y-219806961D01*
X230072489Y-219761206D01*
X230124000Y-219750000D01*
X231876000Y-219750000D01*
X231943039Y-219769685D01*
X231988794Y-219822489D01*
X232000000Y-219874000D01*
X232000000Y-220998473D01*
X231999963Y-221001511D01*
X231997854Y-221087580D01*
X231995508Y-221108733D01*
X231961639Y-221279006D01*
X231954583Y-221302268D01*
X231888728Y-221461254D01*
X231877269Y-221482692D01*
X231781664Y-221625775D01*
X231766243Y-221644565D01*
X231644565Y-221766243D01*
X231625775Y-221781664D01*
X231482692Y-221877269D01*
X231461254Y-221888728D01*
X231302268Y-221954583D01*
X231279006Y-221961639D01*
X231108733Y-221995508D01*
X231087580Y-221997854D01*
X231001511Y-221999963D01*
X230998473Y-222000000D01*
X144001527Y-222000000D01*
X143998490Y-221999963D01*
X143912420Y-221997854D01*
X143891266Y-221995508D01*
X143720993Y-221961639D01*
X143697731Y-221954583D01*
X143538745Y-221888728D01*
X143517307Y-221877269D01*
X143374224Y-221781664D01*
X143355434Y-221766243D01*
X143233756Y-221644565D01*
X143218335Y-221625775D01*
X143122730Y-221482692D01*
X143111271Y-221461254D01*
X143045416Y-221302268D01*
X143038360Y-221279006D01*
X143004491Y-221108733D01*
X143002145Y-221087578D01*
X143000037Y-221001509D01*
X143000000Y-220998473D01*
X143000000Y-219874000D01*
X143019685Y-219806961D01*
X143072489Y-219761206D01*
X143124000Y-219750000D01*
X144876000Y-219750000D01*
X144943039Y-219769685D01*
G37*
G36*
X150161956Y-218019685D02*
G01*
X150207711Y-218072489D01*
X150218912Y-218125078D01*
X150209999Y-219149996D01*
X150240001Y-219280009D01*
X150269995Y-219369989D01*
X150269997Y-219369994D01*
X150309996Y-219459992D01*
X150309998Y-219459996D01*
X150369998Y-219559997D01*
X150429998Y-219639998D01*
X150429999Y-219639999D01*
X150492893Y-219707105D01*
X150560002Y-219770001D01*
X150640008Y-219830006D01*
X150719999Y-219879999D01*
X150719998Y-219879999D01*
X150810004Y-219920001D01*
X150810011Y-219920004D01*
X150920001Y-219959999D01*
X151000004Y-219980000D01*
X151060006Y-219990000D01*
X151060004Y-219990000D01*
X151200001Y-219999999D01*
X151200012Y-220000000D01*
X151202356Y-220000000D01*
X151269395Y-220019685D01*
X151315150Y-220072489D01*
X151325094Y-220141647D01*
X151296069Y-220205203D01*
X151237291Y-220242977D01*
X151222196Y-220246403D01*
X151209857Y-220248403D01*
X151190017Y-220250000D01*
X149512210Y-220250000D01*
X149488020Y-220247618D01*
X149477965Y-220245618D01*
X149416053Y-220213233D01*
X149381479Y-220152517D01*
X149385218Y-220082748D01*
X149426084Y-220026076D01*
X149491102Y-220000494D01*
X149499897Y-220000100D01*
X149499999Y-219999999D01*
X149500000Y-218124000D01*
X149519685Y-218056960D01*
X149572489Y-218011206D01*
X149624000Y-218000000D01*
X150094917Y-218000000D01*
X150161956Y-218019685D01*
G37*
G36*
X231943039Y-195519685D02*
G01*
X231988794Y-195572489D01*
X232000000Y-195624000D01*
X232000000Y-201876000D01*
X231980315Y-201943039D01*
X231927511Y-201988794D01*
X231876000Y-202000000D01*
X230124000Y-202000000D01*
X230056961Y-201980315D01*
X230011206Y-201927511D01*
X230000000Y-201876000D01*
X230000000Y-195624000D01*
X230019685Y-195556961D01*
X230072489Y-195511206D01*
X230124000Y-195500000D01*
X231876000Y-195500000D01*
X231943039Y-195519685D01*
G37*
G36*
X151211979Y-158752382D02*
G01*
X151222034Y-158754382D01*
X151283946Y-158786767D01*
X151318520Y-158847483D01*
X151314781Y-158917252D01*
X151273915Y-158973924D01*
X151208897Y-158999506D01*
X151202216Y-158999804D01*
X151202221Y-158999921D01*
X151200001Y-159000000D01*
X151060010Y-159009998D01*
X151060003Y-159009999D01*
X151000002Y-159019999D01*
X150920003Y-159039999D01*
X150810011Y-159079995D01*
X150810004Y-159079998D01*
X150719999Y-159120000D01*
X150640008Y-159169993D01*
X150560002Y-159229998D01*
X150492893Y-159292894D01*
X150429999Y-159360000D01*
X150429998Y-159360001D01*
X150369998Y-159440002D01*
X150309998Y-159540003D01*
X150309996Y-159540007D01*
X150269997Y-159630005D01*
X150269995Y-159630010D01*
X150240001Y-159719990D01*
X150209999Y-159850003D01*
X150218912Y-160874922D01*
X150199811Y-160942130D01*
X150147407Y-160988342D01*
X150094917Y-161000000D01*
X149624000Y-161000000D01*
X149556961Y-160980315D01*
X149511206Y-160927511D01*
X149500000Y-160876000D01*
X149500000Y-159000000D01*
X149499103Y-158999103D01*
X149435117Y-158980315D01*
X149389362Y-158927511D01*
X149379418Y-158858353D01*
X149408443Y-158794797D01*
X149467221Y-158757023D01*
X149477966Y-158754382D01*
X149488021Y-158752382D01*
X149512211Y-158750000D01*
X151187789Y-158750000D01*
X151211979Y-158752382D01*
G37*
G36*
X230193039Y-214019685D02*
G01*
X230238794Y-214072489D01*
X230250000Y-214124000D01*
X230250000Y-215487790D01*
X230247617Y-215511983D01*
X230245617Y-215522037D01*
X230213231Y-215583947D01*
X230152515Y-215618521D01*
X230082746Y-215614780D01*
X230026074Y-215573913D01*
X230000493Y-215508895D01*
X230000100Y-215500102D01*
X229999999Y-215500000D01*
X228124000Y-215500000D01*
X228056960Y-215480315D01*
X228011206Y-215427511D01*
X228000000Y-215376000D01*
X228000000Y-214905082D01*
X228019685Y-214838043D01*
X228072489Y-214792288D01*
X228125078Y-214781087D01*
X229149996Y-214790000D01*
X229280009Y-214759998D01*
X229369989Y-214730004D01*
X229369994Y-214730002D01*
X229459992Y-214690003D01*
X229459996Y-214690001D01*
X229559997Y-214630001D01*
X229639998Y-214570001D01*
X229639999Y-214570000D01*
X229707105Y-214507106D01*
X229770001Y-214439997D01*
X229830006Y-214359991D01*
X229879999Y-214280000D01*
X229920001Y-214189995D01*
X229920004Y-214189988D01*
X229959409Y-214081624D01*
X230000819Y-214025348D01*
X230066080Y-214000393D01*
X230075944Y-214000000D01*
X230126000Y-214000000D01*
X230193039Y-214019685D01*
G37*
G36*
X231001509Y-157000037D02*
G01*
X231087578Y-157002145D01*
X231108733Y-157004491D01*
X231279006Y-157038360D01*
X231302268Y-157045416D01*
X231461254Y-157111271D01*
X231482692Y-157122730D01*
X231625775Y-157218335D01*
X231644565Y-157233756D01*
X231766243Y-157355434D01*
X231781664Y-157374224D01*
X231877269Y-157517307D01*
X231888728Y-157538745D01*
X231954583Y-157697731D01*
X231961639Y-157720993D01*
X231995508Y-157891266D01*
X231997854Y-157912419D01*
X231999963Y-157998488D01*
X232000000Y-158001526D01*
X232000000Y-159126000D01*
X231980315Y-159193039D01*
X231927511Y-159238794D01*
X231876000Y-159250000D01*
X230124000Y-159250000D01*
X230056961Y-159230315D01*
X230011206Y-159177511D01*
X230000000Y-159126000D01*
X230000000Y-159000000D01*
X225510000Y-159000000D01*
X225510000Y-159126000D01*
X225490315Y-159193039D01*
X225437511Y-159238794D01*
X225386000Y-159250000D01*
X224518000Y-159250000D01*
X224450961Y-159230315D01*
X224443600Y-159225200D01*
X224370002Y-159170002D01*
X224369989Y-159169993D01*
X224289999Y-159119998D01*
X224200022Y-159080010D01*
X224199994Y-159079999D01*
X224090004Y-159040001D01*
X224009999Y-159020000D01*
X223949992Y-159009999D01*
X223809998Y-159000000D01*
X151200001Y-159000000D01*
X151060010Y-159009998D01*
X151060003Y-159009999D01*
X151000002Y-159019999D01*
X150920003Y-159039999D01*
X150810011Y-159079995D01*
X150810004Y-159079998D01*
X150719999Y-159120000D01*
X150640008Y-159169993D01*
X150566400Y-159225200D01*
X150500957Y-159249676D01*
X150492000Y-159250000D01*
X149624000Y-159250000D01*
X149556961Y-159230315D01*
X149511206Y-159177511D01*
X149500000Y-159126000D01*
X149500000Y-159000000D01*
X145000000Y-159000000D01*
X145000000Y-159126000D01*
X144980315Y-159193039D01*
X144927511Y-159238794D01*
X144876000Y-159250000D01*
X143124000Y-159250000D01*
X143056961Y-159230315D01*
X143011206Y-159177511D01*
X143000000Y-159126000D01*
X143000000Y-158001526D01*
X143000037Y-157998490D01*
X143002145Y-157912421D01*
X143004491Y-157891266D01*
X143038360Y-157720993D01*
X143045416Y-157697731D01*
X143111271Y-157538745D01*
X143122730Y-157517307D01*
X143218335Y-157374224D01*
X143233756Y-157355434D01*
X143355434Y-157233756D01*
X143374224Y-157218335D01*
X143517307Y-157122730D01*
X143538745Y-157111271D01*
X143697731Y-157045416D01*
X143720993Y-157038360D01*
X143891266Y-157004491D01*
X143912421Y-157002145D01*
X143998491Y-157000037D01*
X144001527Y-157000000D01*
X230998473Y-157000000D01*
X231001509Y-157000037D01*
G37*
G36*
X225443039Y-218019685D02*
G01*
X225488794Y-218072489D01*
X225500000Y-218124000D01*
X225500000Y-219999999D01*
X225500897Y-220000896D01*
X225564884Y-220019685D01*
X225610639Y-220072489D01*
X225620583Y-220141647D01*
X225591558Y-220205203D01*
X225532780Y-220242977D01*
X225522035Y-220245618D01*
X225511980Y-220247618D01*
X225487790Y-220250000D01*
X223812211Y-220250000D01*
X223788021Y-220247618D01*
X223777966Y-220245618D01*
X223716054Y-220213233D01*
X223681480Y-220152517D01*
X223685219Y-220082748D01*
X223726085Y-220026076D01*
X223791103Y-220000494D01*
X223797783Y-220000195D01*
X223797779Y-220000079D01*
X223799998Y-219999999D01*
X223939994Y-219990000D01*
X223999996Y-219980000D01*
X224079998Y-219959999D01*
X224189988Y-219920004D01*
X224189995Y-219920001D01*
X224280000Y-219879999D01*
X224359991Y-219830006D01*
X224439997Y-219770001D01*
X224507106Y-219707105D01*
X224570000Y-219639999D01*
X224570001Y-219639998D01*
X224630001Y-219559997D01*
X224690001Y-219459996D01*
X224690003Y-219459992D01*
X224730002Y-219369994D01*
X224730004Y-219369989D01*
X224759998Y-219280009D01*
X224790000Y-219149996D01*
X224781088Y-218125078D01*
X224800189Y-218057870D01*
X224852593Y-218011658D01*
X224905083Y-218000000D01*
X225376000Y-218000000D01*
X225443039Y-218019685D01*
G37*
G36*
X144917254Y-213685220D02*
G01*
X144973926Y-213726087D01*
X144999507Y-213791105D01*
X144999804Y-213797783D01*
X144999921Y-213797779D01*
X145000000Y-213799998D01*
X145009999Y-213939994D01*
X145019999Y-213999996D01*
X145040000Y-214079998D01*
X145079995Y-214189988D01*
X145079998Y-214189995D01*
X145120000Y-214280000D01*
X145169993Y-214359991D01*
X145229998Y-214439997D01*
X145292894Y-214507106D01*
X145360000Y-214570000D01*
X145360001Y-214570001D01*
X145440002Y-214630001D01*
X145540003Y-214690001D01*
X145540007Y-214690003D01*
X145630005Y-214730002D01*
X145630010Y-214730004D01*
X145719990Y-214759998D01*
X145850003Y-214790000D01*
X146874922Y-214781087D01*
X146942130Y-214800188D01*
X146988342Y-214852592D01*
X147000000Y-214905082D01*
X147000000Y-215376000D01*
X146980315Y-215443039D01*
X146927511Y-215488794D01*
X146876000Y-215500000D01*
X145000000Y-215500000D01*
X144999103Y-215500898D01*
X144980315Y-215564883D01*
X144927511Y-215610638D01*
X144858353Y-215620582D01*
X144794797Y-215591557D01*
X144757023Y-215532779D01*
X144754383Y-215522037D01*
X144752383Y-215511983D01*
X144750000Y-215487790D01*
X144750000Y-213812210D01*
X144752383Y-213788017D01*
X144754383Y-213777963D01*
X144786769Y-213716053D01*
X144847485Y-213681479D01*
X144917254Y-213685220D01*
G37*
G36*
X230205203Y-163408442D02*
G01*
X230242977Y-163467220D01*
X230245617Y-163477962D01*
X230247617Y-163488016D01*
X230250000Y-163512209D01*
X230250000Y-164876000D01*
X230230315Y-164943039D01*
X230177511Y-164988794D01*
X230126000Y-165000000D01*
X230075944Y-165000000D01*
X230008905Y-164980315D01*
X229963150Y-164927511D01*
X229959409Y-164918376D01*
X229920004Y-164810011D01*
X229920001Y-164810004D01*
X229879999Y-164719999D01*
X229830006Y-164640008D01*
X229770001Y-164560002D01*
X229707105Y-164492893D01*
X229639999Y-164429999D01*
X229639998Y-164429998D01*
X229559997Y-164369998D01*
X229459996Y-164309998D01*
X229459992Y-164309996D01*
X229369994Y-164269997D01*
X229369989Y-164269995D01*
X229280009Y-164240001D01*
X229149996Y-164209999D01*
X228125078Y-164218912D01*
X228057870Y-164199811D01*
X228011658Y-164147407D01*
X228000000Y-164094917D01*
X228000000Y-163623999D01*
X228019685Y-163556960D01*
X228072489Y-163511205D01*
X228124000Y-163499999D01*
X229999999Y-163499999D01*
X230000896Y-163499102D01*
X230019685Y-163435116D01*
X230072489Y-163389361D01*
X230141647Y-163379417D01*
X230205203Y-163408442D01*
G37*
G36*
X231943039Y-177019685D02*
G01*
X231988794Y-177072489D01*
X232000000Y-177124000D01*
X232000000Y-183376000D01*
X231980315Y-183443039D01*
X231927511Y-183488794D01*
X231876000Y-183500000D01*
X230124000Y-183500000D01*
X230056961Y-183480315D01*
X230011206Y-183427511D01*
X230000000Y-183376000D01*
X230000000Y-177124000D01*
X230019685Y-177056961D01*
X230072489Y-177011206D01*
X230124000Y-177000000D01*
X231876000Y-177000000D01*
X231943039Y-177019685D01*
G37*
M02*
