%TF.GenerationSoftware,KiCad,Pcbnew,8.0.1*%
%TF.CreationDate,2024-04-14T19:48:44+02:00*%
%TF.ProjectId,start_1,73746172-745f-4312-9e6b-696361645f70,rev?*%
%TF.SameCoordinates,Original*%
%TF.FileFunction,Soldermask,Top*%
%TF.FilePolarity,Negative*%
%FSLAX46Y46*%
G04 Gerber Fmt 4.6, Leading zero omitted, Abs format (unit mm)*
G04 Created by KiCad (PCBNEW 8.0.1) date 2024-04-14 19:48:44*
%MOMM*%
%LPD*%
G01*
G04 APERTURE LIST*
G04 Aperture macros list*
%AMRoundRect*
0 Rectangle with rounded corners*
0 $1 Rounding radius*
0 $2 $3 $4 $5 $6 $7 $8 $9 X,Y pos of 4 corners*
0 Add a 4 corners polygon primitive as box body*
4,1,4,$2,$3,$4,$5,$6,$7,$8,$9,$2,$3,0*
0 Add four circle primitives for the rounded corners*
1,1,$1+$1,$2,$3*
1,1,$1+$1,$4,$5*
1,1,$1+$1,$6,$7*
1,1,$1+$1,$8,$9*
0 Add four rect primitives between the rounded corners*
20,1,$1+$1,$2,$3,$4,$5,0*
20,1,$1+$1,$4,$5,$6,$7,0*
20,1,$1+$1,$6,$7,$8,$9,0*
20,1,$1+$1,$8,$9,$2,$3,0*%
%AMFreePoly0*
4,1,9,3.862500,-0.866500,0.737500,-0.866500,0.737500,-0.450000,-0.737500,-0.450000,-0.737500,0.450000,0.737500,0.450000,0.737500,0.866500,3.862500,0.866500,3.862500,-0.866500,3.862500,-0.866500,$1*%
G04 Aperture macros list end*
%ADD10C,0.300000*%
%ADD11R,0.355600X1.016000*%
%ADD12R,1.016000X0.355600*%
%ADD13R,2.108200X2.108200*%
%ADD14R,6.310000X5.810000*%
%ADD15RoundRect,0.050000X-0.387500X0.050000X-0.387500X-0.050000X0.387500X-0.050000X0.387500X0.050000X0*%
%ADD16RoundRect,0.050000X-0.050000X0.387500X-0.050000X-0.387500X0.050000X-0.387500X0.050000X0.387500X0*%
%ADD17RoundRect,0.100000X-0.100000X0.130000X-0.100000X-0.130000X0.100000X-0.130000X0.100000X0.130000X0*%
%ADD18RoundRect,0.100000X-0.130000X-0.100000X0.130000X-0.100000X0.130000X0.100000X-0.130000X0.100000X0*%
%ADD19RoundRect,0.225000X-0.425000X-0.225000X0.425000X-0.225000X0.425000X0.225000X-0.425000X0.225000X0*%
%ADD20FreePoly0,0.000000*%
%ADD21R,2.400000X2.900000*%
%ADD22C,0.800000*%
%ADD23C,6.400000*%
%ADD24R,1.700000X1.600000*%
%ADD25R,0.600000X0.950000*%
%ADD26R,0.950000X0.600000*%
%ADD27R,1.600000X1.600000*%
%ADD28R,3.100000X2.350000*%
%ADD29R,5.080000X2.290000*%
%ADD30R,5.080000X2.420000*%
%ADD31RoundRect,0.250000X-1.100000X0.325000X-1.100000X-0.325000X1.100000X-0.325000X1.100000X0.325000X0*%
%ADD32RoundRect,0.140000X-0.170000X0.140000X-0.170000X-0.140000X0.170000X-0.140000X0.170000X0.140000X0*%
%ADD33C,0.500000*%
%ADD34RoundRect,0.225000X-0.225000X-0.250000X0.225000X-0.250000X0.225000X0.250000X-0.225000X0.250000X0*%
%ADD35RoundRect,0.100000X0.100000X-0.130000X0.100000X0.130000X-0.100000X0.130000X-0.100000X-0.130000X0*%
%ADD36RoundRect,0.135000X-0.135000X-0.185000X0.135000X-0.185000X0.135000X0.185000X-0.135000X0.185000X0*%
%ADD37RoundRect,0.135000X0.135000X0.185000X-0.135000X0.185000X-0.135000X-0.185000X0.135000X-0.185000X0*%
%ADD38RoundRect,0.250000X0.325000X1.100000X-0.325000X1.100000X-0.325000X-1.100000X0.325000X-1.100000X0*%
%ADD39RoundRect,0.147500X-0.147500X-0.172500X0.147500X-0.172500X0.147500X0.172500X-0.147500X0.172500X0*%
%ADD40RoundRect,0.140000X-0.140000X-0.170000X0.140000X-0.170000X0.140000X0.170000X-0.140000X0.170000X0*%
%ADD41RoundRect,0.218750X0.218750X0.256250X-0.218750X0.256250X-0.218750X-0.256250X0.218750X-0.256250X0*%
%ADD42R,0.736600X1.447800*%
%ADD43R,0.600000X0.200000*%
%ADD44R,0.750000X1.250000*%
%ADD45RoundRect,0.135000X-0.185000X0.135000X-0.185000X-0.135000X0.185000X-0.135000X0.185000X0.135000X0*%
%ADD46R,1.400000X1.150000*%
%ADD47C,1.549400*%
%ADD48R,0.990600X2.743200*%
%ADD49R,2.300000X0.700000*%
%ADD50O,3.800000X1.800000*%
%ADD51RoundRect,0.140000X0.170000X-0.140000X0.170000X0.140000X-0.170000X0.140000X-0.170000X-0.140000X0*%
%ADD52RoundRect,0.135000X0.185000X-0.135000X0.185000X0.135000X-0.185000X0.135000X-0.185000X-0.135000X0*%
%ADD53R,0.300000X0.300000*%
%ADD54R,0.250000X0.250000*%
%ADD55R,0.760000X1.650000*%
%ADD56RoundRect,0.250000X1.100000X-0.325000X1.100000X0.325000X-1.100000X0.325000X-1.100000X-0.325000X0*%
%ADD57RoundRect,0.140000X0.140000X0.170000X-0.140000X0.170000X-0.140000X-0.170000X0.140000X-0.170000X0*%
%ADD58R,0.330000X0.410000*%
%ADD59C,0.355600*%
%ADD60R,1.200000X1.400000*%
%ADD61R,0.508000X0.254000*%
%ADD62R,0.406400X0.254000*%
%ADD63R,0.660400X0.508000*%
%ADD64RoundRect,0.147500X0.147500X0.172500X-0.147500X0.172500X-0.147500X-0.172500X0.147500X-0.172500X0*%
G04 APERTURE END LIST*
D10*
X184355463Y-169839638D02*
X184355463Y-167839638D01*
X184355463Y-167839638D02*
X185388796Y-169268209D01*
X185388796Y-169268209D02*
X186422129Y-167839638D01*
X186422129Y-167839638D02*
X186422129Y-169839638D01*
X187898320Y-169649161D02*
X188045939Y-169744400D01*
X188045939Y-169744400D02*
X187898320Y-169839638D01*
X187898320Y-169839638D02*
X187750701Y-169744400D01*
X187750701Y-169744400D02*
X187898320Y-169649161D01*
X187898320Y-169649161D02*
X187898320Y-169839638D01*
X189374510Y-169839638D02*
X189374510Y-167839638D01*
X189374510Y-167839638D02*
X190555462Y-167839638D01*
X190555462Y-167839638D02*
X190850700Y-167934876D01*
X190850700Y-167934876D02*
X190998319Y-168030114D01*
X190998319Y-168030114D02*
X191145938Y-168220590D01*
X191145938Y-168220590D02*
X191145938Y-168506304D01*
X191145938Y-168506304D02*
X190998319Y-168696780D01*
X190998319Y-168696780D02*
X190850700Y-168792019D01*
X190850700Y-168792019D02*
X190555462Y-168887257D01*
X190555462Y-168887257D02*
X189374510Y-168887257D01*
D11*
%TO.C,IC5*%
X213965200Y-163196600D03*
X213330200Y-163196600D03*
X212669800Y-163196600D03*
X212034800Y-163196600D03*
D12*
X211196600Y-164034800D03*
X211196600Y-164669800D03*
X211196600Y-165330200D03*
X211196600Y-165965200D03*
D11*
X212034800Y-166803400D03*
X212669800Y-166803400D03*
X213330200Y-166803400D03*
X213965200Y-166803400D03*
D12*
X214803400Y-165965200D03*
X214803400Y-165330200D03*
X214803400Y-164669800D03*
X214803400Y-164034800D03*
D13*
X213000000Y-165000000D03*
%TD*%
D11*
%TO.C,IC4*%
X202875600Y-163196600D03*
X202240600Y-163196600D03*
X201580200Y-163196600D03*
X200945200Y-163196600D03*
D12*
X200107000Y-164034800D03*
X200107000Y-164669800D03*
X200107000Y-165330200D03*
X200107000Y-165965200D03*
D11*
X200945200Y-166803400D03*
X201580200Y-166803400D03*
X202240600Y-166803400D03*
X202875600Y-166803400D03*
D12*
X203713800Y-165965200D03*
X203713800Y-165330200D03*
X203713800Y-164669800D03*
X203713800Y-164034800D03*
D13*
X201910400Y-165000000D03*
%TD*%
D14*
%TO.C,U4*%
X161000000Y-189500000D03*
D15*
X165437500Y-185900000D03*
X165437500Y-186300000D03*
X165437500Y-186700000D03*
X165437500Y-187100000D03*
X165437500Y-187500000D03*
X165437500Y-187900000D03*
X165437500Y-188300000D03*
X165437500Y-188700000D03*
X165437500Y-189100000D03*
X165437500Y-189500000D03*
X165437500Y-189900000D03*
X165437500Y-190300000D03*
X165437500Y-190700000D03*
X165437500Y-191100000D03*
X165437500Y-191500000D03*
X165437500Y-191900000D03*
X165437500Y-192300000D03*
X165437500Y-192700000D03*
X165437500Y-193100000D03*
D16*
X164600000Y-193937500D03*
X164200000Y-193937500D03*
X163800000Y-193937500D03*
X163400000Y-193937500D03*
X163000000Y-193937500D03*
X162600000Y-193937500D03*
X162200000Y-193937500D03*
X161800000Y-193937500D03*
X161400000Y-193937500D03*
X161000000Y-193937500D03*
X160600000Y-193937500D03*
X160200000Y-193937500D03*
X159800000Y-193937500D03*
X159400000Y-193937500D03*
X159000000Y-193937500D03*
X158600000Y-193937500D03*
X158200000Y-193937500D03*
X157800000Y-193937500D03*
X157400000Y-193937500D03*
D15*
X156562500Y-193100000D03*
X156562500Y-192700000D03*
X156562500Y-192300000D03*
X156562500Y-191900000D03*
X156562500Y-191500000D03*
X156562500Y-191100000D03*
X156562500Y-190700000D03*
X156562500Y-190300000D03*
X156562500Y-189900000D03*
X156562500Y-189500000D03*
X156562500Y-189100000D03*
X156562500Y-188700000D03*
X156562500Y-188300000D03*
X156562500Y-187900000D03*
X156562500Y-187500000D03*
X156562500Y-187100000D03*
X156562500Y-186700000D03*
X156562500Y-186300000D03*
X156562500Y-185900000D03*
D16*
X157400000Y-185062500D03*
X157800000Y-185062500D03*
X158200000Y-185062500D03*
X158600000Y-185062500D03*
X159000000Y-185062500D03*
X159400000Y-185062500D03*
X159800000Y-185062500D03*
X160200000Y-185062500D03*
X160600000Y-185062500D03*
X161000000Y-185062500D03*
X161400000Y-185062500D03*
X161800000Y-185062500D03*
X162200000Y-185062500D03*
X162600000Y-185062500D03*
X163000000Y-185062500D03*
X163400000Y-185062500D03*
X163800000Y-185062500D03*
X164200000Y-185062500D03*
X164600000Y-185062500D03*
%TD*%
D17*
%TO.C,C119*%
X223600000Y-182945000D03*
X223600000Y-182305000D03*
%TD*%
D18*
%TO.C,C98*%
X217090000Y-165850000D03*
X216450000Y-165850000D03*
%TD*%
D19*
%TO.C,U6*%
X219950000Y-177500000D03*
D20*
X220037500Y-179000000D03*
D19*
X219950000Y-180500000D03*
%TD*%
D21*
%TO.C,C76*%
X153200000Y-175500000D03*
X159300000Y-175500000D03*
%TD*%
D22*
%TO.C,H1*%
X225600000Y-218000000D03*
X226302944Y-216302944D03*
X226302944Y-219697056D03*
X228000000Y-215600000D03*
D23*
X228000000Y-218000000D03*
D22*
X228000000Y-220400000D03*
X229697056Y-216302944D03*
X229697056Y-219697056D03*
X230400000Y-218000000D03*
%TD*%
D17*
%TO.C,C105*%
X202750000Y-201975000D03*
X202750000Y-201335000D03*
%TD*%
%TO.C,C116*%
X216000000Y-207040000D03*
X216000000Y-206400000D03*
%TD*%
D24*
%TO.C,IC3*%
X156700000Y-216600000D03*
D25*
X158150000Y-216925000D03*
X159050000Y-216925000D03*
X159950000Y-216925000D03*
X160850000Y-216925000D03*
X161750000Y-216925000D03*
X162650000Y-216925000D03*
X163550000Y-216925000D03*
X164450000Y-216925000D03*
X165350000Y-216925000D03*
D24*
X166800000Y-216600000D03*
D26*
X167175000Y-215200000D03*
X167175000Y-214300000D03*
X167175000Y-213400000D03*
X167175000Y-212500000D03*
X167175000Y-211600000D03*
X167175000Y-210700000D03*
X167175000Y-209800000D03*
D24*
X166800000Y-208400000D03*
D25*
X165350000Y-208075000D03*
X164450000Y-208075000D03*
X163550000Y-208075000D03*
X162650000Y-208075000D03*
X161750000Y-208075000D03*
X160850000Y-208075000D03*
X159950000Y-208075000D03*
X159050000Y-208075000D03*
X158150000Y-208075000D03*
D24*
X156700000Y-208400000D03*
D26*
X156325000Y-209800000D03*
X156325000Y-210700000D03*
X156325000Y-211600000D03*
X156325000Y-212500000D03*
X156325000Y-213400000D03*
X156325000Y-214300000D03*
X156325000Y-215200000D03*
D27*
X159000000Y-212050000D03*
D28*
X164000000Y-214335000D03*
X164000000Y-210665000D03*
%TD*%
D29*
%TO.C,J3*%
X229130000Y-189500000D03*
D30*
X229130000Y-193880000D03*
X229130000Y-185120000D03*
%TD*%
D17*
%TO.C,C104*%
X216100000Y-202420000D03*
X216100000Y-201780000D03*
%TD*%
D31*
%TO.C,C78*%
X174000000Y-210650000D03*
X174000000Y-213600000D03*
%TD*%
D32*
%TO.C,C121*%
X209900000Y-197530000D03*
X209900000Y-198490000D03*
%TD*%
D33*
%TO.C,U1*%
X191000000Y-197000000D03*
X190000000Y-197000000D03*
X189000000Y-197000000D03*
X188000000Y-197000000D03*
X187000000Y-197000000D03*
X186000000Y-197000000D03*
X185000000Y-197000000D03*
X184000000Y-197000000D03*
X183000000Y-197000000D03*
X182000000Y-197000000D03*
X181000000Y-197000000D03*
X180000000Y-197000000D03*
X179000000Y-197000000D03*
X178000000Y-197000000D03*
X177000000Y-197000000D03*
X176000000Y-197000000D03*
X191000000Y-196000000D03*
X190000000Y-196000000D03*
X189000000Y-196000000D03*
X188000000Y-196000000D03*
X187000000Y-196000000D03*
X186000000Y-196000000D03*
X185000000Y-196000000D03*
X184000000Y-196000000D03*
X183000000Y-196000000D03*
X182000000Y-196000000D03*
X181000000Y-196000000D03*
X180000000Y-196000000D03*
X179000000Y-196000000D03*
X178000000Y-196000000D03*
X177000000Y-196000000D03*
X176000000Y-196000000D03*
X191000000Y-195000000D03*
X190000000Y-195000000D03*
X189000000Y-195000000D03*
X188000000Y-195000000D03*
X187000000Y-195000000D03*
X186000000Y-195000000D03*
X185000000Y-195000000D03*
X184000000Y-195000000D03*
X183000000Y-195000000D03*
X182000000Y-195000000D03*
X181000000Y-195000000D03*
X180000000Y-195000000D03*
X179000000Y-195000000D03*
X178000000Y-195000000D03*
X177000000Y-195000000D03*
X176000000Y-195000000D03*
X191000000Y-194000000D03*
X190000000Y-194000000D03*
X189000000Y-194000000D03*
X188000000Y-194000000D03*
X187000000Y-194000000D03*
X186000000Y-194000000D03*
X185000000Y-194000000D03*
X184000000Y-194000000D03*
X183000000Y-194000000D03*
X182000000Y-194000000D03*
X181000000Y-194000000D03*
X180000000Y-194000000D03*
X179000000Y-194000000D03*
X178000000Y-194000000D03*
X177000000Y-194000000D03*
X176000000Y-194000000D03*
X191000000Y-193000000D03*
X190000000Y-193000000D03*
X189000000Y-193000000D03*
X188000000Y-193000000D03*
X187000000Y-193000000D03*
X186000000Y-193000000D03*
X185000000Y-193000000D03*
X184000000Y-193000000D03*
X183000000Y-193000000D03*
X182000000Y-193000000D03*
X181000000Y-193000000D03*
X180000000Y-193000000D03*
X179000000Y-193000000D03*
X178000000Y-193000000D03*
X177000000Y-193000000D03*
X176000000Y-193000000D03*
X191000000Y-192000000D03*
X190000000Y-192000000D03*
X189000000Y-192000000D03*
X188000000Y-192000000D03*
X187000000Y-192000000D03*
X186000000Y-192000000D03*
X185000000Y-192000000D03*
X184000000Y-192000000D03*
X183000000Y-192000000D03*
X182000000Y-192000000D03*
X181000000Y-192000000D03*
X180000000Y-192000000D03*
X179000000Y-192000000D03*
X178000000Y-192000000D03*
X177000000Y-192000000D03*
X176000000Y-192000000D03*
X191000000Y-191000000D03*
X190000000Y-191000000D03*
X189000000Y-191000000D03*
X188000000Y-191000000D03*
X187000000Y-191000000D03*
X186000000Y-191000000D03*
X185000000Y-191000000D03*
X184000000Y-191000000D03*
X183000000Y-191000000D03*
X182000000Y-191000000D03*
X181000000Y-191000000D03*
X180000000Y-191000000D03*
X179000000Y-191000000D03*
X178000000Y-191000000D03*
X177000000Y-191000000D03*
X176000000Y-191000000D03*
X191000000Y-190000000D03*
X190000000Y-190000000D03*
X189000000Y-190000000D03*
X188000000Y-190000000D03*
X187000000Y-190000000D03*
X186000000Y-190000000D03*
X185000000Y-190000000D03*
X184000000Y-190000000D03*
X183000000Y-190000000D03*
X182000000Y-190000000D03*
X181000000Y-190000000D03*
X180000000Y-190000000D03*
X179000000Y-190000000D03*
X178000000Y-190000000D03*
X177000000Y-190000000D03*
X176000000Y-190000000D03*
X191000000Y-189000000D03*
X190000000Y-189000000D03*
X189000000Y-189000000D03*
X188000000Y-189000000D03*
X187000000Y-189000000D03*
X186000000Y-189000000D03*
X185000000Y-189000000D03*
X184000000Y-189000000D03*
X183000000Y-189000000D03*
X182000000Y-189000000D03*
X181000000Y-189000000D03*
X180000000Y-189000000D03*
X179000000Y-189000000D03*
X178000000Y-189000000D03*
X177000000Y-189000000D03*
X176000000Y-189000000D03*
X191000000Y-188000000D03*
X190000000Y-188000000D03*
X189000000Y-188000000D03*
X188000000Y-188000000D03*
X187000000Y-188000000D03*
X186000000Y-188000000D03*
X185000000Y-188000000D03*
X184000000Y-188000000D03*
X183000000Y-188000000D03*
X182000000Y-188000000D03*
X181000000Y-188000000D03*
X180000000Y-188000000D03*
X179000000Y-188000000D03*
X178000000Y-188000000D03*
X177000000Y-188000000D03*
X176000000Y-188000000D03*
X191000000Y-187000000D03*
X190000000Y-187000000D03*
X189000000Y-187000000D03*
X188000000Y-187000000D03*
X187000000Y-187000000D03*
X186000000Y-187000000D03*
X185000000Y-187000000D03*
X184000000Y-187000000D03*
X183000000Y-187000000D03*
X182000000Y-187000000D03*
X181000000Y-187000000D03*
X180000000Y-187000000D03*
X179000000Y-187000000D03*
X178000000Y-187000000D03*
X177000000Y-187000000D03*
X176000000Y-187000000D03*
X191000000Y-186000000D03*
X190000000Y-186000000D03*
X189000000Y-186000000D03*
X188000000Y-186000000D03*
X187000000Y-186000000D03*
X186000000Y-186000000D03*
X185000000Y-186000000D03*
X184000000Y-186000000D03*
X183000000Y-186000000D03*
X182000000Y-186000000D03*
X181000000Y-186000000D03*
X180000000Y-186000000D03*
X179000000Y-186000000D03*
X178000000Y-186000000D03*
X177000000Y-186000000D03*
X176000000Y-186000000D03*
X191000000Y-185000000D03*
X190000000Y-185000000D03*
X189000000Y-185000000D03*
X188000000Y-185000000D03*
X187000000Y-185000000D03*
X186000000Y-185000000D03*
X185000000Y-185000000D03*
X184000000Y-185000000D03*
X183000000Y-185000000D03*
X182000000Y-185000000D03*
X181000000Y-185000000D03*
X180000000Y-185000000D03*
X179000000Y-185000000D03*
X178000000Y-185000000D03*
X177000000Y-185000000D03*
X176000000Y-185000000D03*
X191000000Y-184000000D03*
X190000000Y-184000000D03*
X189000000Y-184000000D03*
X188000000Y-184000000D03*
X187000000Y-184000000D03*
X186000000Y-184000000D03*
X185000000Y-184000000D03*
X184000000Y-184000000D03*
X183000000Y-184000000D03*
X182000000Y-184000000D03*
X181000000Y-184000000D03*
X180000000Y-184000000D03*
X179000000Y-184000000D03*
X178000000Y-184000000D03*
X177000000Y-184000000D03*
X176000000Y-184000000D03*
X191000000Y-183000000D03*
X190000000Y-183000000D03*
X189000000Y-183000000D03*
X188000000Y-183000000D03*
X187000000Y-183000000D03*
X186000000Y-183000000D03*
X185000000Y-183000000D03*
X184000000Y-183000000D03*
X183000000Y-183000000D03*
X182000000Y-183000000D03*
X181000000Y-183000000D03*
X180000000Y-183000000D03*
X179000000Y-183000000D03*
X178000000Y-183000000D03*
X177000000Y-183000000D03*
X176000000Y-183000000D03*
X191000000Y-182000000D03*
X190000000Y-182000000D03*
X189000000Y-182000000D03*
X188000000Y-182000000D03*
X187000000Y-182000000D03*
X186000000Y-182000000D03*
X185000000Y-182000000D03*
X184000000Y-182000000D03*
X183000000Y-182000000D03*
X182000000Y-182000000D03*
X181000000Y-182000000D03*
X180000000Y-182000000D03*
X179000000Y-182000000D03*
X178000000Y-182000000D03*
X177000000Y-182000000D03*
X176000000Y-182000000D03*
%TD*%
D29*
%TO.C,J4*%
X229130000Y-208000000D03*
D30*
X229130000Y-212380000D03*
X229130000Y-203620000D03*
%TD*%
D34*
%TO.C,C93*%
X204582000Y-168850000D03*
X206132000Y-168850000D03*
%TD*%
D35*
%TO.C,C154*%
X206500000Y-181280000D03*
X206500000Y-181920000D03*
%TD*%
%TO.C,C92*%
X209600000Y-164680000D03*
X209600000Y-165320000D03*
%TD*%
D32*
%TO.C,C117*%
X208900000Y-197530000D03*
X208900000Y-198490000D03*
%TD*%
D18*
%TO.C,C89*%
X206020000Y-164350000D03*
X205380000Y-164350000D03*
%TD*%
D36*
%TO.C,R21*%
X181190000Y-218950000D03*
X182210000Y-218950000D03*
%TD*%
D24*
%TO.C,IC1*%
X177950000Y-216600000D03*
D25*
X179400000Y-216925000D03*
X180300000Y-216925000D03*
X181200000Y-216925000D03*
X182100000Y-216925000D03*
X183000000Y-216925000D03*
X183900000Y-216925000D03*
X184800000Y-216925000D03*
X185700000Y-216925000D03*
X186600000Y-216925000D03*
D24*
X188050000Y-216600000D03*
D26*
X188425000Y-215200000D03*
X188425000Y-214300000D03*
X188425000Y-213400000D03*
X188425000Y-212500000D03*
X188425000Y-211600000D03*
X188425000Y-210700000D03*
X188425000Y-209800000D03*
D24*
X188050000Y-208400000D03*
D25*
X186600000Y-208075000D03*
X185700000Y-208075000D03*
X184800000Y-208075000D03*
X183900000Y-208075000D03*
X183000000Y-208075000D03*
X182100000Y-208075000D03*
X181200000Y-208075000D03*
X180300000Y-208075000D03*
X179400000Y-208075000D03*
D24*
X177950000Y-208400000D03*
D26*
X177575000Y-209800000D03*
X177575000Y-210700000D03*
X177575000Y-211600000D03*
X177575000Y-212500000D03*
X177575000Y-213400000D03*
X177575000Y-214300000D03*
X177575000Y-215200000D03*
D27*
X180250000Y-212050000D03*
D28*
X185250000Y-214335000D03*
X185250000Y-210665000D03*
%TD*%
D37*
%TO.C,R32*%
X210226400Y-168600000D03*
X209206400Y-168600000D03*
%TD*%
D17*
%TO.C,C103*%
X215350000Y-202420000D03*
X215350000Y-201780000D03*
%TD*%
D36*
%TO.C,R23*%
X159890000Y-219000000D03*
X160910000Y-219000000D03*
%TD*%
D18*
%TO.C,C97*%
X205980400Y-165850000D03*
X205340400Y-165850000D03*
%TD*%
D38*
%TO.C,C83*%
X167725000Y-201000000D03*
X164775000Y-201000000D03*
%TD*%
D39*
%TO.C,FB6*%
X224815000Y-181200000D03*
X225785000Y-181200000D03*
%TD*%
D40*
%TO.C,C115*%
X208920000Y-206530000D03*
X209880000Y-206530000D03*
%TD*%
D21*
%TO.C,C85*%
X173050000Y-175600000D03*
X166950000Y-175600000D03*
%TD*%
D40*
%TO.C,C113*%
X217220000Y-209600000D03*
X218180000Y-209600000D03*
%TD*%
D41*
%TO.C,L3*%
X221487500Y-182300000D03*
X219912500Y-182300000D03*
%TD*%
D42*
%TO.C,T3*%
X213230000Y-177523600D03*
X214500000Y-177523600D03*
X215770000Y-177523600D03*
X215770000Y-180876400D03*
X214500000Y-180876400D03*
X213230000Y-180876400D03*
%TD*%
D43*
%TO.C,S1*%
X216050000Y-209600000D03*
X216050000Y-209200000D03*
X216050000Y-208800000D03*
X216050000Y-208400000D03*
X214350000Y-208400000D03*
X214350000Y-208800000D03*
X214350000Y-209200000D03*
X214350000Y-209600000D03*
D44*
X215200000Y-209000000D03*
%TD*%
D17*
%TO.C,C109*%
X216800000Y-185120000D03*
X216800000Y-184480000D03*
%TD*%
D45*
%TO.C,R24*%
X175500000Y-214980000D03*
X175500000Y-216000000D03*
%TD*%
D22*
%TO.C,H2*%
X144600000Y-218000000D03*
X145302944Y-216302944D03*
X145302944Y-219697056D03*
X147000000Y-215600000D03*
D23*
X147000000Y-218000000D03*
D22*
X147000000Y-220400000D03*
X148697056Y-216302944D03*
X148697056Y-219697056D03*
X149400000Y-218000000D03*
%TD*%
D34*
%TO.C,C125*%
X225725000Y-179900000D03*
X227275000Y-179900000D03*
%TD*%
D17*
%TO.C,C106*%
X203500000Y-201975000D03*
X203500000Y-201335000D03*
%TD*%
D46*
%TO.C,Y2*%
X207900000Y-181925000D03*
X210100000Y-181925000D03*
X210100000Y-180325000D03*
X207900000Y-180325000D03*
%TD*%
D47*
%TO.C,J1*%
X179700000Y-163000000D03*
X189700000Y-163000000D03*
D48*
X178699999Y-165130001D03*
X178699999Y-160869999D03*
X180700000Y-165130001D03*
X180700000Y-160869999D03*
X182699999Y-165130001D03*
X182699999Y-160869999D03*
X184700000Y-165130001D03*
X184700000Y-160869999D03*
X186700001Y-165130001D03*
X186700001Y-160869999D03*
X188700000Y-165130001D03*
X188700000Y-160869999D03*
X190700001Y-165130001D03*
X190700001Y-160869999D03*
%TD*%
D49*
%TO.C,J2*%
X147500000Y-192500000D03*
X147500000Y-190500000D03*
X147500000Y-188500000D03*
X147500000Y-186500000D03*
X147500000Y-185500000D03*
X147500000Y-187500000D03*
X147500000Y-189500000D03*
X147500000Y-191500000D03*
X147500000Y-193500000D03*
D50*
X145300000Y-183650000D03*
X145300000Y-195350000D03*
%TD*%
D34*
%TO.C,C87*%
X204025000Y-161400000D03*
X205575000Y-161400000D03*
%TD*%
D36*
%TO.C,R22*%
X160835585Y-171700001D03*
X161855585Y-171700001D03*
%TD*%
D32*
%TO.C,C118*%
X222700000Y-182320000D03*
X222700000Y-183280000D03*
%TD*%
D51*
%TO.C,C108*%
X214000000Y-183560000D03*
X214000000Y-182600000D03*
%TD*%
D31*
%TO.C,C81*%
X191500000Y-216025000D03*
X191500000Y-218975000D03*
%TD*%
D34*
%TO.C,C94*%
X215725000Y-168850000D03*
X217275000Y-168850000D03*
%TD*%
D52*
%TO.C,R26*%
X155245585Y-167210001D03*
X155245585Y-166190001D03*
%TD*%
D18*
%TO.C,C114*%
X205320000Y-207000000D03*
X204680000Y-207000000D03*
%TD*%
D22*
%TO.C,H4*%
X144600000Y-161000000D03*
X145302944Y-159302944D03*
X145302944Y-162697056D03*
X147000000Y-158600000D03*
D23*
X147000000Y-161000000D03*
D22*
X147000000Y-163400000D03*
X148697056Y-159302944D03*
X148697056Y-162697056D03*
X149400000Y-161000000D03*
%TD*%
D37*
%TO.C,R29*%
X201127000Y-168600000D03*
X200107000Y-168600000D03*
%TD*%
D53*
%TO.C,FL1*%
X215445000Y-204725000D03*
D54*
X215970000Y-204700000D03*
X215970000Y-204200000D03*
X215470000Y-204200000D03*
%TD*%
D34*
%TO.C,C88*%
X215125000Y-161400000D03*
X216675000Y-161400000D03*
%TD*%
D17*
%TO.C,C100*%
X212100000Y-185120000D03*
X212100000Y-184480000D03*
%TD*%
D45*
%TO.C,R27*%
X154250000Y-213980000D03*
X154250000Y-215000000D03*
%TD*%
D38*
%TO.C,C86*%
X167725000Y-204500000D03*
X164775000Y-204500000D03*
%TD*%
D45*
%TO.C,R19*%
X158400000Y-181500000D03*
X158400000Y-182520000D03*
%TD*%
D55*
%TO.C,T1*%
X210670000Y-204080000D03*
X209400000Y-204080000D03*
X208130000Y-204080000D03*
X208130000Y-200900000D03*
X210670000Y-200900000D03*
%TD*%
D40*
%TO.C,C110*%
X217420000Y-177500000D03*
X218380000Y-177500000D03*
%TD*%
D56*
%TO.C,C82*%
X173500000Y-167475000D03*
X173500000Y-164525000D03*
%TD*%
D37*
%TO.C,R30*%
X199127000Y-168600000D03*
X198107000Y-168600000D03*
%TD*%
D57*
%TO.C,C122*%
X225480000Y-182300000D03*
X224520000Y-182300000D03*
%TD*%
D37*
%TO.C,R31*%
X212206600Y-168600000D03*
X211186600Y-168600000D03*
%TD*%
D58*
%TO.C,T2*%
X203620000Y-205220000D03*
X203620000Y-204560000D03*
X203620000Y-203900000D03*
X202630000Y-203900000D03*
X202630000Y-204560000D03*
X202630000Y-205220000D03*
%TD*%
D34*
%TO.C,C95*%
X204582000Y-170500000D03*
X206132000Y-170500000D03*
%TD*%
D29*
%TO.C,J5*%
X229130000Y-171000000D03*
D30*
X229130000Y-175380000D03*
X229130000Y-166620000D03*
%TD*%
D35*
%TO.C,C91*%
X198500000Y-164680000D03*
X198500000Y-165320000D03*
%TD*%
%TO.C,C74*%
X159400000Y-181880000D03*
X159400000Y-182520000D03*
%TD*%
D51*
%TO.C,C107*%
X214950000Y-183560000D03*
X214950000Y-182600000D03*
%TD*%
D59*
%TO.C,U5*%
X201800000Y-193800000D03*
X201800000Y-193000000D03*
X201800000Y-192200000D03*
X201800000Y-191400000D03*
X201800000Y-190600000D03*
X201800000Y-189800000D03*
X201800000Y-189000000D03*
X201800000Y-188200000D03*
X201800000Y-187400000D03*
X201800000Y-186600001D03*
X201800000Y-185800001D03*
X201800000Y-185000001D03*
X202600000Y-193800000D03*
X202600000Y-193000000D03*
X202600000Y-192200000D03*
X202600000Y-191400000D03*
X202600000Y-190600000D03*
X202600000Y-189800000D03*
X202600000Y-189000000D03*
X202600000Y-188200000D03*
X202600000Y-187400000D03*
X202600000Y-186600001D03*
X202600000Y-185800001D03*
X202600000Y-185000001D03*
X203400000Y-193800000D03*
X203400000Y-193000000D03*
X203400000Y-192200000D03*
X203400000Y-191400000D03*
X203400000Y-190600000D03*
X203400000Y-189800000D03*
X203400000Y-189000000D03*
X203400000Y-188200000D03*
X203400000Y-187400000D03*
X203400000Y-186600001D03*
X203400000Y-185800001D03*
X203400000Y-185000001D03*
X204200000Y-193800000D03*
X204200000Y-193000000D03*
X204200000Y-192200000D03*
X204200000Y-191400000D03*
X204200000Y-190600000D03*
X204200000Y-189800000D03*
X204200000Y-189000000D03*
X204200000Y-188200000D03*
X204200000Y-187400000D03*
X204200000Y-186600001D03*
X204200000Y-185800001D03*
X204200000Y-185000001D03*
X205000000Y-193800000D03*
X205000000Y-193000000D03*
X205000000Y-192200000D03*
X205000000Y-191400000D03*
X205000000Y-190600000D03*
X205000000Y-189800000D03*
X205000000Y-189000000D03*
X205000000Y-188200000D03*
X205000000Y-187400000D03*
X205000000Y-186600001D03*
X205000000Y-185800001D03*
X205000000Y-185000001D03*
X205800000Y-193800000D03*
X205800000Y-193000000D03*
X205800000Y-192200000D03*
X205800000Y-191400000D03*
X205800000Y-190600000D03*
X205800000Y-189800000D03*
X205800000Y-189000000D03*
X205800000Y-188200000D03*
X205800000Y-187400000D03*
X205800000Y-186600001D03*
X205800000Y-185800001D03*
X205800000Y-185000001D03*
X206600000Y-193800000D03*
X206600000Y-193000000D03*
X206600000Y-192200000D03*
X206600000Y-191400000D03*
X206600000Y-190600000D03*
X206600000Y-189800000D03*
X206600000Y-189000000D03*
X206600000Y-188200000D03*
X206600000Y-187400000D03*
X206600000Y-186600001D03*
X206600000Y-185800001D03*
X206600000Y-185000001D03*
X207400000Y-193800000D03*
X207400000Y-193000000D03*
X207400000Y-192200000D03*
X207400000Y-191400000D03*
X207400000Y-190600000D03*
X207400000Y-189800000D03*
X207400000Y-189000000D03*
X207400000Y-188200000D03*
X207400000Y-187400000D03*
X207400000Y-186600001D03*
X207400000Y-185800001D03*
X207400000Y-185000001D03*
X208200000Y-193800000D03*
X208200000Y-193000000D03*
X208200000Y-192200000D03*
X208200000Y-191400000D03*
X208200000Y-190600000D03*
X208200000Y-189800000D03*
X208200000Y-189000000D03*
X208200000Y-188200000D03*
X208200000Y-187400000D03*
X208200000Y-186600001D03*
X208200000Y-185800001D03*
X208200000Y-185000001D03*
X208999999Y-193800000D03*
X208999999Y-193000000D03*
X208999999Y-192200000D03*
X208999999Y-191400000D03*
X208999999Y-190600000D03*
X208999999Y-189800000D03*
X208999999Y-189000000D03*
X208999999Y-188200000D03*
X208999999Y-187400000D03*
X208999999Y-186600001D03*
X208999999Y-185800001D03*
X208999999Y-185000001D03*
X209799999Y-193800000D03*
X209799999Y-193000000D03*
X209799999Y-192200000D03*
X209799999Y-191400000D03*
X209799999Y-190600000D03*
X209799999Y-189800000D03*
X209799999Y-189000000D03*
X209799999Y-188200000D03*
X209799999Y-187400000D03*
X209799999Y-186600001D03*
X209799999Y-185800001D03*
X209799999Y-185000001D03*
X210599999Y-193800000D03*
X210599999Y-193000000D03*
X210599999Y-192200000D03*
X210599999Y-191400000D03*
X210599999Y-190600000D03*
X210599999Y-189800000D03*
X210599999Y-189000000D03*
X210599999Y-188200000D03*
X210599999Y-187400000D03*
X210599999Y-186600001D03*
X210599999Y-185800001D03*
X210599999Y-185000001D03*
%TD*%
D21*
%TO.C,C75*%
X172950000Y-203250000D03*
X179050000Y-203250000D03*
%TD*%
D38*
%TO.C,C79*%
X151975000Y-166000000D03*
X149025000Y-166000000D03*
%TD*%
D34*
%TO.C,C96*%
X215725000Y-170500000D03*
X217275000Y-170500000D03*
%TD*%
D45*
%TO.C,R18*%
X157400000Y-181490000D03*
X157400000Y-182510000D03*
%TD*%
D32*
%TO.C,C111*%
X219900000Y-183520000D03*
X219900000Y-184480000D03*
%TD*%
D38*
%TO.C,C80*%
X150975000Y-210000000D03*
X148025000Y-210000000D03*
%TD*%
D52*
%TO.C,R35*%
X224100000Y-171010000D03*
X224100000Y-169990000D03*
%TD*%
D39*
%TO.C,L1*%
X213030000Y-184500000D03*
X214000000Y-184500000D03*
%TD*%
D18*
%TO.C,C60*%
X154500000Y-190200000D03*
X153860000Y-190200000D03*
%TD*%
D60*
%TO.C,Y1*%
X153150000Y-181400000D03*
X153150000Y-183600000D03*
X154850000Y-183600000D03*
X154850000Y-181400000D03*
%TD*%
D21*
%TO.C,C84*%
X190048972Y-203250000D03*
X183948972Y-203250000D03*
%TD*%
D18*
%TO.C,C90*%
X217070000Y-164350000D03*
X216430000Y-164350000D03*
%TD*%
D21*
%TO.C,C77*%
X152000000Y-203050000D03*
X158100000Y-203050000D03*
%TD*%
D45*
%TO.C,R28*%
X154250000Y-216055000D03*
X154250000Y-217075000D03*
%TD*%
D61*
%TO.C,U3*%
X152000000Y-188430000D03*
D62*
X151949200Y-188829999D03*
X151949200Y-189230001D03*
X151949200Y-189630000D03*
X151949200Y-190030000D03*
X151949200Y-190429999D03*
X151949200Y-190830001D03*
X151949200Y-191230000D03*
D63*
X152622198Y-190424999D03*
X152622198Y-189235001D03*
%TD*%
D64*
%TO.C,L2*%
X215870000Y-184500000D03*
X214900000Y-184500000D03*
%TD*%
D22*
%TO.C,H3*%
X225600000Y-161000000D03*
X226302944Y-159302944D03*
X226302944Y-162697056D03*
X228000000Y-158600000D03*
D23*
X228000000Y-161000000D03*
D22*
X228000000Y-163400000D03*
X229697056Y-159302944D03*
X229697056Y-162697056D03*
X230400000Y-161000000D03*
%TD*%
D24*
%TO.C,IC2*%
X157695585Y-169400001D03*
D25*
X159145585Y-169725001D03*
X160045585Y-169725001D03*
X160945585Y-169725001D03*
X161845585Y-169725001D03*
X162745585Y-169725001D03*
X163645585Y-169725001D03*
X164545585Y-169725001D03*
X165445585Y-169725001D03*
X166345585Y-169725001D03*
D24*
X167795585Y-169400001D03*
D26*
X168170585Y-168000001D03*
X168170585Y-167100001D03*
X168170585Y-166200001D03*
X168170585Y-165300001D03*
X168170585Y-164400001D03*
X168170585Y-163500001D03*
X168170585Y-162600001D03*
D24*
X167795585Y-161200001D03*
D25*
X166345585Y-160875001D03*
X165445585Y-160875001D03*
X164545585Y-160875001D03*
X163645585Y-160875001D03*
X162745585Y-160875001D03*
X161845585Y-160875001D03*
X160945585Y-160875001D03*
X160045585Y-160875001D03*
X159145585Y-160875001D03*
D24*
X157695585Y-161200001D03*
D26*
X157320585Y-162600001D03*
X157320585Y-163500001D03*
X157320585Y-164400001D03*
X157320585Y-165300001D03*
X157320585Y-166200001D03*
X157320585Y-167100001D03*
X157320585Y-168000001D03*
D27*
X159995585Y-164850001D03*
D28*
X164995585Y-167135001D03*
X164995585Y-163465001D03*
%TD*%
D18*
%TO.C,C59*%
X154500000Y-189500000D03*
X153860000Y-189500000D03*
%TD*%
D45*
%TO.C,R25*%
X175500000Y-216980000D03*
X175500000Y-218000000D03*
%TD*%
G36*
X144943039Y-196019685D02*
G01*
X144988794Y-196072489D01*
X145000000Y-196124000D01*
X145000000Y-213799998D01*
X145009999Y-213939994D01*
X145019999Y-213999996D01*
X145040000Y-214079998D01*
X145079995Y-214189988D01*
X145079998Y-214189995D01*
X145120000Y-214280000D01*
X145169993Y-214359991D01*
X145225200Y-214433599D01*
X145249676Y-214499041D01*
X145250000Y-214507999D01*
X145250000Y-215376000D01*
X145230315Y-215443039D01*
X145177511Y-215488794D01*
X145126001Y-215500000D01*
X145000000Y-215500000D01*
X145000000Y-220000000D01*
X145126000Y-220000000D01*
X145193039Y-220019685D01*
X145238794Y-220072489D01*
X145250000Y-220124000D01*
X145250000Y-221876000D01*
X145230315Y-221943039D01*
X145177511Y-221988794D01*
X145126000Y-222000000D01*
X144001527Y-222000000D01*
X143998490Y-221999963D01*
X143912420Y-221997854D01*
X143891266Y-221995508D01*
X143720993Y-221961639D01*
X143697731Y-221954583D01*
X143538745Y-221888728D01*
X143517307Y-221877269D01*
X143374224Y-221781664D01*
X143355434Y-221766243D01*
X143233756Y-221644565D01*
X143218335Y-221625775D01*
X143122730Y-221482692D01*
X143111271Y-221461254D01*
X143045416Y-221302268D01*
X143038360Y-221279006D01*
X143004491Y-221108733D01*
X143002145Y-221087578D01*
X143000037Y-221001509D01*
X143000000Y-220998473D01*
X143000000Y-196124000D01*
X143019685Y-196056961D01*
X143072489Y-196011206D01*
X143124000Y-196000000D01*
X144876000Y-196000000D01*
X144943039Y-196019685D01*
G37*
G36*
X145193039Y-157019685D02*
G01*
X145238794Y-157072489D01*
X145250000Y-157124000D01*
X145250000Y-158876000D01*
X145230315Y-158943039D01*
X145177511Y-158988794D01*
X145126000Y-159000000D01*
X145000000Y-159000000D01*
X145000000Y-163500000D01*
X145126000Y-163500000D01*
X145193039Y-163519685D01*
X145238794Y-163572489D01*
X145250000Y-163624000D01*
X145250000Y-164492000D01*
X145230315Y-164559039D01*
X145225200Y-164566400D01*
X145169993Y-164640008D01*
X145120000Y-164719999D01*
X145079998Y-164810004D01*
X145079992Y-164810020D01*
X145039999Y-164920002D01*
X145020001Y-164999998D01*
X145009999Y-165060007D01*
X145000000Y-165200001D01*
X145000000Y-182876000D01*
X144980315Y-182943039D01*
X144927511Y-182988794D01*
X144876000Y-183000000D01*
X143124000Y-183000000D01*
X143056961Y-182980315D01*
X143011206Y-182927511D01*
X143000000Y-182876000D01*
X143000000Y-158001526D01*
X143000037Y-157998490D01*
X143002145Y-157912421D01*
X143004491Y-157891266D01*
X143038360Y-157720993D01*
X143045416Y-157697731D01*
X143111271Y-157538745D01*
X143122730Y-157517307D01*
X143218335Y-157374224D01*
X143233756Y-157355434D01*
X143355434Y-157233756D01*
X143374224Y-157218335D01*
X143517307Y-157122730D01*
X143538745Y-157111271D01*
X143697731Y-157045416D01*
X143720993Y-157038360D01*
X143891266Y-157004491D01*
X143912421Y-157002145D01*
X143998491Y-157000037D01*
X144001527Y-157000000D01*
X145126000Y-157000000D01*
X145193039Y-157019685D01*
G37*
G36*
X225521979Y-158752382D02*
G01*
X225532034Y-158754382D01*
X225593946Y-158786767D01*
X225628520Y-158847483D01*
X225624781Y-158917252D01*
X225583915Y-158973924D01*
X225518897Y-158999506D01*
X225510100Y-158999899D01*
X225510000Y-159000000D01*
X225510000Y-160876000D01*
X225490315Y-160943039D01*
X225437511Y-160988794D01*
X225386000Y-161000000D01*
X224924000Y-161000000D01*
X224856961Y-160980315D01*
X224811206Y-160927511D01*
X224800000Y-160876000D01*
X224800000Y-159850002D01*
X224769997Y-159719990D01*
X224740004Y-159630012D01*
X224700001Y-159540003D01*
X224699997Y-159539996D01*
X224640002Y-159440001D01*
X224639999Y-159439996D01*
X224580003Y-159360005D01*
X224580000Y-159360000D01*
X224517106Y-159292894D01*
X224449997Y-159229998D01*
X224370002Y-159170002D01*
X224369989Y-159169993D01*
X224289999Y-159119998D01*
X224200022Y-159080010D01*
X224199994Y-159079999D01*
X224090004Y-159040001D01*
X224009999Y-159020000D01*
X223949992Y-159009999D01*
X223809998Y-159000000D01*
X223807644Y-159000000D01*
X223740605Y-158980315D01*
X223694850Y-158927511D01*
X223684906Y-158858353D01*
X223713931Y-158794797D01*
X223772709Y-158757023D01*
X223787804Y-158753597D01*
X223800143Y-158751597D01*
X223819983Y-158750000D01*
X225497789Y-158750000D01*
X225521979Y-158752382D01*
G37*
G36*
X144917254Y-163385220D02*
G01*
X144973926Y-163426087D01*
X144999507Y-163491105D01*
X144999899Y-163499899D01*
X145000000Y-163500000D01*
X146876000Y-163500000D01*
X146943039Y-163519685D01*
X146988794Y-163572489D01*
X147000000Y-163624000D01*
X147000000Y-164094917D01*
X146980315Y-164161956D01*
X146927511Y-164207711D01*
X146874922Y-164218912D01*
X145850003Y-164209999D01*
X145719990Y-164240001D01*
X145630012Y-164269995D01*
X145540003Y-164309998D01*
X145539996Y-164310002D01*
X145440001Y-164369997D01*
X145439996Y-164370000D01*
X145360005Y-164429996D01*
X145360000Y-164429999D01*
X145292894Y-164492893D01*
X145229998Y-164560002D01*
X145169993Y-164640008D01*
X145120000Y-164719999D01*
X145079998Y-164810004D01*
X145079992Y-164810020D01*
X145039999Y-164920002D01*
X145020001Y-164999998D01*
X145009999Y-165060007D01*
X145000000Y-165200001D01*
X145000000Y-165202355D01*
X144980315Y-165269394D01*
X144927511Y-165315149D01*
X144858353Y-165325093D01*
X144794797Y-165296068D01*
X144757023Y-165237290D01*
X144753598Y-165222197D01*
X144751598Y-165209859D01*
X144750000Y-165190017D01*
X144750000Y-163512210D01*
X144752383Y-163488017D01*
X144754383Y-163477963D01*
X144786769Y-163416053D01*
X144847485Y-163381479D01*
X144917254Y-163385220D01*
G37*
G36*
X231943039Y-214019685D02*
G01*
X231988794Y-214072489D01*
X232000000Y-214124000D01*
X232000000Y-220998473D01*
X231999963Y-221001511D01*
X231997854Y-221087580D01*
X231995508Y-221108733D01*
X231961639Y-221279006D01*
X231954583Y-221302268D01*
X231888728Y-221461254D01*
X231877269Y-221482692D01*
X231781664Y-221625775D01*
X231766243Y-221644565D01*
X231644565Y-221766243D01*
X231625775Y-221781664D01*
X231482692Y-221877269D01*
X231461254Y-221888728D01*
X231302268Y-221954583D01*
X231279006Y-221961639D01*
X231108733Y-221995508D01*
X231087580Y-221997854D01*
X231001511Y-221999963D01*
X230998473Y-222000000D01*
X229874000Y-222000000D01*
X229806961Y-221980315D01*
X229761206Y-221927511D01*
X229750000Y-221876000D01*
X229750000Y-220124000D01*
X229769685Y-220056961D01*
X229822489Y-220011206D01*
X229874000Y-220000000D01*
X230000000Y-220000000D01*
X230000000Y-215500001D01*
X229999999Y-215500000D01*
X229873999Y-215500000D01*
X229806960Y-215480315D01*
X229761205Y-215427511D01*
X229750000Y-215376000D01*
X229750000Y-214507999D01*
X229769685Y-214440960D01*
X229774800Y-214433599D01*
X229830006Y-214359991D01*
X229879999Y-214280000D01*
X229920001Y-214189995D01*
X229920004Y-214189988D01*
X229959409Y-214081624D01*
X230000819Y-214025348D01*
X230066080Y-214000393D01*
X230075944Y-214000000D01*
X231876000Y-214000000D01*
X231943039Y-214019685D01*
G37*
G36*
X231001509Y-157000037D02*
G01*
X231087578Y-157002145D01*
X231108733Y-157004491D01*
X231279006Y-157038360D01*
X231302268Y-157045416D01*
X231461254Y-157111271D01*
X231482692Y-157122730D01*
X231625775Y-157218335D01*
X231644565Y-157233756D01*
X231766243Y-157355434D01*
X231781664Y-157374224D01*
X231877269Y-157517307D01*
X231888728Y-157538745D01*
X231954583Y-157697731D01*
X231961639Y-157720993D01*
X231995508Y-157891266D01*
X231997854Y-157912419D01*
X231999963Y-157998488D01*
X232000000Y-158001526D01*
X232000000Y-164876000D01*
X231980315Y-164943039D01*
X231927511Y-164988794D01*
X231876000Y-165000000D01*
X230075944Y-165000000D01*
X230008905Y-164980315D01*
X229963150Y-164927511D01*
X229959409Y-164918376D01*
X229920004Y-164810011D01*
X229920001Y-164810004D01*
X229879999Y-164719999D01*
X229830006Y-164640008D01*
X229774800Y-164566400D01*
X229750324Y-164500957D01*
X229750000Y-164492000D01*
X229750000Y-163623999D01*
X229769685Y-163556960D01*
X229822489Y-163511205D01*
X229874000Y-163499999D01*
X230000000Y-163499999D01*
X230000000Y-159000000D01*
X229874000Y-159000000D01*
X229806961Y-158980315D01*
X229761206Y-158927511D01*
X229750000Y-158876000D01*
X229750000Y-157124000D01*
X229769685Y-157056961D01*
X229822489Y-157011206D01*
X229874000Y-157000000D01*
X230998473Y-157000000D01*
X231001509Y-157000037D01*
G37*
G36*
X144943039Y-219769685D02*
G01*
X144988794Y-219822489D01*
X145000000Y-219874000D01*
X145000000Y-220000000D01*
X149499999Y-220000000D01*
X149499999Y-219874000D01*
X149519684Y-219806961D01*
X149572488Y-219761206D01*
X149623999Y-219750000D01*
X150492000Y-219750000D01*
X150559039Y-219769685D01*
X150566400Y-219774800D01*
X150640008Y-219830006D01*
X150719999Y-219879999D01*
X150719998Y-219879999D01*
X150810004Y-219920001D01*
X150810011Y-219920004D01*
X150920001Y-219959999D01*
X151000004Y-219980000D01*
X151060006Y-219990000D01*
X151060004Y-219990000D01*
X151200001Y-219999999D01*
X151200012Y-220000000D01*
X192999988Y-220000000D01*
X192999998Y-219999999D01*
X193139989Y-219990001D01*
X193139996Y-219990000D01*
X193199997Y-219980000D01*
X193279996Y-219960000D01*
X193389988Y-219920004D01*
X193389995Y-219920001D01*
X193480000Y-219879999D01*
X193559991Y-219830006D01*
X193633600Y-219774800D01*
X193699043Y-219750324D01*
X193708000Y-219750000D01*
X196092000Y-219750000D01*
X196159039Y-219769685D01*
X196166400Y-219774800D01*
X196240002Y-219830001D01*
X196340003Y-219890001D01*
X196340007Y-219890003D01*
X196430005Y-219930002D01*
X196430010Y-219930004D01*
X196519990Y-219959997D01*
X196650005Y-219990000D01*
X196799973Y-219999998D01*
X196800005Y-220000000D01*
X223799988Y-220000000D01*
X223799998Y-219999999D01*
X223939994Y-219990000D01*
X223999996Y-219980000D01*
X224079998Y-219959999D01*
X224189988Y-219920004D01*
X224189995Y-219920001D01*
X224280000Y-219879999D01*
X224359991Y-219830006D01*
X224433600Y-219774800D01*
X224499043Y-219750324D01*
X224508000Y-219750000D01*
X225376001Y-219750000D01*
X225443040Y-219769685D01*
X225488795Y-219822489D01*
X225500001Y-219874000D01*
X225500001Y-220000000D01*
X230000000Y-220000000D01*
X230000000Y-219874000D01*
X230019685Y-219806961D01*
X230072489Y-219761206D01*
X230124000Y-219750000D01*
X231876000Y-219750000D01*
X231943039Y-219769685D01*
X231988794Y-219822489D01*
X232000000Y-219874000D01*
X232000000Y-220998473D01*
X231999963Y-221001511D01*
X231997854Y-221087580D01*
X231995508Y-221108733D01*
X231961639Y-221279006D01*
X231954583Y-221302268D01*
X231888728Y-221461254D01*
X231877269Y-221482692D01*
X231781664Y-221625775D01*
X231766243Y-221644565D01*
X231644565Y-221766243D01*
X231625775Y-221781664D01*
X231482692Y-221877269D01*
X231461254Y-221888728D01*
X231302268Y-221954583D01*
X231279006Y-221961639D01*
X231108733Y-221995508D01*
X231087580Y-221997854D01*
X231001511Y-221999963D01*
X230998473Y-222000000D01*
X144001527Y-222000000D01*
X143998490Y-221999963D01*
X143912420Y-221997854D01*
X143891266Y-221995508D01*
X143720993Y-221961639D01*
X143697731Y-221954583D01*
X143538745Y-221888728D01*
X143517307Y-221877269D01*
X143374224Y-221781664D01*
X143355434Y-221766243D01*
X143233756Y-221644565D01*
X143218335Y-221625775D01*
X143122730Y-221482692D01*
X143111271Y-221461254D01*
X143045416Y-221302268D01*
X143038360Y-221279006D01*
X143004491Y-221108733D01*
X143002145Y-221087578D01*
X143000037Y-221001509D01*
X143000000Y-220998473D01*
X143000000Y-219874000D01*
X143019685Y-219806961D01*
X143072489Y-219761206D01*
X143124000Y-219750000D01*
X144876000Y-219750000D01*
X144943039Y-219769685D01*
G37*
G36*
X150161956Y-218019685D02*
G01*
X150207711Y-218072489D01*
X150218912Y-218125078D01*
X150209999Y-219149996D01*
X150240001Y-219280009D01*
X150269995Y-219369989D01*
X150269997Y-219369994D01*
X150309996Y-219459992D01*
X150309998Y-219459996D01*
X150369998Y-219559997D01*
X150429998Y-219639998D01*
X150429999Y-219639999D01*
X150492893Y-219707105D01*
X150560002Y-219770001D01*
X150640008Y-219830006D01*
X150719999Y-219879999D01*
X150719998Y-219879999D01*
X150810004Y-219920001D01*
X150810011Y-219920004D01*
X150920001Y-219959999D01*
X151000004Y-219980000D01*
X151060006Y-219990000D01*
X151060004Y-219990000D01*
X151200001Y-219999999D01*
X151200012Y-220000000D01*
X151202356Y-220000000D01*
X151269395Y-220019685D01*
X151315150Y-220072489D01*
X151325094Y-220141647D01*
X151296069Y-220205203D01*
X151237291Y-220242977D01*
X151222196Y-220246403D01*
X151209857Y-220248403D01*
X151190017Y-220250000D01*
X149512210Y-220250000D01*
X149488020Y-220247618D01*
X149477965Y-220245618D01*
X149416053Y-220213233D01*
X149381479Y-220152517D01*
X149385218Y-220082748D01*
X149426084Y-220026076D01*
X149491102Y-220000494D01*
X149499897Y-220000100D01*
X149499999Y-219999999D01*
X149500000Y-218124000D01*
X149519685Y-218056960D01*
X149572489Y-218011206D01*
X149624000Y-218000000D01*
X150094917Y-218000000D01*
X150161956Y-218019685D01*
G37*
G36*
X231943039Y-195519685D02*
G01*
X231988794Y-195572489D01*
X232000000Y-195624000D01*
X232000000Y-201876000D01*
X231980315Y-201943039D01*
X231927511Y-201988794D01*
X231876000Y-202000000D01*
X230124000Y-202000000D01*
X230056961Y-201980315D01*
X230011206Y-201927511D01*
X230000000Y-201876000D01*
X230000000Y-195624000D01*
X230019685Y-195556961D01*
X230072489Y-195511206D01*
X230124000Y-195500000D01*
X231876000Y-195500000D01*
X231943039Y-195519685D01*
G37*
G36*
X151211979Y-158752382D02*
G01*
X151222034Y-158754382D01*
X151283946Y-158786767D01*
X151318520Y-158847483D01*
X151314781Y-158917252D01*
X151273915Y-158973924D01*
X151208897Y-158999506D01*
X151202216Y-158999804D01*
X151202221Y-158999921D01*
X151200001Y-159000000D01*
X151060010Y-159009998D01*
X151060003Y-159009999D01*
X151000002Y-159019999D01*
X150920003Y-159039999D01*
X150810011Y-159079995D01*
X150810004Y-159079998D01*
X150719999Y-159120000D01*
X150640008Y-159169993D01*
X150560002Y-159229998D01*
X150492893Y-159292894D01*
X150429999Y-159360000D01*
X150429998Y-159360001D01*
X150369998Y-159440002D01*
X150309998Y-159540003D01*
X150309996Y-159540007D01*
X150269997Y-159630005D01*
X150269995Y-159630010D01*
X150240001Y-159719990D01*
X150209999Y-159850003D01*
X150218912Y-160874922D01*
X150199811Y-160942130D01*
X150147407Y-160988342D01*
X150094917Y-161000000D01*
X149624000Y-161000000D01*
X149556961Y-160980315D01*
X149511206Y-160927511D01*
X149500000Y-160876000D01*
X149500000Y-159000000D01*
X149499103Y-158999103D01*
X149435117Y-158980315D01*
X149389362Y-158927511D01*
X149379418Y-158858353D01*
X149408443Y-158794797D01*
X149467221Y-158757023D01*
X149477966Y-158754382D01*
X149488021Y-158752382D01*
X149512211Y-158750000D01*
X151187789Y-158750000D01*
X151211979Y-158752382D01*
G37*
G36*
X230193039Y-214019685D02*
G01*
X230238794Y-214072489D01*
X230250000Y-214124000D01*
X230250000Y-215487790D01*
X230247617Y-215511983D01*
X230245617Y-215522037D01*
X230213231Y-215583947D01*
X230152515Y-215618521D01*
X230082746Y-215614780D01*
X230026074Y-215573913D01*
X230000493Y-215508895D01*
X230000100Y-215500102D01*
X229999999Y-215500000D01*
X228124000Y-215500000D01*
X228056960Y-215480315D01*
X228011206Y-215427511D01*
X228000000Y-215376000D01*
X228000000Y-214905082D01*
X228019685Y-214838043D01*
X228072489Y-214792288D01*
X228125078Y-214781087D01*
X229149996Y-214790000D01*
X229280009Y-214759998D01*
X229369989Y-214730004D01*
X229369994Y-214730002D01*
X229459992Y-214690003D01*
X229459996Y-214690001D01*
X229559997Y-214630001D01*
X229639998Y-214570001D01*
X229639999Y-214570000D01*
X229707105Y-214507106D01*
X229770001Y-214439997D01*
X229830006Y-214359991D01*
X229879999Y-214280000D01*
X229920001Y-214189995D01*
X229920004Y-214189988D01*
X229959409Y-214081624D01*
X230000819Y-214025348D01*
X230066080Y-214000393D01*
X230075944Y-214000000D01*
X230126000Y-214000000D01*
X230193039Y-214019685D01*
G37*
G36*
X231001509Y-157000037D02*
G01*
X231087578Y-157002145D01*
X231108733Y-157004491D01*
X231279006Y-157038360D01*
X231302268Y-157045416D01*
X231461254Y-157111271D01*
X231482692Y-157122730D01*
X231625775Y-157218335D01*
X231644565Y-157233756D01*
X231766243Y-157355434D01*
X231781664Y-157374224D01*
X231877269Y-157517307D01*
X231888728Y-157538745D01*
X231954583Y-157697731D01*
X231961639Y-157720993D01*
X231995508Y-157891266D01*
X231997854Y-157912419D01*
X231999963Y-157998488D01*
X232000000Y-158001526D01*
X232000000Y-159126000D01*
X231980315Y-159193039D01*
X231927511Y-159238794D01*
X231876000Y-159250000D01*
X230124000Y-159250000D01*
X230056961Y-159230315D01*
X230011206Y-159177511D01*
X230000000Y-159126000D01*
X230000000Y-159000000D01*
X225510000Y-159000000D01*
X225510000Y-159126000D01*
X225490315Y-159193039D01*
X225437511Y-159238794D01*
X225386000Y-159250000D01*
X224518000Y-159250000D01*
X224450961Y-159230315D01*
X224443600Y-159225200D01*
X224370002Y-159170002D01*
X224369989Y-159169993D01*
X224289999Y-159119998D01*
X224200022Y-159080010D01*
X224199994Y-159079999D01*
X224090004Y-159040001D01*
X224009999Y-159020000D01*
X223949992Y-159009999D01*
X223809998Y-159000000D01*
X221800001Y-159000000D01*
X221660010Y-159009998D01*
X221660003Y-159009999D01*
X221600002Y-159019999D01*
X221520003Y-159039999D01*
X221410011Y-159079995D01*
X221410004Y-159079998D01*
X221319999Y-159120000D01*
X221240008Y-159169993D01*
X221166400Y-159225200D01*
X221100957Y-159249676D01*
X221092000Y-159250000D01*
X218708000Y-159250000D01*
X218640961Y-159230315D01*
X218633600Y-159225200D01*
X218560005Y-159170003D01*
X218559989Y-159169993D01*
X218460008Y-159110004D01*
X218459997Y-159109998D01*
X218370002Y-159070000D01*
X218279999Y-159039999D01*
X218149994Y-159009999D01*
X218000026Y-159000001D01*
X217999995Y-159000000D01*
X196800001Y-159000000D01*
X196660010Y-159009998D01*
X196660003Y-159009999D01*
X196600002Y-159019999D01*
X196520003Y-159039999D01*
X196410011Y-159079995D01*
X196410004Y-159079998D01*
X196319999Y-159120000D01*
X196240008Y-159169993D01*
X196166400Y-159225200D01*
X196100957Y-159249676D01*
X196092000Y-159250000D01*
X193708000Y-159250000D01*
X193640961Y-159230315D01*
X193633600Y-159225200D01*
X193560005Y-159170003D01*
X193559989Y-159169993D01*
X193460008Y-159110004D01*
X193459997Y-159109998D01*
X193370002Y-159070000D01*
X193279999Y-159039999D01*
X193149994Y-159009999D01*
X193000026Y-159000001D01*
X192999995Y-159000000D01*
X151200001Y-159000000D01*
X151060010Y-159009998D01*
X151060003Y-159009999D01*
X151000002Y-159019999D01*
X150920003Y-159039999D01*
X150810011Y-159079995D01*
X150810004Y-159079998D01*
X150719999Y-159120000D01*
X150640008Y-159169993D01*
X150566400Y-159225200D01*
X150500957Y-159249676D01*
X150492000Y-159250000D01*
X149624000Y-159250000D01*
X149556961Y-159230315D01*
X149511206Y-159177511D01*
X149500000Y-159126000D01*
X149500000Y-159000000D01*
X145000000Y-159000000D01*
X145000000Y-159126000D01*
X144980315Y-159193039D01*
X144927511Y-159238794D01*
X144876000Y-159250000D01*
X143124000Y-159250000D01*
X143056961Y-159230315D01*
X143011206Y-159177511D01*
X143000000Y-159126000D01*
X143000000Y-158001526D01*
X143000037Y-157998490D01*
X143002145Y-157912421D01*
X143004491Y-157891266D01*
X143038360Y-157720993D01*
X143045416Y-157697731D01*
X143111271Y-157538745D01*
X143122730Y-157517307D01*
X143218335Y-157374224D01*
X143233756Y-157355434D01*
X143355434Y-157233756D01*
X143374224Y-157218335D01*
X143517307Y-157122730D01*
X143538745Y-157111271D01*
X143697731Y-157045416D01*
X143720993Y-157038360D01*
X143891266Y-157004491D01*
X143912421Y-157002145D01*
X143998491Y-157000037D01*
X144001527Y-157000000D01*
X230998473Y-157000000D01*
X231001509Y-157000037D01*
G37*
G36*
X225443039Y-218019685D02*
G01*
X225488794Y-218072489D01*
X225500000Y-218124000D01*
X225500000Y-219999999D01*
X225500897Y-220000896D01*
X225564884Y-220019685D01*
X225610639Y-220072489D01*
X225620583Y-220141647D01*
X225591558Y-220205203D01*
X225532780Y-220242977D01*
X225522035Y-220245618D01*
X225511980Y-220247618D01*
X225487790Y-220250000D01*
X223812211Y-220250000D01*
X223788021Y-220247618D01*
X223777966Y-220245618D01*
X223716054Y-220213233D01*
X223681480Y-220152517D01*
X223685219Y-220082748D01*
X223726085Y-220026076D01*
X223791103Y-220000494D01*
X223797783Y-220000195D01*
X223797779Y-220000079D01*
X223799998Y-219999999D01*
X223939994Y-219990000D01*
X223999996Y-219980000D01*
X224079998Y-219959999D01*
X224189988Y-219920004D01*
X224189995Y-219920001D01*
X224280000Y-219879999D01*
X224359991Y-219830006D01*
X224439997Y-219770001D01*
X224507106Y-219707105D01*
X224570000Y-219639999D01*
X224570001Y-219639998D01*
X224630001Y-219559997D01*
X224690001Y-219459996D01*
X224690003Y-219459992D01*
X224730002Y-219369994D01*
X224730004Y-219369989D01*
X224759998Y-219280009D01*
X224790000Y-219149996D01*
X224781088Y-218125078D01*
X224800189Y-218057870D01*
X224852593Y-218011658D01*
X224905083Y-218000000D01*
X225376000Y-218000000D01*
X225443039Y-218019685D01*
G37*
G36*
X144917254Y-213685220D02*
G01*
X144973926Y-213726087D01*
X144999507Y-213791105D01*
X144999804Y-213797783D01*
X144999921Y-213797779D01*
X145000000Y-213799998D01*
X145009999Y-213939994D01*
X145019999Y-213999996D01*
X145040000Y-214079998D01*
X145079995Y-214189988D01*
X145079998Y-214189995D01*
X145120000Y-214280000D01*
X145169993Y-214359991D01*
X145229998Y-214439997D01*
X145292894Y-214507106D01*
X145360000Y-214570000D01*
X145360001Y-214570001D01*
X145440002Y-214630001D01*
X145540003Y-214690001D01*
X145540007Y-214690003D01*
X145630005Y-214730002D01*
X145630010Y-214730004D01*
X145719990Y-214759998D01*
X145850003Y-214790000D01*
X146874922Y-214781087D01*
X146942130Y-214800188D01*
X146988342Y-214852592D01*
X147000000Y-214905082D01*
X147000000Y-215376000D01*
X146980315Y-215443039D01*
X146927511Y-215488794D01*
X146876000Y-215500000D01*
X145000000Y-215500000D01*
X144999103Y-215500898D01*
X144980315Y-215564883D01*
X144927511Y-215610638D01*
X144858353Y-215620582D01*
X144794797Y-215591557D01*
X144757023Y-215532779D01*
X144754383Y-215522037D01*
X144752383Y-215511983D01*
X144750000Y-215487790D01*
X144750000Y-213812210D01*
X144752383Y-213788017D01*
X144754383Y-213777963D01*
X144786769Y-213716053D01*
X144847485Y-213681479D01*
X144917254Y-213685220D01*
G37*
G36*
X230205203Y-163408442D02*
G01*
X230242977Y-163467220D01*
X230245617Y-163477962D01*
X230247617Y-163488016D01*
X230250000Y-163512209D01*
X230250000Y-164876000D01*
X230230315Y-164943039D01*
X230177511Y-164988794D01*
X230126000Y-165000000D01*
X230075944Y-165000000D01*
X230008905Y-164980315D01*
X229963150Y-164927511D01*
X229959409Y-164918376D01*
X229920004Y-164810011D01*
X229920001Y-164810004D01*
X229879999Y-164719999D01*
X229830006Y-164640008D01*
X229770001Y-164560002D01*
X229707105Y-164492893D01*
X229639999Y-164429999D01*
X229639998Y-164429998D01*
X229559997Y-164369998D01*
X229459996Y-164309998D01*
X229459992Y-164309996D01*
X229369994Y-164269997D01*
X229369989Y-164269995D01*
X229280009Y-164240001D01*
X229149996Y-164209999D01*
X228125078Y-164218912D01*
X228057870Y-164199811D01*
X228011658Y-164147407D01*
X228000000Y-164094917D01*
X228000000Y-163623999D01*
X228019685Y-163556960D01*
X228072489Y-163511205D01*
X228124000Y-163499999D01*
X229999999Y-163499999D01*
X230000896Y-163499102D01*
X230019685Y-163435116D01*
X230072489Y-163389361D01*
X230141647Y-163379417D01*
X230205203Y-163408442D01*
G37*
G36*
X231943039Y-177019685D02*
G01*
X231988794Y-177072489D01*
X232000000Y-177124000D01*
X232000000Y-183376000D01*
X231980315Y-183443039D01*
X231927511Y-183488794D01*
X231876000Y-183500000D01*
X230124000Y-183500000D01*
X230056961Y-183480315D01*
X230011206Y-183427511D01*
X230000000Y-183376000D01*
X230000000Y-177124000D01*
X230019685Y-177056961D01*
X230072489Y-177011206D01*
X230124000Y-177000000D01*
X231876000Y-177000000D01*
X231943039Y-177019685D01*
G37*
G36*
X195811980Y-158752383D02*
G01*
X195871480Y-158764218D01*
X195916179Y-158782732D01*
X195956268Y-158809518D01*
X195990481Y-158843731D01*
X196017267Y-158883820D01*
X196035781Y-158928517D01*
X196047617Y-158988017D01*
X196050000Y-159012210D01*
X196050000Y-159292000D01*
X196030315Y-159359039D01*
X196025200Y-159366400D01*
X195969998Y-159440002D01*
X195909998Y-159540003D01*
X195909996Y-159540007D01*
X195869997Y-159630005D01*
X195869995Y-159630010D01*
X195840002Y-159719990D01*
X195809999Y-159850005D01*
X195800001Y-159999973D01*
X195800000Y-160000004D01*
X195800000Y-171799998D01*
X195809998Y-171939989D01*
X195809999Y-171939996D01*
X195819999Y-171999997D01*
X195839999Y-172079996D01*
X195879995Y-172189988D01*
X195879998Y-172189995D01*
X195920000Y-172280000D01*
X195969993Y-172359991D01*
X196025200Y-172433599D01*
X196049676Y-172499041D01*
X196050000Y-172507999D01*
X196050000Y-174892000D01*
X196030315Y-174959039D01*
X196025200Y-174966400D01*
X195969998Y-175040002D01*
X195909998Y-175140003D01*
X195909996Y-175140007D01*
X195869997Y-175230005D01*
X195869995Y-175230010D01*
X195840002Y-175319990D01*
X195809999Y-175450005D01*
X195800001Y-175599973D01*
X195800000Y-175600004D01*
X195800000Y-218999998D01*
X195809998Y-219139989D01*
X195809999Y-219139996D01*
X195819999Y-219199997D01*
X195839999Y-219279996D01*
X195879995Y-219389988D01*
X195879998Y-219389995D01*
X195920000Y-219480000D01*
X195969993Y-219559991D01*
X196025200Y-219633599D01*
X196049676Y-219699041D01*
X196050000Y-219707999D01*
X196050000Y-219987789D01*
X196047617Y-220011982D01*
X196035781Y-220071482D01*
X196017267Y-220116179D01*
X195990481Y-220156268D01*
X195956268Y-220190481D01*
X195916179Y-220217267D01*
X195871482Y-220235781D01*
X195811982Y-220247617D01*
X195787789Y-220250000D01*
X194012211Y-220250000D01*
X193988019Y-220247617D01*
X193928518Y-220235781D01*
X193883820Y-220217267D01*
X193843731Y-220190481D01*
X193809518Y-220156268D01*
X193782732Y-220116179D01*
X193764218Y-220071480D01*
X193752383Y-220011980D01*
X193750000Y-219987789D01*
X193750000Y-219707999D01*
X193769685Y-219640960D01*
X193774801Y-219633598D01*
X193830001Y-219559999D01*
X193890001Y-219459996D01*
X193890003Y-219459992D01*
X193930002Y-219369994D01*
X193930004Y-219369989D01*
X193959997Y-219280009D01*
X193990000Y-219149994D01*
X193999998Y-219000026D01*
X194000000Y-218999995D01*
X194000000Y-160000012D01*
X193999999Y-160000001D01*
X193990001Y-159860010D01*
X193990000Y-159860003D01*
X193980000Y-159800002D01*
X193960000Y-159720003D01*
X193920004Y-159610011D01*
X193920001Y-159610004D01*
X193879999Y-159519999D01*
X193830006Y-159440008D01*
X193774800Y-159366400D01*
X193750324Y-159300957D01*
X193750000Y-159292000D01*
X193750000Y-159012210D01*
X193752383Y-158988019D01*
X193764218Y-158928519D01*
X193782732Y-158883820D01*
X193809518Y-158843731D01*
X193843731Y-158809518D01*
X193883820Y-158782732D01*
X193928520Y-158764217D01*
X193988021Y-158752382D01*
X194012211Y-158750000D01*
X195787789Y-158750000D01*
X195811980Y-158752383D01*
G37*
G36*
X194011980Y-158752383D02*
G01*
X194071480Y-158764218D01*
X194116179Y-158782732D01*
X194156268Y-158809518D01*
X194190481Y-158843731D01*
X194217267Y-158883820D01*
X194235781Y-158928517D01*
X194247617Y-158988017D01*
X194250000Y-159012210D01*
X194250000Y-159987789D01*
X194247617Y-160011982D01*
X194245617Y-160022036D01*
X194213231Y-160083946D01*
X194152515Y-160118520D01*
X194082746Y-160114779D01*
X194026074Y-160073912D01*
X194000493Y-160008894D01*
X194000195Y-160002216D01*
X194000079Y-160002221D01*
X193999999Y-160000001D01*
X193990001Y-159860010D01*
X193990000Y-159860003D01*
X193980000Y-159800002D01*
X193960000Y-159720003D01*
X193920004Y-159610011D01*
X193920001Y-159610004D01*
X193879999Y-159519999D01*
X193830006Y-159440008D01*
X193770001Y-159360002D01*
X193707105Y-159292893D01*
X193639997Y-159229998D01*
X193560005Y-159170003D01*
X193559989Y-159169993D01*
X193460008Y-159110004D01*
X193459997Y-159109998D01*
X193370002Y-159070000D01*
X193279999Y-159039999D01*
X193149994Y-159009999D01*
X193000026Y-159000001D01*
X192999995Y-159000000D01*
X192997977Y-159000000D01*
X192930938Y-158980315D01*
X192885183Y-158927511D01*
X192875239Y-158858353D01*
X192904264Y-158794797D01*
X192963042Y-158757023D01*
X192977846Y-158753645D01*
X192990002Y-158751645D01*
X193010133Y-158750000D01*
X193987789Y-158750000D01*
X194011980Y-158752383D01*
G37*
G36*
X195717254Y-218885220D02*
G01*
X195773926Y-218926087D01*
X195799507Y-218991105D01*
X195799804Y-218997783D01*
X195799921Y-218997779D01*
X195800000Y-218999998D01*
X195809998Y-219139989D01*
X195809999Y-219139996D01*
X195819999Y-219199997D01*
X195839999Y-219279996D01*
X195879995Y-219389988D01*
X195879998Y-219389995D01*
X195920000Y-219480000D01*
X195969993Y-219559991D01*
X196029998Y-219639997D01*
X196092894Y-219707106D01*
X196160000Y-219770000D01*
X196160001Y-219770001D01*
X196240002Y-219830001D01*
X196340003Y-219890001D01*
X196340007Y-219890003D01*
X196430005Y-219930002D01*
X196430010Y-219930004D01*
X196519990Y-219959997D01*
X196650005Y-219990000D01*
X196799973Y-219999998D01*
X196800005Y-220000000D01*
X196802023Y-220000000D01*
X196869062Y-220019685D01*
X196914817Y-220072489D01*
X196924761Y-220141647D01*
X196895736Y-220205203D01*
X196836958Y-220242977D01*
X196822154Y-220246355D01*
X196809998Y-220248355D01*
X196789867Y-220250000D01*
X195812211Y-220250000D01*
X195788019Y-220247617D01*
X195728518Y-220235781D01*
X195683820Y-220217267D01*
X195643731Y-220190481D01*
X195609518Y-220156268D01*
X195582732Y-220116179D01*
X195564218Y-220071480D01*
X195552383Y-220011980D01*
X195550000Y-219987789D01*
X195550000Y-219012210D01*
X195552383Y-218988017D01*
X195554383Y-218977963D01*
X195586769Y-218916053D01*
X195647485Y-218881479D01*
X195717254Y-218885220D01*
G37*
G36*
X221811979Y-158752382D02*
G01*
X221822034Y-158754382D01*
X221883946Y-158786767D01*
X221918520Y-158847483D01*
X221914781Y-158917252D01*
X221873915Y-158973924D01*
X221808897Y-158999506D01*
X221802216Y-158999804D01*
X221802221Y-158999921D01*
X221800001Y-159000000D01*
X221660010Y-159009998D01*
X221660003Y-159009999D01*
X221600002Y-159019999D01*
X221520003Y-159039999D01*
X221410011Y-159079995D01*
X221410004Y-159079998D01*
X221319999Y-159120000D01*
X221240008Y-159169993D01*
X221160002Y-159229998D01*
X221092893Y-159292894D01*
X221029999Y-159360000D01*
X221029998Y-159360001D01*
X220969998Y-159440002D01*
X220909998Y-159540003D01*
X220909996Y-159540007D01*
X220869997Y-159630005D01*
X220869995Y-159630010D01*
X220840002Y-159719990D01*
X220809999Y-159850005D01*
X220800001Y-159999973D01*
X220800000Y-160000004D01*
X220800000Y-160002023D01*
X220780315Y-160069062D01*
X220727511Y-160114817D01*
X220658353Y-160124761D01*
X220594797Y-160095736D01*
X220557023Y-160036958D01*
X220553645Y-160022154D01*
X220551645Y-160009998D01*
X220550000Y-159989867D01*
X220550000Y-159012210D01*
X220552383Y-158988019D01*
X220564218Y-158928519D01*
X220582732Y-158883820D01*
X220609518Y-158843731D01*
X220643731Y-158809518D01*
X220683820Y-158782732D01*
X220728520Y-158764217D01*
X220788021Y-158752382D01*
X220812211Y-158750000D01*
X221787789Y-158750000D01*
X221811979Y-158752382D01*
G37*
G36*
X196811979Y-174352382D02*
G01*
X196822034Y-174354382D01*
X196883946Y-174386767D01*
X196918520Y-174447483D01*
X196914781Y-174517252D01*
X196873915Y-174573924D01*
X196808897Y-174599506D01*
X196802216Y-174599804D01*
X196802221Y-174599921D01*
X196800001Y-174600000D01*
X196660010Y-174609998D01*
X196660003Y-174609999D01*
X196600002Y-174619999D01*
X196520003Y-174639999D01*
X196410011Y-174679995D01*
X196410004Y-174679998D01*
X196319999Y-174720000D01*
X196240008Y-174769993D01*
X196160002Y-174829998D01*
X196092893Y-174892894D01*
X196029999Y-174960000D01*
X196029998Y-174960001D01*
X195969998Y-175040002D01*
X195909998Y-175140003D01*
X195909996Y-175140007D01*
X195869997Y-175230005D01*
X195869995Y-175230010D01*
X195840002Y-175319990D01*
X195809999Y-175450005D01*
X195800001Y-175599973D01*
X195800000Y-175600004D01*
X195800000Y-175602023D01*
X195780315Y-175669062D01*
X195727511Y-175714817D01*
X195658353Y-175724761D01*
X195594797Y-175695736D01*
X195557023Y-175636958D01*
X195553645Y-175622154D01*
X195551645Y-175609998D01*
X195550000Y-175589867D01*
X195550000Y-174612210D01*
X195552383Y-174588019D01*
X195564218Y-174528519D01*
X195582732Y-174483820D01*
X195609518Y-174443731D01*
X195643731Y-174409518D01*
X195683820Y-174382732D01*
X195728520Y-174364217D01*
X195788021Y-174352382D01*
X195812211Y-174350000D01*
X196787789Y-174350000D01*
X196811979Y-174352382D01*
G37*
G36*
X219205203Y-171704263D02*
G01*
X219242977Y-171763041D01*
X219246355Y-171777845D01*
X219248355Y-171790001D01*
X219250000Y-171810132D01*
X219250000Y-172787789D01*
X219247617Y-172811982D01*
X219235781Y-172871482D01*
X219217267Y-172916179D01*
X219190481Y-172956268D01*
X219156268Y-172990481D01*
X219116179Y-173017267D01*
X219071482Y-173035781D01*
X219011982Y-173047617D01*
X218987789Y-173050000D01*
X218012211Y-173050000D01*
X217988021Y-173047618D01*
X217977966Y-173045618D01*
X217916054Y-173013233D01*
X217881480Y-172952517D01*
X217885219Y-172882748D01*
X217926085Y-172826076D01*
X217991103Y-172800494D01*
X217997783Y-172800195D01*
X217997779Y-172800079D01*
X217999998Y-172799999D01*
X218139989Y-172790001D01*
X218139996Y-172790000D01*
X218199997Y-172780000D01*
X218279996Y-172760000D01*
X218389988Y-172720004D01*
X218389995Y-172720001D01*
X218480000Y-172679999D01*
X218559991Y-172630006D01*
X218639997Y-172570001D01*
X218707106Y-172507105D01*
X218770000Y-172439999D01*
X218770001Y-172439998D01*
X218830001Y-172359997D01*
X218890001Y-172259996D01*
X218890003Y-172259992D01*
X218930002Y-172169994D01*
X218930004Y-172169989D01*
X218959997Y-172080009D01*
X218990000Y-171949994D01*
X218999998Y-171800026D01*
X219000000Y-171799995D01*
X219000000Y-171797976D01*
X219019685Y-171730937D01*
X219072489Y-171685182D01*
X219141647Y-171675238D01*
X219205203Y-171704263D01*
G37*
G36*
X196811979Y-158752382D02*
G01*
X196822034Y-158754382D01*
X196883946Y-158786767D01*
X196918520Y-158847483D01*
X196914781Y-158917252D01*
X196873915Y-158973924D01*
X196808897Y-158999506D01*
X196802216Y-158999804D01*
X196802221Y-158999921D01*
X196800001Y-159000000D01*
X196660010Y-159009998D01*
X196660003Y-159009999D01*
X196600002Y-159019999D01*
X196520003Y-159039999D01*
X196410011Y-159079995D01*
X196410004Y-159079998D01*
X196319999Y-159120000D01*
X196240008Y-159169993D01*
X196160002Y-159229998D01*
X196092893Y-159292894D01*
X196029999Y-159360000D01*
X196029998Y-159360001D01*
X195969998Y-159440002D01*
X195909998Y-159540003D01*
X195909996Y-159540007D01*
X195869997Y-159630005D01*
X195869995Y-159630010D01*
X195840002Y-159719990D01*
X195809999Y-159850005D01*
X195800001Y-159999973D01*
X195800000Y-160000004D01*
X195800000Y-160002023D01*
X195780315Y-160069062D01*
X195727511Y-160114817D01*
X195658353Y-160124761D01*
X195594797Y-160095736D01*
X195557023Y-160036958D01*
X195553645Y-160022154D01*
X195551645Y-160009998D01*
X195550000Y-159989867D01*
X195550000Y-159012210D01*
X195552383Y-158988019D01*
X195564218Y-158928519D01*
X195582732Y-158883820D01*
X195609518Y-158843731D01*
X195643731Y-158809518D01*
X195683820Y-158782732D01*
X195728520Y-158764217D01*
X195788021Y-158752382D01*
X195812211Y-158750000D01*
X196787789Y-158750000D01*
X196811979Y-158752382D01*
G37*
G36*
X220811980Y-158752383D02*
G01*
X220871480Y-158764218D01*
X220916179Y-158782732D01*
X220956268Y-158809518D01*
X220990481Y-158843731D01*
X221017267Y-158883820D01*
X221035781Y-158928517D01*
X221047617Y-158988017D01*
X221050000Y-159012210D01*
X221050000Y-159292000D01*
X221030315Y-159359039D01*
X221025200Y-159366400D01*
X220969998Y-159440002D01*
X220909998Y-159540003D01*
X220909996Y-159540007D01*
X220869997Y-159630005D01*
X220869995Y-159630010D01*
X220840002Y-159719990D01*
X220809999Y-159850005D01*
X220800001Y-159999973D01*
X220800000Y-160000004D01*
X220800000Y-173595877D01*
X220799725Y-173604125D01*
X220791050Y-173734248D01*
X220766950Y-173799830D01*
X220711219Y-173841971D01*
X220667325Y-173850000D01*
X220050000Y-173850000D01*
X220050000Y-174466622D01*
X220030315Y-174533661D01*
X219977511Y-174579416D01*
X219946324Y-174588945D01*
X219945680Y-174589052D01*
X219934192Y-174590414D01*
X219804411Y-174599685D01*
X219795575Y-174600000D01*
X196800001Y-174600000D01*
X196660010Y-174609998D01*
X196660003Y-174609999D01*
X196600002Y-174619999D01*
X196520003Y-174639999D01*
X196410011Y-174679995D01*
X196410004Y-174679998D01*
X196319999Y-174720000D01*
X196240008Y-174769993D01*
X196166400Y-174825200D01*
X196100957Y-174849676D01*
X196092000Y-174850000D01*
X195812211Y-174850000D01*
X195788019Y-174847617D01*
X195728518Y-174835781D01*
X195683820Y-174817267D01*
X195643731Y-174790481D01*
X195609518Y-174756268D01*
X195582732Y-174716179D01*
X195564218Y-174671480D01*
X195552383Y-174611980D01*
X195550000Y-174587789D01*
X195550000Y-172812210D01*
X195552383Y-172788019D01*
X195564218Y-172728519D01*
X195582732Y-172683820D01*
X195609518Y-172643731D01*
X195643731Y-172609518D01*
X195683820Y-172582732D01*
X195728520Y-172564217D01*
X195788021Y-172552382D01*
X195812211Y-172550000D01*
X196092000Y-172550000D01*
X196159039Y-172569685D01*
X196166400Y-172574800D01*
X196240002Y-172630001D01*
X196340003Y-172690001D01*
X196340007Y-172690003D01*
X196430005Y-172730002D01*
X196430010Y-172730004D01*
X196519990Y-172759997D01*
X196650005Y-172790000D01*
X196799973Y-172799998D01*
X196800005Y-172800000D01*
X217999988Y-172800000D01*
X217999998Y-172799999D01*
X218139989Y-172790001D01*
X218139996Y-172790000D01*
X218199997Y-172780000D01*
X218279996Y-172760000D01*
X218389988Y-172720004D01*
X218389995Y-172720001D01*
X218480000Y-172679999D01*
X218559991Y-172630006D01*
X218633600Y-172574800D01*
X218699043Y-172550324D01*
X218708000Y-172550000D01*
X218750000Y-172550000D01*
X218750000Y-172507999D01*
X218769685Y-172440960D01*
X218774801Y-172433598D01*
X218830001Y-172359999D01*
X218890001Y-172259996D01*
X218890003Y-172259992D01*
X218930002Y-172169994D01*
X218930004Y-172169989D01*
X218959997Y-172080009D01*
X218990000Y-171949994D01*
X218999998Y-171800026D01*
X219000000Y-171799995D01*
X219000000Y-160000012D01*
X218999999Y-160000001D01*
X218990001Y-159860010D01*
X218990000Y-159860003D01*
X218980000Y-159800002D01*
X218960000Y-159720003D01*
X218920004Y-159610011D01*
X218920001Y-159610004D01*
X218879999Y-159519999D01*
X218830006Y-159440008D01*
X218774800Y-159366400D01*
X218750324Y-159300957D01*
X218750000Y-159292000D01*
X218750000Y-159012210D01*
X218752383Y-158988019D01*
X218764218Y-158928519D01*
X218782732Y-158883820D01*
X218809518Y-158843731D01*
X218843731Y-158809518D01*
X218883820Y-158782732D01*
X218928520Y-158764217D01*
X218988021Y-158752382D01*
X219012211Y-158750000D01*
X220787789Y-158750000D01*
X220811980Y-158752383D01*
G37*
G36*
X220743039Y-173369685D02*
G01*
X220788794Y-173422489D01*
X220800000Y-173474000D01*
X220800000Y-173595877D01*
X220799725Y-173604126D01*
X220790662Y-173740062D01*
X220787762Y-173759695D01*
X220761325Y-173874258D01*
X220758137Y-173885589D01*
X220731892Y-173964323D01*
X220727567Y-173975472D01*
X220693080Y-174053067D01*
X220686097Y-174066502D01*
X220633287Y-174154519D01*
X220626158Y-174165122D01*
X220574077Y-174234564D01*
X220565351Y-174244960D01*
X220509853Y-174304174D01*
X220504175Y-174309853D01*
X220444961Y-174365350D01*
X220434566Y-174374074D01*
X220364217Y-174426837D01*
X220355535Y-174432790D01*
X220287391Y-174475379D01*
X220272033Y-174483540D01*
X220193927Y-174518254D01*
X220185942Y-174521476D01*
X220086058Y-174557797D01*
X220073758Y-174561559D01*
X220004805Y-174578798D01*
X219995112Y-174580814D01*
X219945739Y-174589042D01*
X219934192Y-174590414D01*
X219804411Y-174599685D01*
X219795575Y-174600000D01*
X219674000Y-174600000D01*
X219606961Y-174580315D01*
X219561206Y-174527511D01*
X219550000Y-174476000D01*
X219550000Y-173612210D01*
X219552383Y-173588019D01*
X219564218Y-173528519D01*
X219582732Y-173483820D01*
X219609518Y-173443731D01*
X219643731Y-173409518D01*
X219683820Y-173382732D01*
X219728520Y-173364217D01*
X219788021Y-173352382D01*
X219812211Y-173350000D01*
X220676000Y-173350000D01*
X220743039Y-173369685D01*
G37*
G36*
X195717254Y-171685220D02*
G01*
X195773926Y-171726087D01*
X195799507Y-171791105D01*
X195799804Y-171797783D01*
X195799921Y-171797779D01*
X195800000Y-171799998D01*
X195809998Y-171939989D01*
X195809999Y-171939996D01*
X195819999Y-171999997D01*
X195839999Y-172079996D01*
X195879995Y-172189988D01*
X195879998Y-172189995D01*
X195920000Y-172280000D01*
X195969993Y-172359991D01*
X196029998Y-172439997D01*
X196092894Y-172507106D01*
X196160000Y-172570000D01*
X196160001Y-172570001D01*
X196240002Y-172630001D01*
X196340003Y-172690001D01*
X196340007Y-172690003D01*
X196430005Y-172730002D01*
X196430010Y-172730004D01*
X196519990Y-172759997D01*
X196650005Y-172790000D01*
X196799973Y-172799998D01*
X196800005Y-172800000D01*
X196802023Y-172800000D01*
X196869062Y-172819685D01*
X196914817Y-172872489D01*
X196924761Y-172941647D01*
X196895736Y-173005203D01*
X196836958Y-173042977D01*
X196822154Y-173046355D01*
X196809998Y-173048355D01*
X196789867Y-173050000D01*
X195812211Y-173050000D01*
X195788019Y-173047617D01*
X195728518Y-173035781D01*
X195683820Y-173017267D01*
X195643731Y-172990481D01*
X195609518Y-172956268D01*
X195582732Y-172916179D01*
X195564218Y-172871480D01*
X195552383Y-172811980D01*
X195550000Y-172787789D01*
X195550000Y-171812210D01*
X195552383Y-171788017D01*
X195554383Y-171777963D01*
X195586769Y-171716053D01*
X195647485Y-171681479D01*
X195717254Y-171685220D01*
G37*
G36*
X219011980Y-158752383D02*
G01*
X219071480Y-158764218D01*
X219116179Y-158782732D01*
X219156268Y-158809518D01*
X219190481Y-158843731D01*
X219217267Y-158883820D01*
X219235781Y-158928517D01*
X219247617Y-158988017D01*
X219250000Y-159012210D01*
X219250000Y-159987789D01*
X219247617Y-160011982D01*
X219245617Y-160022036D01*
X219213231Y-160083946D01*
X219152515Y-160118520D01*
X219082746Y-160114779D01*
X219026074Y-160073912D01*
X219000493Y-160008894D01*
X219000195Y-160002216D01*
X219000079Y-160002221D01*
X218999999Y-160000001D01*
X218990001Y-159860010D01*
X218990000Y-159860003D01*
X218980000Y-159800002D01*
X218960000Y-159720003D01*
X218920004Y-159610011D01*
X218920001Y-159610004D01*
X218879999Y-159519999D01*
X218830006Y-159440008D01*
X218770001Y-159360002D01*
X218707105Y-159292893D01*
X218639997Y-159229998D01*
X218560005Y-159170003D01*
X218559989Y-159169993D01*
X218460008Y-159110004D01*
X218459997Y-159109998D01*
X218370002Y-159070000D01*
X218279999Y-159039999D01*
X218149994Y-159009999D01*
X218000026Y-159000001D01*
X217999995Y-159000000D01*
X217997977Y-159000000D01*
X217930938Y-158980315D01*
X217885183Y-158927511D01*
X217875239Y-158858353D01*
X217904264Y-158794797D01*
X217963042Y-158757023D01*
X217977846Y-158753645D01*
X217990002Y-158751645D01*
X218010133Y-158750000D01*
X218987789Y-158750000D01*
X219011980Y-158752383D01*
G37*
G36*
X194205203Y-218904263D02*
G01*
X194242977Y-218963041D01*
X194246355Y-218977845D01*
X194248355Y-218990001D01*
X194250000Y-219010132D01*
X194250000Y-219987789D01*
X194247617Y-220011982D01*
X194235781Y-220071482D01*
X194217267Y-220116179D01*
X194190481Y-220156268D01*
X194156268Y-220190481D01*
X194116179Y-220217267D01*
X194071482Y-220235781D01*
X194011982Y-220247617D01*
X193987789Y-220250000D01*
X193012211Y-220250000D01*
X192988021Y-220247618D01*
X192977966Y-220245618D01*
X192916054Y-220213233D01*
X192881480Y-220152517D01*
X192885219Y-220082748D01*
X192926085Y-220026076D01*
X192991103Y-220000494D01*
X192997783Y-220000195D01*
X192997779Y-220000079D01*
X192999998Y-219999999D01*
X193139989Y-219990001D01*
X193139996Y-219990000D01*
X193199997Y-219980000D01*
X193279996Y-219960000D01*
X193389988Y-219920004D01*
X193389995Y-219920001D01*
X193480000Y-219879999D01*
X193559991Y-219830006D01*
X193639997Y-219770001D01*
X193707106Y-219707105D01*
X193770000Y-219639999D01*
X193770001Y-219639998D01*
X193830001Y-219559997D01*
X193890001Y-219459996D01*
X193890003Y-219459992D01*
X193930002Y-219369994D01*
X193930004Y-219369989D01*
X193959997Y-219280009D01*
X193990000Y-219149994D01*
X193999998Y-219000026D01*
X194000000Y-218999995D01*
X194000000Y-218997976D01*
X194019685Y-218930937D01*
X194072489Y-218885182D01*
X194141647Y-218875238D01*
X194205203Y-218904263D01*
G37*
M02*
